<?xml version="1.0" encoding="UTF-8"?>
<svg width="1200pt" height="1200pt" version="1.1" viewBox="0 0 1200 1200" xmlns="http://www.w3.org/2000/svg">
 <path d="m612.04 39.961c118.98 0 216.32 97.344 216.32 216.36v142.81c54.035-2.5547 149.47-18.863 197.36-97.777 0 0 58.969 245.77-197.36 269.54v112.64s67.32 515.56-660 474.12c0 0 227.3-173.2 227.3-445.65v-141.12c-256.32-23.762-197.36-269.54-197.36-269.54 47.879 78.914 143.32 95.184 197.36 97.777v-142.81c0-119.02 97.344-216.36 216.36-216.36zm138.78 206.32c10.836 11.699 17.461 27.324 17.461 44.531 0 36.215-29.375 65.594-65.594 65.594-30.098 0-55.477-20.27-63.18-47.879l111.35-62.246zm-277.56 0c-10.836 11.699-17.461 27.324-17.461 44.531 0 36.215 29.375 65.594 65.594 65.594 30.098 0 55.477-20.27 63.18-47.879l-111.35-62.246zm138.78 152.43c26.676 0 48.348 28.586 48.348 63.863 0 35.281-21.637 63.863-48.348 63.863-26.676 0-48.348-28.586-48.348-63.863 0-35.281 21.637-63.863 48.348-63.863z" fill-rule="evenodd"/>
</svg>
