<?xml version="1.0" encoding="UTF-8"?>
<svg width="1200pt" height="1200pt" version="1.1" viewBox="0 0 1200 1200" xmlns="http://www.w3.org/2000/svg">
 <g>
  <path d="m674.21 227.12c3.6953 0.35937 7.4414 0.55469 11.227 0.55469s7.5273-0.19922 11.227-0.55469l9.1328-38.309 79.234-19.832c9.0664-16.336 14.246-35.133 14.246-55.137 0-62.879-50.957-113.84-113.84-113.84-62.867 0-113.84 50.957-113.84 113.84 0 20.012 5.1758 38.801 14.246 55.137l79.23 19.832zm85.035-127.91c5.7695 16.242-2.7227 34.082-18.957 39.848-16.234 5.7617-34.074-2.7266-39.844-18.969-5.7617-16.23 53.035-37.109 58.801-20.879zm-128.66 39.848c-16.242-5.7695-24.73-23.605-18.957-39.848 5.7617-16.23 64.562 4.6445 58.797 20.875-5.7656 16.246-23.609 24.734-39.84 18.973z"/>
  <path d="m544.29 267.38c-27.219 13.5-56.551 43.016-77.09 95.32-20.77 52.512-34.727 128.43-34.793 243.08 0 29.645 0.96094 61.863 3.0195 96.938 0.1875 3.168 0.76953 6.2148 1.6289 9.1328l-17.117 17.117 26.645 26.652 16.777-16.781c3.9297 1.2812 8.1094 2 12.438 2 0.80078 0 1.5977-0.019532 2.4141-0.070313 22.312-1.3242 39.336-20.465 38.031-42.789-0.22656-3.8945-0.39453-7.6094-0.59375-11.418l14.605-14.605-15.957-15.953c-0.60547-17.617-0.9375-34.41-0.9375-50.215-0.17188-122.55 17.691-191.39 35.25-227.3v758.97c0 34.555 28.016 62.551 62.551 62.551 34.547 0 62.559-27.992 62.559-62.551v-456.72h23.449v456.72c0 34.555 28.016 62.551 62.551 62.551 34.547 0 62.559-27.992 62.559-62.551v-758.71c2.9961 6.1484 6.0156 13.199 9 21.434 14.254 39.527 26.254 104.38 26.203 205.61 0.011719 27.906-0.89062 58.547-2.8477 92.211-1.3008 22.312 15.734 41.453 38.051 42.758 0.79297 0.050782 1.5938 0.070313 2.3867 0.070313 21.289 0 39.129-16.609 40.379-38.121 2.0234-35.082 2.9805-67.285 2.9805-96.918-0.20703-152.71-24.59-237.22-57.848-288.04-16.625-25.227-36.062-41.406-54.031-50.367-15.301-7.707-28.941-10.129-38.207-10.664l6.6641-29.895 11.848-53.191-2.3984 0.63281-93.73 24.664-23.352 99.293h-3.875l-23.359-99.289-93.73-24.664-2.3984-0.63281 11.848 53.184 6.6641 29.906c-9.2578 0.52344-22.91 2.9336-38.234 10.66z"/>
  <path d="m457.78 784.24-46.809-46.809-149.4 149.4c116.54-10.957 196.21-102.59 196.21-102.59z"/>
 </g>
</svg>
