<?xml version="1.0" encoding="UTF-8"?>
<svg width="1200pt" height="1200pt" version="1.1" viewBox="0 0 1200 1200" xmlns="http://www.w3.org/2000/svg">
 <g fill="#fff">
  <path d="m600 519.18c-40.762 51.98-81.609 103.89-122.43 155.82h244.85zm0 30.359 83.863 106.71h-167.73z"/>
  <path d="m75.258 661.96c57.789 79.562 115.66 159.06 173.51 238.59l166.66-19.043 184.57 94.629 184.57-94.629 166.66 19.043 173.51-238.59-201.12 87.781-153.59-18.785-170.03 92.727-170.03-92.727-153.59 18.785zm55.773 44.824 142.57 62.219 152.67-18.715 173.73 94.738 173.73-94.738 152.67 18.715 142.57-62.219-126.45 173.91-161.46-18.457-181.05 92.836-181.05-92.836-161.46 18.457z"/>
  <path d="m193.76 196.32-5.7109 16.148s-9.5 26.832-18.969 61.523-19.078 77.121-19.078 110.38c0 31.012 13 53.941 35.008 67.016 22.012 13.074 51.613 17.359 86.867 17.359h290.37l-42.992-18.016c-127.68-53.535-214.58-111.43-314.98-240.86zm7.1055 38.121c86.781 108.2 168.62 167.24 273.12 215.55h-202.11c-33.645 0-60.293-4.6133-77.309-14.723-17.016-10.105-25.816-24.648-25.816-50.902 0-29.523 9.1406-71.48 18.422-105.47 6.8555-25.117 10.586-35.281 13.695-44.457z"/>
  <path d="m1006 196.32-10.547 13.551c-100.39 129.42-187.26 187.32-314.94 240.86l-42.992 18.016h290.37c35.25 0 64.855-4.2812 86.867-17.359 22.012-13.074 35.008-36.004 35.008-67.016 0-33.254-9.6094-75.688-19.078-110.38-9.4688-34.691-18.969-61.523-18.969-61.523zm-7.1055 38.16c3.1133 9.1914 6.8477 19.328 13.695 44.422 9.2812 33.988 18.422 75.945 18.422 105.47 0 26.254-8.8398 40.797-25.855 50.902-17.016 10.105-43.629 14.723-77.27 14.723h-202.11c104.49-48.305 186.35-107.34 273.12-215.52z"/>
 </g>
</svg>
