<?xml version="1.0" encoding="UTF-8"?>
<svg width="1200pt" height="1200pt" version="1.1" viewBox="0 0 1200 1200" xmlns="http://www.w3.org/2000/svg">
 <g>
  <path d="m706.39 502.46c0-28.418-11.066-55.137-31.16-75.23-0.67188-0.67188-1.3672-1.3047-2.0508-1.9531l-19.395 59.699 50.82 36.922c1.1641-6.3477 1.7852-12.848 1.7852-19.438z"/>
  <path d="m650.84 408.97c-15.418-8.4141-32.781-12.895-50.84-12.895s-35.422 4.4844-50.844 12.898l50.84 36.938z"/>
  <path d="m526.81 425.29c-0.68359 0.64844-1.3789 1.2812-2.0469 1.9492-20.094 20.098-31.16 46.812-31.16 75.23 0 6.5938 0.62109 13.086 1.7891 19.438l50.816-36.918z"/>
  <path d="m613.84 607.94c23.172-2.9922 44.598-13.453 61.395-30.242 8.7109-8.7109 15.719-18.672 20.871-29.473l-62.863-0.003906z"/>
  <path d="m1016.5 354.36c-19.508 11.957-46.77 16.59-75.637 21.492-36.973 6.2812-75.203 12.777-88.891 35.172-5.2812 8.6406-7.1055 20.797-6.8555 34.82 9.125-10.074 21.832-20.742 37.875-26.004 11.801-3.8711 26.102-3.9883 42.668-4.125 29.176-0.24219 65.488-0.53906 98.105-23.688 26.832-19.043 40.363-62.211 47.109-97.27-13.871 22.082-32.645 46.277-54.375 59.602z"/>
  <path d="m176.19 392.03c32.617 23.148 68.93 23.445 98.105 23.688 16.562 0.13672 30.867 0.25391 42.668 4.125 16.047 5.2656 28.781 15.934 37.879 25.965 0.24609-14.008-1.582-26.148-6.8555-34.785-13.684-22.395-51.914-28.895-88.891-35.172-28.867-4.9023-56.129-9.5352-75.637-21.492-21.715-13.312-40.473-37.48-54.344-59.547 6.7578 35.066 20.293 78.215 47.074 97.219z"/>
  <path d="m193.74 337.59c16.262 9.9727 41.707 14.297 68.648 18.871 41.312 7.0195 84.031 14.273 102.38 44.309 18.008 29.469 7.5508 78.469-2.5586 125.86-6.3008 29.523-12.246 57.41-8.8906 72.305 4.6367 20.57 17.211 32.262 30.527 44.641 10.68 9.9258 21.723 20.195 27.805 34.961 6.7617 16.422 7.0586 37.559 7.3438 58.004 0.26953 19.402 0.55078 39.465 6.4023 53.598 3.4336 8.2891 8.6914 15.918 14.812 23.414 0.96875-7.4297 2.5156-15.191 4.9922-21.258 3.1055-7.6055 8.3359-14.312 13.391-20.805 5.8164-7.4648 11.309-14.512 13.625-22.488 3.6328-12.496 1.0781-32.5-0.21094-39.148-1.0352-5.332 2.4492-10.496 7.7852-11.527 5.3164-1.0352 10.496 2.4492 11.527 7.7852 0.22656 1.168 5.4805 28.812-0.21094 48.387-3.3672 11.598-10.609 20.891-16.996 29.086-4.4297 5.6875-8.6172 11.062-10.699 16.148-3.2695 8.0039-4.7383 22.801-5.0742 34.23 5.6719 6.2031 11.324 12.59 16.598 19.441 5.8789-24.371 15.961-46.348 30.125-65.551 3.2266-4.3711 9.3867-5.3008 13.754-2.0781 4.3711 3.2266 5.3008 9.3828 2.0781 13.754-16.355 22.172-26.617 48.648-30.555 78.703 8.7539 18.766 12.328 39.5 15.488 57.898 2.582 15.02 5.0234 29.211 9.707 37.285 5.0078 8.625 13.234 16.203 21.941 24.227 10.297 9.4844 20.941 19.293 27.719 32.16 7.7812 14.785 7.8906 29.273 7.9961 43.285 0.070312 9.1836 0.13672 17.855 2.3906 26.242 3.3906 12.621 15.594 28.594 24.418 38.699 9.2969-10.633 21.102-26.371 24.414-38.699 2.2539-8.3867 2.3203-17.059 2.3906-26.242 0.10547-14.012 0.21484-28.5 7.9961-43.285 6.7734-12.867 17.422-22.676 27.719-32.16 8.707-8.0234 16.938-15.602 21.941-24.227 4.6875-8.0742 7.125-22.262 9.707-37.285 3.1641-18.398 6.7383-39.137 15.492-57.906-3.9336-30.047-14.203-56.523-30.559-78.695-3.2266-4.3711-2.2969-10.531 2.0742-13.758 4.3711-3.2227 10.531-2.2969 13.758 2.0742 14.164 19.203 24.246 41.18 30.125 65.555 5.2734-6.8516 10.926-13.238 16.598-19.445-0.33203-11.434-1.8086-26.238-5.0742-34.23-2.082-5.0898-6.2656-10.465-10.699-16.152-6.3906-8.1953-13.629-17.488-16.996-29.086-5.6875-19.574-0.4375-47.219-0.21094-48.387 1.0352-5.3281 6.1758-8.8125 11.527-7.7852 5.332 1.0352 8.8203 6.1953 7.7852 11.527-1.2852 6.6836-3.8242 26.723-0.21094 39.148 2.3164 7.9727 7.8086 15.02 13.625 22.488 5.0586 6.4922 10.285 13.199 13.391 20.809 2.4766 6.0625 4.0195 13.828 4.9883 21.258 6.125-7.4961 11.383-15.125 14.816-23.418 5.8477-14.129 6.1289-34.191 6.3984-53.594 0.28516-20.441 0.58203-41.582 7.3438-58.004 6.082-14.766 17.125-25.035 27.805-34.961 13.316-12.379 25.895-24.074 30.527-44.641 3.3555-14.898-2.5938-42.785-8.8906-72.309-10.109-47.387-20.566-96.387-2.5586-125.86 18.352-30.035 61.07-37.293 102.38-44.309 26.941-4.5742 52.387-8.8984 68.648-18.871 19.453-11.926 36.781-35.043 49.562-55.879-14.125 8.6094-31.215 15.973-49.816 17.488-21.367 1.7461-39.637-0.56641-57.316-2.8047-21.637-2.7305-42.066-5.3125-68.949-1.3555-45.945 6.7773-74.273 52.328-74.555 52.785-1.9766 3.2344-5.6602 5.0547-9.4023 4.6641-3.7656-0.38672-6.9844-2.8984-8.2578-6.4648-0.85938-2.4141-19.586-55.254-19.535-89.82-8.8008-2.4609-25.957-5.9219-46.887-3.3984-25 3.0078-43.246 23.688-47.871 29.434-4.0195 19.48-7.5117 40.047-10.438 61.785-0.72266 5.3828-5.6719 9.1602-11.059 8.4375-5.3828-0.72266-9.1641-5.6758-8.4375-11.059 0.57422-4.2734 1.1836-8.4883 1.8008-12.676-12.176 6.1367-28.758 12.512-45.09 12.512-16.332 0-32.918-6.3789-45.094-12.516 0.61719 4.1914 1.2266 8.4062 1.8008 12.68 0.72656 5.3828-3.0508 10.336-8.4375 11.059-5.3711 0.72266-10.336-3.0508-11.059-8.4375-2.9258-21.738-6.418-42.305-10.438-61.785-4.6055-5.7188-22.855-26.426-47.871-29.434-20.938-2.5195-38.086 0.94141-46.887 3.4023 0.050781 34.562-18.672 87.406-19.535 89.82-1.2773 3.5703-4.4961 6.0938-8.2695 6.4766-3.7656 0.37109-7.4336-1.4453-9.4023-4.6836-0.26953-0.44922-28.602-45.996-74.547-52.773-26.875-3.9609-47.309-1.3828-68.945 1.3555-17.676 2.2344-35.965 4.5508-57.316 2.8047-18.605-1.5156-35.691-8.8789-49.816-17.488 12.781 20.84 30.109 43.961 49.559 55.883zm384.43 628.97c-0.41406 0.050781-0.82812 0.078124-1.2344 0.078124-4.8828 0-9.1172-3.6328-9.75-8.6055-0.76953-6.0508-4.3047-23.703-11.305-32.59-6.2891-7.9922-17.566-5.9766-18.039-5.8867-5.3242 1-10.469-2.4531-11.52-7.75-1.0469-5.293 2.3203-10.434 7.6055-11.531 8.6797-1.793 26.316-1.0859 37.406 12.996 11.637 14.781 15.02 39.535 15.367 42.309 0.67969 5.3906-3.1406 10.309-8.5312 10.98zm95.543-54.656c-1.1055 5.3203-6.3086 8.7305-11.629 7.6328-0.38672-0.074219-11.66-2.0859-17.953 5.9023-7 8.8906-10.535 26.543-11.309 32.594-0.63281 4.9688-4.8672 8.5977-9.75 8.5977-0.41016 0-0.82812-0.023438-1.2461-0.078125-5.3867-0.67969-9.2031-5.5898-8.5273-10.977 0.34766-2.7773 3.7344-27.527 15.371-42.309 11.09-14.082 28.73-14.789 37.406-12.996 5.3242 1.1055 8.7383 6.3164 7.6367 11.633zm4.3555-61.484c2.3398 4.9023 0.25781 10.777-4.6445 13.113-1.3672 0.65234-2.8086 0.96094-4.2266 0.96094-3.668 0-7.1875-2.0586-8.875-5.5859-2.6836-5.5391-12.031-19.898-22.945-19.898-11.758 0-25.434 15.75-29.297 21.266-1.8438 2.6289-4.8555 4.2031-8.0625 4.2031h-0.015625c-3.2188-0.007812-6.2305-1.5781-8.0664-4.2188-3.8516-5.5039-17.527-21.254-29.285-21.254-10.918 0-20.27 14.367-22.949 19.902-2.3633 4.8789-8.2422 6.9414-13.121 4.5898-4.8867-2.3477-6.9609-8.1914-4.625-13.086 0.60547-1.2695 15.113-31.082 40.695-31.082 15.613 0 29.172 11.176 37.363 19.879 8.1953-8.707 21.754-19.879 37.363-19.879 25.574 0.007812 40.082 29.82 40.691 31.09zm65.215-271.07c14.094-16.141 35.566-20.453 47.965-9.6289 12.398 10.824 11.023 32.684-3.0703 48.824s-69.84 34.68-69.84 34.68c0.003907 0.003906 10.852-57.73 24.945-73.875zm-232.42-166.02c23.809-23.812 55.469-36.926 89.141-36.926s65.332 13.113 89.141 36.926c23.812 23.809 36.926 55.469 36.926 89.141 0 33.668-13.113 65.328-36.926 89.141-23.809 23.812-55.469 36.926-89.141 36.926s-65.332-13.113-89.141-36.926c-23.812-23.809-36.926-55.469-36.926-89.141s13.113-65.332 36.926-89.141zm-102.1 156.4c12.398-10.824 33.871-6.5117 47.965 9.6289 14.094 16.141 24.941 73.879 24.941 73.879s-55.746-18.539-69.84-34.68c-14.09-16.148-15.465-38.008-3.0664-48.828z"/>
  <path d="m586.16 607.94-19.402-59.719h-62.863c5.1523 10.801 12.16 20.762 20.871 29.473 16.797 16.793 38.227 27.25 61.395 30.246z"/>
  <path d="m626.09 528.55 54.191 0.003906-43.844-31.855c-3.4453-2.5078-4.8906-6.9453-3.5742-11l16.738-51.512-43.816 31.836c-3.4492 2.5039-8.1211 2.5039-11.562 0l-43.824-31.836 16.738 51.512c1.3164 4.0508-0.12891 8.4922-3.5742 11l-43.836 31.848h54.188c4.2617 0 8.0391 2.7461 9.3555 6.7969l16.738 51.512 16.734-51.512c1.3086-4.0469 5.0859-6.793 9.3477-6.793z"/>
  <path d="m770.61 236.52c2.4492-9.3359 6.6289-19.941 12.312-30.996-22.391-21.32-48.652-29.316-79.918-24.438-8.3008 20.316-15.617 42.727-21.938 67.219 10.043-6.9922 22.789-13.246 37.684-15.039 22.246-2.6797 40.73 0.40625 51.859 3.2539z"/>
  <path d="m889.88 108.29c16.605-4.7344 35.027-6.9102 53.879-6.9453-4.125-26.297-15.762-47.543-35.336-64.656-26.449-3.0977-53.148-0.63281-77.656 7.3047 31.148 12.18 50.934 33.727 59.113 64.297z"/>
  <path d="m838.02 136.36c8.6172-7.1133 17.832-13.434 27.559-18.527 1.875-0.98047 3.8047-1.8984 5.7578-2.7852-7.8438-31.469-30.453-50.773-68.766-58.887-15.871 8.707-30.523 20.152-43.941 34.324 34.383 3.4258 61 18.789 79.391 45.875z"/>
  <path d="m258.85 43.496c-4.5195 1.3594-9.0117 2.8281-13.438 4.5312-36.914 14.195-66.199 38.781-84.547 70.5 22.535-8.6094 48.922-14.453 75.41-16.434 2.9297-22.152 10.469-41.754 22.574-58.598z"/>
  <path d="m792.94 188.08c8.3828-13.195 18.637-26.402 30.422-38.312-17.465-27.352-43.996-40.602-80.715-40.359-11.164 14.773-21.312 31.758-30.461 50.902 30.613-1.9648 57.672 7.3438 80.754 27.77z"/>
  <path d="m1039.1 118.52c-18.352-31.715-47.633-56.305-84.547-70.496-4.4258-1.7031-8.918-3.1719-13.438-4.5312 12.105 16.844 19.645 36.449 22.574 58.598 26.492 1.9766 52.879 7.8203 75.41 16.43z"/>
  <path d="m417.08 205.52c5.6797 11.055 9.8594 21.664 12.312 30.996 11.125-2.8477 29.609-5.9297 51.863-3.2539 14.895 1.793 27.641 8.0469 37.684 15.039-6.3242-24.492-13.641-46.902-21.938-67.219-31.273-4.875-57.531 3.1211-79.922 24.438z"/>
  <path d="m310.12 108.29c8.1758-30.574 27.965-52.121 59.113-64.301-24.508-7.9375-51.207-10.402-77.652-7.3047-19.574 17.109-31.211 38.359-35.336 64.66 18.852 0.035156 37.266 2.2109 53.875 6.9453z"/>
  <path d="m328.66 115.05c1.957 0.88672 3.8867 1.8047 5.7617 2.7852 9.7305 5.0938 18.941 11.414 27.559 18.527 18.387-27.09 44.988-42.457 79.383-45.879-13.418-14.168-28.066-25.613-43.938-34.32-38.312 8.1094-60.922 27.418-68.766 58.887z"/>
  <path d="m376.64 149.77c11.785 11.91 22.035 25.121 30.422 38.312 23.082-20.422 50.145-29.73 80.758-27.77-9.1445-19.145-19.297-36.129-30.461-50.906-36.754-0.24609-63.254 13.008-80.719 40.363z"/>
  <path d="m129.21 638.94c0.25-0.75391 0.41016-1.2305 0.45312-1.3672l0.09375 0.03125c13.898-33.727 29.816-65.344 46.891-86.66 0.023437-0.039062 0.050781-0.097656 0.070312-0.13281l0.023438 0.011719c10.773-13.426 22.004-22.754 33.477-25.906 34.402-9.4531 72.082 27.094 115.22 111.72 25.32 49.68 45.184 102.03 52.895 123.23 9.2305-4.0273 16.727-8.1367 21.211-10.758-0.10938-4.1055-0.16797-8.2188-0.22266-12.309-0.26953-19.453-0.52734-37.836-5.8633-50.785-4.4453-10.785-13.047-18.785-23.012-28.043-14.227-13.227-30.355-28.219-36.324-54.727-1.1953-5.3086-1.5664-11.367-1.3594-18.027-21.73-41.508-73.449-114.21-120.56-104.02-58.305 12.629-130.82 161.7-159.45 287.59-22.18 97.609-51.523 243.92-52.754 395.81h23.418c0.37891-30.992 2.5195-65.168 6.2188-101.27 0.011719-0.25 0.023437-0.46094 0.035156-0.62891l0.027344 0.003906c9.375-91.082 28.688-194.36 54.902-289.8 8.9023-32.418 24.645-85.273 44.609-133.98z"/>
  <path d="m1015.6 816.17c-2.5859-32.277-10.77-61.41-24.48-86.996-2.75 0.92578-5.6953 1.4258-8.8125 1.4258-0.42188 0-0.84375-0.011718-1.2695-0.027344-2.7109-0.10937-5.5469-0.64062-8.457-1.4648 4.9023 20.809 4.0547 39.258-2.5742 55.766 15.789 6.418 31.332 16.25 45.594 31.297z"/>
  <path d="m135.36 790.64c-4.1367 0-8.2227-0.86328-12.199-2.7734-8.2227-3.9531-13.32-12.031-15.43-24.531-1.3906 4.8828-2.7773 9.8047-4.1523 14.805-9.8242 35.773-18.66 72.648-26.363 109.54h0.007812c-2.8516 17.203-4.0586 56.145 10.922 59.805 15.941 3.9062 41.988-27.789 55.473-51.613 6.7422-18.344 13.586-34.867 20.363-48.449-0.68359-26.391 1.7812-51.18 7.3711-74.195-11.418 10.039-23.906 17.418-35.992 17.418z"/>
  <path d="m1052 644.85c-1.332-3.2344-2.6641-6.4023-3.9961-9.5039-0.25391 1.625-0.57813 3.2031-1.0273 4.6914-2.1328 7.0781-6.4492 12.508-12.473 15.699-3.2305 1.7109-6.7344 2.5781-10.531 2.5781-8.625 0-18.797-4.4805-30.812-13.551 15.742 32.715 20.09 56.074 13.102 70.723 18.527 28.523 48.41 61.207 62.035 54.652 0.48828-0.23438 11.844-6.4102 0.21484-63.605-5.8164-28.621-14.719-56.23-16.512-61.684z"/>
  <path d="m1109.3 967.46c-12.07 0-23.898-6.9531-34.324-16.215 12.254 39.59 23.586 81.828 32.871 118.7 5.0156 11.441 18.879 33.98 30.367 32.211 10.766-1.6836 13.09-26.25 12.523-37.75-3.6797-35.727-8.9219-73.367-15.523-111.7-4.1992 6.6953-10.172 11.801-18.656 13.875-2.418 0.59766-4.8438 0.875-7.2578 0.875z"/>
  <path d="m1096.4 778.13c-1.375-5.0039-2.7578-9.9219-4.1523-14.809-2.1133 12.5-7.2109 20.582-15.434 24.535-3.9766 1.9102-8.0664 2.7734-12.199 2.7734-12.086 0-24.57-7.3789-35.988-17.414 5.5898 23.02 8.0547 47.805 7.3711 74.199 6.7773 13.578 13.617 30.102 20.363 48.445 13.484 23.828 39.566 55.504 55.473 51.617 14.98-3.6602 13.773-42.602 10.922-59.805h0.007813c-7.707-36.895-16.539-73.766-26.363-109.54z"/>
  <path d="m868.61 695.34c5.8242 19.938 19.918 53.543 52.074 78.379 9.9141 0.86328 20.191 2.3516 30.547 4.9883 7.2109-17.09 6.1719-37.543-3.0898-62.168-23.742-16.594-48.113-43.938-61.48-60.016-6.2305 12.629-12.277 25.68-18.051 38.816z"/>
  <path d="m896.41 637.39c23.906 29.922 64.965 72.699 85.395 73.52 3.125 0.078125 4.4844-0.93359 5.5391-2.0898 5.9453-6.5391 3.207-29.82-22.301-75.555-11.938-21.406-25.387-41.504-33.516-53.191-11.723 15.762-23.625 35.543-35.117 57.316z"/>
  <path d="m1141.2 1121.6c-1.5195 0.23828-3.0156 0.35156-4.4766 0.35156-6.4297 0-12.312-2.1914-17.594-5.5938 5.1445 21.727 8.9688 38.816 11.047 48.258h26.715c-0.19531-15.645-0.85547-32.133-1.9336-49.266-3.6719 3.125-8.1797 5.3789-13.758 6.25z"/>
  <path d="m1147.2 768.79c-28.621-125.89-101.14-274.96-159.45-287.59-46.566-10.086-97.422 60.215-120.56 104.03 0.20703 6.6562-0.16797 12.715-1.3633 18.02-5.9727 26.504-22.098 41.496-36.324 54.723-9.9648 9.2656-18.57 17.262-23.012 28.043-5.332 12.953-5.5898 31.328-5.8633 50.785-0.054687 4.0859-0.11719 8.1992-0.22266 12.305 4.457 2.6055 11.961 6.7227 21.215 10.758 7.9688-21.93 28.566-76.18 54.805-126.96 42.367-81.98 79.426-117.28 113.31-108 11.473 3.1523 22.699 12.477 33.477 25.906l0.023438-0.011718c0.019531 0.035156 0.050781 0.09375 0.070312 0.13281 17.07 21.32 32.988 52.938 46.891 86.66l0.09375-0.03125c0.046875 0.13672 0.20703 0.61328 0.45312 1.3672 19.965 48.711 35.703 101.56 44.609 133.98 26.215 95.438 45.527 198.71 54.902 289.8l0.027344-0.003906c0.011719 0.16797 0.023437 0.38281 0.035156 0.62891 3.6992 36.098 5.8398 70.273 6.2188 101.27h23.418c-1.2266-151.89-30.57-298.2-52.754-395.81z"/>
  <path d="m840.09 766.73c6.6953 2.0547 13.746 3.7148 20.855 4.5977 7.1875 0.89453 15.879 0.98438 25.945 1.0977 1.0547 0.011718 2.125 0.023437 3.2031 0.035156-13.559-14.434-24.664-31.578-32.777-50.488-6.2695 15.324-12.062 30.426-17.227 44.758z"/>
  <path d="m1089.3 1076.7 0.042969-0.015625c-25.055-99.84-59.352-215.43-86.23-245.03-35.066-38.617-80.18-39.109-116.43-39.508-10.215-0.11328-19.867-0.21875-28.156-1.2461-23.422-2.9062-45.59-12.719-59.414-19.992-1.0703 9.5273-2.9414 18.629-6.3164 26.789-7.3203 17.676-20.5 32.027-33.246 45.906-11.453 12.469-23.293 25.363-30.953 40.68-2.2344 4.4648-4.1016 9.1836-5.7305 14.031 81.672-8.7266 144.63-34.281 187.19-76.113 3.8672-3.8086 10.098-3.7578 13.91 0.12109 3.8086 3.875 3.7539 10.102-0.12109 13.91-47.117 46.312-116.57 73.977-206.4 82.371-1.5117 7.0977-2.7266 14.168-3.8828 20.902-3.0156 17.547-5.6211 32.699-12.086 43.828-6.5039 11.195-16.223 20.152-25.625 28.812-9.4844 8.7422-18.445 16.996-23.637 26.859-5.5547 10.551-5.6406 21.543-5.7305 34.27-0.078125 10.016-0.15625 20.375-3.0625 31.199-6.7422 25.098-35.254 53.812-36.465 55.023-1.8984 1.9023-4.418 2.8828-6.957 2.8828-1.8945 0-3.8047-0.54688-5.4727-1.668-0.60156-0.40234-1.1445-0.85938-1.625-1.3633-3.4805-3.5312-29.855-30.844-36.316-54.875-2.9102-10.82-2.9844-21.18-3.0625-31.199-0.09375-12.727-0.17578-23.719-5.7305-34.27-5.1875-9.8633-14.148-18.117-23.637-26.859-9.4023-8.6602-19.121-17.617-25.625-28.812-6.4648-11.133-9.0703-26.285-12.086-43.828-1.1602-6.7344-2.375-13.805-3.8828-20.902-89.82-8.3984-159.28-36.059-206.4-82.371-3.875-3.8086-3.9297-10.035-0.12109-13.91 3.8125-3.875 10.039-3.9258 13.91-0.12109 42.562 41.832 105.52 67.391 187.19 76.113-1.625-4.8477-3.4961-9.5664-5.7305-14.031-7.6562-15.316-19.5-28.211-30.953-40.68-12.746-13.879-25.926-28.23-33.242-45.902-3.375-8.1602-5.2461-17.258-6.3164-26.781-13.84 7.2852-35.973 17.078-59.414 19.984-8.2891 1.0273-17.941 1.1328-28.156 1.2461-36.25 0.39844-81.367 0.89453-116.43 39.508-26.879 29.605-61.176 145.19-86.23 245.03l0.042969 0.015624c-0.03125 0.074219-0.078125 0.18359-0.11719 0.27734-8.0195 31.969-15.086 62.305-20.66 87.676h189.15c-2.5156-38.074-9.4297-114.13-20.129-137.67-13.332-29.332-36.777-40.871-37.012-40.984-4.875-2.3477-6.9648-8.207-4.6445-13.098 2.3242-4.8906 8.1484-6.9922 13.043-4.6914 1.2188 0.57422 30.07 14.441 46.523 50.633 13.328 29.324 20.027 116.82 21.926 145.81h602.41c1.8984-28.992 8.5977-116.49 21.926-145.81 16.453-36.195 45.305-50.059 46.523-50.633 4.9141-2.3086 10.777-0.19531 13.082 4.7266 2.3047 4.9023 0.20313 10.746-4.6875 13.066-0.45312 0.22266-23.738 11.793-37.008 40.98-10.699 23.539-17.613 99.594-20.129 137.67h189.15c-5.5742-25.375-12.641-55.707-20.66-87.676-0.027343-0.10156-0.074219-0.20703-0.10547-0.28125z"/>
  <path d="m984.56 543.89c-11.953-3.293-25.648 4.7812-39.953 20.262 6.5898 8.5859 19.398 24.766 33.613 39.945 30.402 32.453 44.309 35.719 47.086 34.258 0.91406-0.48047 2.0586-1.375 2.8516-4 4.6875-15.496-11.012-53.504-22.074-73.969-7.625-9.0078-14.863-14.664-21.523-16.496z"/>
  <path d="m174.69 638.35c2.7773 1.4688 16.684-1.7969 47.086-34.258 14.102-15.055 26.832-31.109 33.469-39.754-15.211-16.281-28.812-23.484-39.809-20.457-6.6602 1.8281-13.902 7.4844-21.523 16.496-11.062 20.469-26.762 58.473-22.074 73.969 0.79297 2.6328 1.9375 3.5234 2.8516 4.0039z"/>
  <path d="m227.45 729.1c-2.9102 0.82422-5.7461 1.3594-8.457 1.4648-0.42578 0.015625-0.84766 0.027344-1.2695 0.027344-3.1172 0-6.0625-0.49609-8.8125-1.4258-13.707 25.586-21.895 54.719-24.48 86.992 14.262-15.047 29.801-24.879 45.59-31.301-6.625-16.504-7.4727-34.953-2.5703-55.758z"/>
  <path d="m83.469 966.59c-8.4805-2.0742-14.457-7.1797-18.656-13.875-6.6016 38.328-11.844 75.969-15.523 111.7-0.5625 11.496 1.7617 36.066 12.523 37.75 11.562 1.8047 25.371-20.746 30.367-32.199 9.2852-36.875 20.617-79.125 32.875-118.72-10.426 9.2656-22.254 16.219-34.324 16.223-2.418-0.003906-4.8359-0.28125-7.2617-0.875z"/>
  <path d="m303.64 637.34c-12.172-23.098-24.023-42.281-35.227-57.168-8.1367 11.703-21.543 31.75-33.449 53.098-25.508 45.734-28.246 69.016-22.301 75.555 1.0508 1.1562 2.3828 2.1641 5.5391 2.0898 20.434-0.82031 61.535-43.652 85.438-73.574z"/>
  <path d="m206.82 644.76c-12.016 9.0742-22.188 13.555-30.812 13.559-3.8008 0-7.3008-0.86719-10.531-2.5781-6.0234-3.1914-10.34-8.6211-12.473-15.699-0.44922-1.4922-0.77344-3.0703-1.0273-4.6914-1.332 3.1016-2.6641 6.2695-3.9961 9.5039-1.7969 5.4531-10.699 33.062-16.516 61.676-11.629 57.191-0.27344 63.371 0.21484 63.605 13.66 6.5547 43.516-26.125 62.039-54.652-6.9883-14.645-2.6406-38.008 13.102-70.723z"/>
  <path d="m279.32 773.72c32.109-24.801 46.211-58.34 52.051-78.293-5.4922-12.559-11.535-25.754-18-38.934-13.359 16.07-37.75 43.441-61.508 60.047-9.2617 24.625-10.301 45.078-3.0898 62.168 10.355-2.6367 20.633-4.1211 30.547-4.9883z"/>
  <path d="m58.777 1121.6c-5.5742-0.87109-10.082-3.125-13.75-6.25-1.0781 17.129-1.7422 33.621-1.9336 49.266h26.715c2.0781-9.4414 5.9062-26.531 11.051-48.262-5.2812 3.4062-11.168 5.5977-17.598 5.5977-1.4688 0-2.9609-0.11328-4.4844-0.35156z"/>
  <path d="m339.06 771.34c7.1094-0.88281 14.156-2.5391 20.844-4.5898-3.4414-9.4688-9.4062-25.422-17.266-44.648-8.1055 18.867-19.195 35.965-32.723 50.375 1.0781-0.011718 2.1484-0.023437 3.2031-0.035156 10.062-0.11719 18.758-0.21094 25.941-1.1016z"/>
 </g>
</svg>
