<?xml version="1.0" encoding="UTF-8"?>
<svg width="1200pt" height="1200pt" version="1.1" viewBox="0 0 1200 1200" xmlns="http://www.w3.org/2000/svg">
 <g>
  <path d="m686.3 419.26c-23.051-23.051-53.703-35.75-86.305-35.75s-63.254 12.699-86.305 35.754c-23.055 23.051-35.75 53.703-35.75 86.305 0 32.602 12.695 63.254 35.75 86.305 23.051 23.055 53.703 35.75 86.305 35.75s63.254-12.695 86.305-35.75c23.055-23.055 35.75-53.707 35.75-86.305 0-32.605-12.695-63.254-35.75-86.309zm-61.047 111.56c-4.125 0-7.7852 2.6562-9.0586 6.582l-16.199 49.871-16.203-49.875c-1.2773-3.9219-4.9297-6.582-9.0586-6.582h-52.461l42.441-30.836c3.3359-2.4258 4.7344-6.7227 3.4609-10.648l-16.207-49.875 42.43 30.824c3.332 2.4219 7.8555 2.4219 11.195 0l42.422-30.824-16.203 49.871c-1.2734 3.9219 0.125 8.2227 3.4609 10.648l42.449 30.84z"/>
  <path d="m468.45 573.74c-7.9727-9.1289-18.316-15.352-29.133-17.523-11.57-2.3281-22.773 0.33984-30.742 7.293-15.938 13.918-15.016 41.148 2.0625 60.711 14.918 17.09 66.008 34.43 71.781 36.352 0.98438 0.32812 1.9961 0.48438 3.0078 0.48438 2.2695 0 4.5039-0.8125 6.2656-2.3477 2.5391-2.2227 3.7227-5.6172 3.0977-8.9336-1.1289-5.9844-11.418-58.945-26.34-76.035z"/>
  <path d="m572.25 903.3c-10.734-13.637-27.812-14.32-36.215-12.582-5.1172 1.0625-8.3789 6.0391-7.3633 11.164s5.9961 8.4727 11.152 7.5039c0.45703-0.089843 11.375-2.0391 17.465 5.6992 6.7773 8.6055 10.199 25.699 10.945 31.555 0.60938 4.8125 4.7109 8.332 9.4375 8.332 0.39453 0 0.79297-0.023438 1.1953-0.074219 5.2188-0.65234 8.918-5.4102 8.2656-10.633-0.33984-2.6875-3.6172-26.656-14.883-40.965z"/>
  <path d="m791.42 563.51c-7.9688-6.9609-19.18-9.6211-30.742-7.293-10.816 2.1719-21.164 8.3945-29.133 17.523-14.922 17.09-25.211 70.051-26.336 76.035-0.625 3.3164 0.55469 6.7109 3.0977 8.9336 1.7617 1.5391 3.9961 2.3477 6.2656 2.3477 1.0078 0 2.0234-0.16016 3.0078-0.48438 5.7773-1.9219 56.863-19.266 71.785-36.352 17.07-19.562 17.996-46.793 2.0547-60.711z"/>
  <path d="m663.97 890.71c-8.3984-1.7344-25.48-1.0508-36.215 12.582-11.266 14.309-14.543 38.273-14.883 40.961-0.65234 5.2109 3.0391 9.9688 8.2578 10.625 0.40625 0.050782 0.80859 0.078126 1.2031 0.078126 4.7227 0 8.8242-3.5156 9.4375-8.3242 0.74609-5.8594 4.168-22.949 10.949-31.559 6.0938-7.7344 17.008-5.7891 17.383-5.7148 5.1523 1.0586 10.191-2.2422 11.258-7.3906 1.0664-5.1484-2.2422-10.188-7.3906-11.258z"/>
  <path d="m636.18 812.36c-15.117 0-28.242 10.82-36.176 19.246-7.9336-8.4297-21.062-19.246-36.176-19.246-24.766 0-38.812 28.863-39.398 30.094-2.2578 4.7383-0.25391 10.395 4.4805 12.668 4.7227 2.2734 10.414 0.27734 12.703-4.4453 2.5938-5.3594 11.648-19.27 22.219-19.27 11.383 0 24.625 15.246 28.355 20.578 1.7773 2.5586 4.6953 4.0781 7.8086 4.082h0.015624c3.1055 0 6.0234-1.5234 7.8086-4.0703 3.7383-5.3438 16.98-20.59 28.363-20.59 10.57 0 19.617 13.902 22.215 19.266 1.6367 3.4141 5.043 5.4062 8.5938 5.4062 1.375 0 2.7695-0.30078 4.0938-0.92969 4.7461-2.2617 6.7617-7.9492 4.4961-12.695-0.58594-1.2305-14.633-30.094-39.402-30.094z"/>
  <path d="m242.11 956.45c-4.7422-2.2266-10.375-0.19141-12.629 4.543-2.2461 4.7344-0.23047 10.406 4.4961 12.68 0.23047 0.10938 22.926 11.285 35.836 39.68 11.418 25.113 18.383 111.98 20.102 143.34 0.27734 5.0781 4.4805 9.0039 9.5 9.0039 0.17578 0 0.35156-0.003906 0.53125-0.015625 5.2539-0.28906 9.2773-4.7812 8.9883-10.031-0.25781-4.7461-6.5508-116.67-21.777-150.18-15.938-35.039-43.867-48.461-45.047-49.02z"/>
  <path d="m957.89 956.45c-1.1797 0.55469-29.113 13.98-45.043 49.023-15.23 33.504-21.52 145.43-21.777 150.18-0.28906 5.25 3.7344 9.7422 8.9883 10.031 0.17578 0.007812 0.35156 0.015624 0.53125 0.015624 5.0195 0 9.2227-3.9258 9.5-9.0039 1.7227-31.352 8.6836-118.22 20.102-143.34 12.848-28.262 35.391-39.465 35.832-39.68 4.7344-2.2461 6.7695-7.9023 4.5391-12.648-2.2383-4.7656-7.9141-6.8125-12.672-4.5781z"/>
  <path d="m1148.4 759.2c-13.738-60.43-38.465-128.33-66.148-181.64-23.742-45.715-60.844-102.12-102.76-111.2-53.488-11.594-101.19 50.465-124.64 88.008-1.6992-9.2422-3.7969-19.09-5.9961-29.395-3.2305-15.137-6.6211-31.031-8.8828-46.148 4.4609-7.2461 18.871-28.23 39.996-35.16 8.6055-2.8242 21.082-2.9258 35.527-3.0469 30.914-0.25391 69.395-0.57031 105.86-26.449 54.637-38.773 59.723-154.51 59.91-159.42 0.15625-4.0391-2.2578-7.7344-6.0156-9.2188s-8.0508-0.4375-10.699 2.6211c-0.33203 0.38281-33.754 38.422-73.008 41.621-18.707 1.5234-34.664-0.49219-51.555-2.6289-21.293-2.6914-43.312-5.4766-71.922-1.2578-35.117 5.1797-60.508 28.539-74.164 44.574-6.3125-21.02-13.832-51.559-11.941-69.098 3.1367-29.094 37.426-86.926 84.016-111.33 47.008-24.629 129.55-13.582 174.23 11.738 3.4844 1.9727 7.8281 1.5586 10.867-1.0391 3.0469-2.5938 4.1445-6.8164 2.75-10.566-17.473-47.02-54.297-83.375-103.68-102.37-52.688-20.262-112.46-17.59-159.9 7.1484-71.301 37.184-119.21 124-142.69 258.25-7.7305 4.9805-28.648 17.215-47.551 17.215-18.902 0-39.832-12.242-47.559-17.219-23.48-134.24-71.387-221.06-142.69-258.24-47.441-24.738-107.21-27.414-159.9-7.1484-49.387 18.996-86.207 55.348-103.68 102.37-1.3945 3.75-0.29688 7.9727 2.75 10.566 3.0469 2.5938 7.3906 3.0117 10.867 1.0391 44.68-25.32 127.22-36.367 174.23-11.738 46.59 24.406 80.879 82.242 84.016 111.33 2 18.555-6.0977 49.711-11.953 69.082-13.66-16.027-39.047-39.379-74.156-44.559-28.602-4.2148-50.625-1.4336-71.918 1.2578-16.895 2.1328-32.852 4.1484-51.555 2.6289-39.254-3.1992-72.676-41.238-73.004-41.617-2.6445-3.0625-6.9414-4.1172-10.699-2.6367-3.7656 1.4844-6.1797 5.1875-6.0234 9.2305 0.19141 4.9102 5.2773 120.64 59.91 159.42 36.461 25.875 74.941 26.195 105.86 26.449 14.441 0.11719 26.922 0.22266 35.527 3.0469 20.949 6.8711 35.578 28.066 39.996 35.172-2.2578 15.113-5.6484 31.004-8.8789 46.133-2.2031 10.32-4.3008 20.18-6.0039 29.434-23.164-36.961-71.168-99.648-124.63-88.043-41.918 9.0781-79.02 65.484-102.76 111.2-27.684 53.309-52.414 121.21-66.148 181.64-22.156 97.438-51.602 244.6-51.602 396.97 0 5.2578 4.2656 9.5234 9.5234 9.5234h41.699c5.2578 0 9.5234-4.2656 9.5234-9.5234 0-17.938 0.66797-37.121 1.9375-57.223 3.5508 3.0273 7.9141 5.2109 13.312 6.0508 1.4727 0.23047 2.918 0.33984 4.3359 0.33984 6.2266 0 11.922-2.125 17.039-5.4219-7.1602 30.246-11.68 51.199-12.336 54.254-1.1016 5.1445 2.1719 10.203 7.3164 11.309 0.67188 0.14453 1.3438 0.21484 2.0039 0.21484 4.3945 0 8.3438-3.0586 9.3008-7.5312 5.707-26.633 13.484-60.461 22.504-96.406 0.039063-0.089843 0.082032-0.19141 0.11328-0.26562l-0.039063-0.015626c24.258-96.664 57.465-208.57 83.488-237.23 33.949-37.387 77.629-37.863 112.73-38.25 9.8906-0.10938 19.234-0.21094 27.258-1.207 22.695-2.8164 44.125-12.297 57.523-19.352 1.0391 9.2227 2.8477 18.031 6.1172 25.93 7.082 17.113 19.844 31.004 32.188 44.441 11.09 12.07 22.551 24.555 29.965 39.387 2.1602 4.3242 3.9727 8.8945 5.5469 13.586-79.078-8.4492-140.03-33.191-181.23-73.691-3.7461-3.6836-9.7773-3.6367-13.465 0.11719-3.6875 3.75-3.6367 9.7773 0.11719 13.465 45.617 44.84 112.87 71.621 199.83 79.754 1.4648 6.8711 2.6406 13.715 3.7578 20.234 2.918 16.988 5.4414 31.656 11.699 42.438 6.2969 10.84 15.707 19.512 24.809 27.898 9.1836 8.4648 17.859 16.453 22.883 26.004 5.3789 10.215 5.4609 20.859 5.5508 33.18 0.074219 9.6992 0.14844 19.73 2.9648 30.207 6.2539 23.27 31.789 49.715 35.16 53.133 0.46484 0.48438 0.99219 0.92969 1.5742 1.3203 1.6172 1.082 3.4609 1.6133 5.3008 1.6133 2.457 0 4.8984-0.94922 6.7344-2.7891 1.1719-1.1719 28.777-28.977 35.305-53.273 2.8164-10.477 2.8906-20.508 2.9648-30.207 0.089844-12.32 0.17188-22.965 5.5508-33.18 5.0234-9.5508 13.699-17.539 22.883-26.004 9.1016-8.3828 18.512-17.059 24.809-27.898 6.2578-10.777 8.7812-25.449 11.699-42.438 1.1172-6.5195 2.2969-13.363 3.7578-20.234 86.965-8.1328 154.21-34.914 199.83-79.754 3.7539-3.6875 3.8047-9.7148 0.11719-13.465-3.6914-3.7539-9.7227-3.8008-13.465-0.11719-41.207 40.5-102.16 65.242-181.23 73.691 1.5742-4.6914 3.3867-9.2578 5.5469-13.582 7.4141-14.832 18.879-27.312 29.965-39.387 12.34-13.438 25.102-27.332 32.188-44.445 3.2695-7.8984 5.0781-16.711 6.1172-25.938 13.387 7.043 34.848 16.543 57.523 19.355 8.0234 0.99609 17.367 1.0977 27.258 1.207 35.098 0.38672 78.777 0.86328 112.73 38.254 26.023 28.66 59.23 140.57 83.488 237.23l-0.039062 0.015626c0.03125 0.070312 0.074219 0.17578 0.11328 0.26562 9.0195 35.949 16.797 69.777 22.504 96.406 0.95703 4.4727 4.9102 7.5312 9.3008 7.5312 0.66016 0 1.332-0.070312 2.0039-0.21484 5.1445-1.1016 8.418-6.1641 7.3164-11.309-0.65625-3.0586-5.1719-24.008-12.332-54.254 5.1133 3.2969 10.809 5.418 17.035 5.418 1.418 0 2.8633-0.10938 4.3359-0.33984 5.3984-0.84375 9.7617-3.0273 13.312-6.0508 1.2656 20.102 1.9375 39.285 1.9375 57.223 0 5.2578 4.2656 9.5234 9.5234 9.5234h41.695c5.2578 0 9.5234-4.2656 9.5234-9.5234 0-152.37-29.445-299.53-51.594-396.97zm-115.63-120.44c0.4375-1.4414 0.75-2.9727 0.99609-4.543 1.2891 3.0039 2.5781 6.0703 3.8672 9.2031 1.7383 5.2773 10.355 32.012 15.992 59.715 11.258 55.375 0.26563 61.355-0.21094 61.582-13.191 6.3438-42.121-25.301-60.062-52.914 6.7656-14.18 2.5508-36.797-12.688-68.473 11.633 8.7852 21.48 13.121 29.832 13.121 3.6758 0 7.0703-0.83984 10.195-2.4961 5.832-3.0859 10.008-8.3398 12.078-15.195zm-60.449-93.09c6.4492 1.7695 13.461 7.2461 20.84 15.973 10.711 19.816 25.91 56.613 21.371 71.617-0.76562 2.5391-1.875 3.4062-2.7578 3.8711-2.6914 1.418-16.156-1.7422-45.59-33.168-13.766-14.695-26.168-30.359-32.547-38.676 13.852-14.988 27.109-22.805 38.684-19.617zm-51.348 35.035c7.8672 11.316 20.887 30.777 32.449 51.5 24.699 44.281 27.348 66.82 21.594 73.152-1.0195 1.1172-2.3359 2.0977-5.3633 2.0234-19.773-0.79687-59.527-42.211-82.676-71.18 11.125-21.086 22.645-40.238 33.996-55.496zm-22.367-526.1c18.949 16.566 30.219 37.141 34.211 62.605-18.254 0.035156-36.086 2.1406-52.168 6.7227-7.918-29.602-27.074-50.461-57.23-62.254 23.73-7.6875 49.578-10.074 75.188-7.0742zm-160.51 70.406c35.555-0.23438 61.238 12.594 78.148 39.074-11.41 11.531-21.336 24.32-29.453 37.094-22.348-19.773-48.547-28.785-78.188-26.887 8.8555-18.535 18.684-34.977 29.492-49.281zm-418.76-1.0781c-16.078-4.582-33.91-6.6914-52.164-6.7227 3.9922-25.465 15.258-46.035 34.211-62.605 25.605-2.9961 51.453-0.61328 75.184 7.0742-30.156 11.793-49.316 32.652-57.23 62.254zm93.855 77.246c-8.1133-12.773-18.043-25.562-29.453-37.094 16.906-26.484 42.562-39.32 78.148-39.074 10.809 14.305 20.637 30.746 29.492 49.285-29.641-1.8984-55.84 7.1094-78.188 26.883zm-100.14 434.96c-23.141 28.973-62.934 70.441-82.719 71.234-3.0586 0.070313-4.3438-0.90625-5.3633-2.0234-5.7539-6.332-3.1055-28.871 21.594-73.152 11.527-20.668 24.508-40.078 32.387-51.41 10.84 14.41 22.32 32.988 34.102 55.352zm-106.23-74.5c7.3789-8.7227 14.391-14.199 20.84-15.973 10.645-2.9297 23.812 4.043 38.539 19.809-6.4219 8.3633-18.75 23.91-32.402 38.488-29.438 31.422-42.898 34.586-45.59 33.168-0.88281-0.46484-1.9922-1.332-2.7578-3.8711-4.5391-15.012 10.66-51.805 21.371-71.621zm-60.461 141.49c5.6328-27.703 14.254-54.438 15.992-59.715 1.2891-3.1328 2.582-6.1992 3.8672-9.2031 0.24609 1.5742 0.55859 3.1016 0.99609 4.543 2.0664 6.8555 6.2461 12.109 12.078 15.199 3.1289 1.6562 6.5156 2.4961 10.195 2.4961 8.3516 0 18.199-4.3398 29.832-13.125-15.242 31.676-19.453 54.297-12.688 68.473-17.934 27.617-46.84 59.258-60.062 52.91-0.47656-0.22656-11.469-6.207-0.21094-61.578zm-38.039 351.87c-4.8359 11.09-18.203 32.922-29.398 31.176-10.422-1.6289-12.672-25.414-12.125-36.547 3.5625-34.59 8.6367-71.035 15.031-108.14 4.0625 6.4805 9.8516 11.426 18.062 13.434 2.3438 0.57422 4.6914 0.84375 7.0273 0.84375 11.688-0.003907 23.141-6.7344 33.234-15.703-11.867 38.328-22.844 79.234-31.832 114.94zm69.512-215.46c-6.5625 13.148-13.188 29.145-19.715 46.906-13.055 23.066-38.27 53.754-53.707 49.973-14.504-3.543-13.336-41.246-10.574-57.902h-0.007812c7.457-35.719 16.008-71.418 25.523-106.05 1.332-4.8438 2.6719-9.6055 4.0195-14.332 2.0469 12.102 6.9805 19.93 14.941 23.754 3.8516 1.8516 7.8086 2.6875 11.812 2.6875 11.699 0 23.789-7.1445 34.844-16.863-5.4102 22.277-7.7969 46.273-7.1367 71.828zm19.812-30.262c2.5039-31.25 10.43-59.453 23.699-84.227 2.6602 0.89844 5.5156 1.3789 8.5312 1.3789 0.40625 0 0.81641-0.007812 1.2305-0.027344 2.625-0.10547 5.3711-0.62109 8.1875-1.418-4.7461 20.145-3.9258 38.008 2.4922 53.992-15.289 6.2188-30.336 15.734-44.141 30.301zm91.863-41.094c-9.5977 0.83594-19.547 2.2773-29.574 4.832-6.9805-16.547-5.9727-36.352 2.9922-60.191 23.004-16.078 46.613-42.578 59.551-58.137 6.2578 12.758 12.109 25.535 17.426 37.695-5.6523 19.316-19.305 51.789-50.395 75.801zm57.844-2.3086c-6.957 0.86328-15.375 0.95313-25.121 1.0625-1.0195 0.011719-2.0586 0.023438-3.1016 0.035157 13.102-13.949 23.836-30.504 31.684-48.77 7.6055 18.617 13.387 34.062 16.715 43.23-6.4727 1.9805-13.293 3.5859-20.176 4.4414zm461.91-123.7c-10.34 9.6133-21.035 19.551-26.922 33.852-6.5469 15.898-6.832 36.363-7.1094 56.16-0.25781 18.785-0.53516 38.211-6.1953 51.891-3.3242 8.0273-8.418 15.418-14.344 22.672-0.9375-7.1953-2.4336-14.711-4.832-20.582-3.0078-7.3633-8.0703-13.859-12.965-20.145-5.6328-7.2266-10.949-14.051-13.191-21.77-3.4961-12.031-1.0391-31.434 0.20312-37.906 1.0039-5.1641-2.3711-10.16-7.5352-11.16-5.1875-0.99609-10.16 2.375-11.16 7.5352-0.21875 1.1328-5.3047 27.898 0.20313 46.848 3.2617 11.23 10.27 20.227 16.457 28.16 4.2891 5.5078 8.3438 10.711 10.355 15.637 3.1602 7.7344 4.5898 22.07 4.9102 33.141-5.4922 6.0078-10.965 12.191-16.07 18.828-5.6914-23.602-15.453-44.879-29.168-63.469-3.125-4.2305-9.0859-5.1289-13.32-2.0078-4.2305 3.125-5.1328 9.082-2.0078 13.32 15.832 21.465 25.777 47.098 29.586 76.191-8.4766 18.172-11.938 38.246-15 56.062-2.5 14.543-4.8633 28.281-9.3984 36.098-4.8477 8.3516-12.812 15.688-21.246 23.457-9.9688 9.1836-20.277 18.68-26.836 31.137-7.5352 14.316-7.6367 28.344-7.7422 41.91-0.066407 8.8906-0.13281 17.289-2.3125 25.406-3.207 11.938-14.637 27.176-23.637 37.469-8.5469-9.7852-20.359-25.25-23.645-37.469-2.1836-8.1172-2.2461-16.516-2.3125-25.406-0.10156-13.562-0.20703-27.594-7.7422-41.91-6.5586-12.457-16.867-21.953-26.836-31.137-8.4297-7.7695-16.398-15.105-21.246-23.457-4.5391-7.8164-6.8984-21.555-9.3984-36.098-3.0625-17.812-6.5234-37.887-14.996-56.059 3.8086-29.098 13.746-54.734 29.582-76.199 3.125-4.2305 2.2227-10.191-2.0117-13.316-4.2266-3.1211-10.191-2.2227-13.316 2.0117-13.715 18.59-23.473 39.863-29.168 63.465-5.1016-6.6328-10.578-12.812-16.07-18.824 0.32031-11.07 1.7461-25.395 4.9102-33.145 2.0156-4.9258 6.0664-10.129 10.355-15.637 6.1875-7.9375 13.195-16.934 16.457-28.16 5.5078-18.949 0.42188-45.715 0.20312-46.848-1.0039-5.1641-6.0156-8.5391-11.16-7.5352-5.1641 1.0039-8.5391 6-7.5352 11.16 1.2461 6.4414 3.7227 25.809 0.20313 37.906-2.2422 7.7188-7.5625 14.543-13.191 21.77-4.8984 6.2852-9.9609 12.781-12.965 20.145-2.3984 5.875-3.8945 13.391-4.832 20.582-5.9258-7.2539-11.02-14.645-14.34-22.668-5.6641-13.684-5.9375-33.105-6.1992-51.895-0.27734-19.793-0.5625-40.258-7.1094-56.16-5.8867-14.297-16.582-24.238-26.922-33.852-12.895-11.984-25.07-23.309-29.559-43.223-3.25-14.422 2.5078-41.422 8.6055-70.004 9.7891-45.883 19.91-93.32 2.4805-121.85-17.766-29.082-59.125-36.105-99.125-42.898-26.082-4.4297-50.719-8.6133-66.465-18.27-18.832-11.547-35.609-33.926-47.984-54.102 13.676 8.3359 30.223 15.465 48.234 16.93 20.672 1.6914 38.375-0.54688 55.492-2.7148 20.949-2.6484 40.734-5.1445 66.754-1.3125 44.484 6.5625 71.914 50.66 72.176 51.094 1.9062 3.1367 5.457 4.8945 9.1016 4.5352 3.6562-0.36719 6.7695-2.8125 8.0078-6.2695 0.83203-2.3359 18.961-53.496 18.91-86.961 8.5195-2.3828 25.125-5.7305 45.395-3.293 24.219 2.9141 41.895 22.961 46.352 28.496 3.8945 18.859 7.2734 38.777 10.105 59.82 0.69922 5.2109 5.5078 8.8672 10.707 8.168 5.2109-0.69922 8.8711-5.4961 8.168-10.707-0.55859-4.1367-1.1445-8.2148-1.7422-12.277 11.789 5.9414 27.844 12.117 43.66 12.117 15.812 0 31.867-6.1719 43.656-12.113-0.59766 4.0586-1.1875 8.1367-1.7422 12.273-0.70312 5.2109 2.9531 10.008 8.168 10.707 5.2148 0.69922 10.008-2.9531 10.707-8.168 2.832-21.043 6.2148-40.961 10.105-59.82 4.4805-5.5625 22.145-25.59 46.352-28.496 20.266-2.4414 36.875 0.91016 45.395 3.2891-0.050781 33.465 18.078 84.625 18.91 86.961 1.2344 3.4531 4.3477 5.8867 7.9961 6.2578 3.625 0.37891 7.1914-1.3828 9.1055-4.5156 0.26953-0.44531 27.703-44.547 72.184-51.105 26.027-3.832 45.805-1.3359 66.754 1.3125 17.113 2.1641 34.805 4.4062 55.492 2.7148 18.012-1.4648 34.559-8.5938 48.234-16.93-12.375 20.172-29.152 42.559-47.984 54.102-15.746 9.6562-40.383 13.84-66.465 18.27-39.996 6.7969-81.355 13.82-99.125 42.898-17.434 28.531-7.3086 75.973 2.4805 121.85 6.1016 28.582 11.855 55.582 8.6055 70.008-4.4688 19.918-16.645 31.238-29.539 43.227zm68.48 124.77c-9.7461-0.10547-18.164-0.19922-25.121-1.0625-6.8828-0.85547-13.711-2.4609-20.191-4.4531 4.9961-13.875 10.609-28.496 16.68-43.332 7.8516 18.312 18.602 34.906 31.734 48.883-1.043-0.015625-2.0781-0.027344-3.1016-0.035157zm62.293 6.0781c-10.023-2.5547-19.973-3.9922-29.574-4.832-31.137-24.047-44.777-56.582-50.418-75.887 5.5898-12.719 11.445-25.355 17.473-37.582 12.941 15.562 36.539 42.039 59.523 58.105 8.9727 23.844 9.9805 43.648 2.9961 60.195zm18.156 5.9609c6.418-15.984 7.2383-33.844 2.4922-53.992 2.8164 0.79687 5.5625 1.3125 8.1875 1.418 0.41016 0.015625 0.82031 0.027344 1.2305 0.027344 3.0156 0 5.8672-0.48047 8.5312-1.3789 13.27 24.773 21.199 52.98 23.699 84.23-13.809-14.57-28.855-24.086-44.141-30.305zm63.949 60.562c0.66016-25.551-1.7266-49.551-7.1367-71.84 11.055 9.7148 23.145 16.863 34.844 16.863 4 0 7.9609-0.83594 11.809-2.6875 7.9609-3.8281 12.898-11.652 14.941-23.754 1.3477 4.7266 2.6914 9.4922 4.0195 14.336 9.5117 34.637 18.066 70.336 25.523 106.05h-0.007812c2.7578 16.656 3.9297 54.359-10.574 57.902-15.398 3.7656-40.648-26.906-53.711-49.973-6.5234-17.758-13.145-33.75-19.707-46.898zm98.91 246.64c-11.125 1.7109-24.547-20.109-29.402-31.188-8.9883-35.699-19.961-76.594-31.824-114.92 10.094 8.9688 21.547 15.699 33.23 15.699 2.332 0 4.6836-0.26953 7.0273-0.84375 8.2109-2.0078 13.996-6.9531 18.062-13.434 6.3945 37.105 11.465 73.551 15.031 108.14 0.54688 11.129-1.7031 34.918-12.125 36.547z"/>
 </g>
</svg>
