<?xml version="1.0" encoding="UTF-8"?>
<svg width="1200pt" height="1200pt" version="1.1" viewBox="0 0 1200 1200" xmlns="http://www.w3.org/2000/svg">
 <g>
  <path d="m599.84 259.93-190.01 98.262 0.15625 196.28 191.93 385.61 188.24-385.85-0.16016-196.28-190.16-98.016zm0.15625 29.957 161.85 83.562v167.12l-161.85 83.562-161.85-83.562v-167.12z"/>
  <path d="m599.96 358.26c-13.699 0.074219-26.879 7.5938-35.027 22.574-7.4766 13.75-11.809 33.406-13.062 61.305h-13.785v113.62h123.84v-113.62h-12.859c-1.1055-26.719-5.6367-46.398-13.293-60.363-8.3789-15.289-21.664-23.59-35.809-23.512zm0.089844 15.762c8.5469-0.046876 15.488 3.625 21.902 15.328 5.8047 10.594 10.203 27.934 11.332 52.789h-65.625c1.2852-26.141 5.5664-43.555 11.125-53.773 6.1133-11.242 12.449-14.293 21.266-14.34z"/>
 </g>
</svg>
