<?xml version="1.0" encoding="UTF-8"?>
<svg width="1200pt" height="1200pt" version="1.1" viewBox="0 0 1200 1200" xmlns="http://www.w3.org/2000/svg">
 <path d="m1009.9 861.74c0-0.1875-0.1875-0.375-0.375-0.75-18.188-38.766-47.016-71.531-83.156-94.5s-78.047-35.203-120.84-35.25h-93v-69.188c29.672-11.906 55.641-31.5 75.188-56.812 0.375-0.65625 0.84375-1.2656 1.3125-1.875 23.109-30.703 35.625-68.062 35.625-106.5v-243.74c-0.046875-47.25-18.844-92.531-52.219-125.9-33.375-33.375-78.656-52.172-125.9-52.219h-93c-47.25 0.046875-92.531 18.844-125.9 52.219-33.375 33.375-52.172 78.656-52.219 125.9v243.74c0.046876 32.109 8.7188 63.609 25.172 91.172 16.453 27.609 39.984 50.25 68.203 65.578v77.625h-74.25c-42.797 0.046874-84.703 12.281-120.84 35.25-36.141 22.969-64.969 55.734-83.156 94.5-0.1875 0.375-0.375 0.5625-0.375 0.75-14.016 29.812-21.328 62.297-21.375 95.25v149.26c0 4.9688 1.9688 9.75 5.4844 13.266s8.2969 5.4844 13.266 5.4844h825c4.9688 0 9.75-1.9688 13.266-5.4844s5.4844-8.2969 5.4844-13.266v-149.26c-0.046875-32.953-7.3594-65.438-21.375-95.25zm-49.688-11.812h-163.5l70.688-70.5c37.547 13.219 70.031 37.875 92.812 70.5zm-154.69-81.188c6.1875 0 12.375 0.375 18.375 0.9375l-200.06 200.06c-1.6406-0.51563-3.3281-0.84375-5.0625-0.9375h-108.75l196.31-196.31c0.9375-1.1719 1.7344-2.4375 2.4375-3.75zm-130.5-37.5h-168.74v-62.812c15.375 4.3125 31.266 6.5156 47.25 6.5625h93c9.5625-0.09375 19.078-0.98438 28.5-2.625zm46.5-115.69-121.31-121.31h81.188l81.375 81.375c-10.875 15.984-24.938 29.578-41.25 39.938zm65.625-118.69c0 14.719-2.2969 29.297-6.75 43.312l-45.938-45.938h52.688zm-1.125-261.19h-175.5l-65.812-65.812h214.87c14.297 19.312 23.391 41.953 26.438 65.812zm-232.5-123.19h93c25.359 0 50.25 6.8906 72 19.875h-211.31l-8.625-8.625c17.391-7.4062 36.047-11.203 54.938-11.25zm-87.938 31.125 92.062 92.062h-81.188l-47.438-47.25c8.9062-17.344 21.375-32.625 36.562-44.812zm-50.062 84.188 7.875 7.875h-9.375c0.375-2.625 0.9375-5.25 1.5-7.875zm-2.625 45.375h374.26v22.875h-374.26zm318.37 92.438c0 11.391-6.8438 21.609-17.344 25.969-10.547 4.3594-22.641 1.9688-30.656-6.0938-8.0625-8.0156-10.453-20.109-6.0938-30.656 4.3594-10.5 14.578-17.344 25.969-17.344 15.516 0 28.125 12.609 28.125 28.125zm-206.26 0c0 11.391-6.8438 21.609-17.344 25.969-10.547 4.3594-22.641 1.9688-30.656-6.0938-8.0625-8.0156-10.453-20.109-6.0938-30.656 4.3594-10.5 14.578-17.344 25.969-17.344 15.516 0 28.125 12.609 28.125 28.125zm-112.12 68.25h374.26v22.875h-374.26zm0 63v-2.625h134.26l74.438 74.25h-188.81c-13.031-21.609-19.875-46.406-19.875-71.625zm52.125 109.12h194.06l25.875 26.062c-12.516 3.5156-25.453 5.3438-38.438 5.4375h-93c-32.25 0.046875-63.516-11.109-88.5-31.5zm-70.5 162.74h262.5l-81.375 81.188h-335.81c35.109-50.812 92.906-81.188 154.69-81.188zm-188.26 188.26c0-23.859 4.5938-47.438 13.5-69.562h318.37l-81.188 81.375h-250.69zm131.26 130.5v-56.25c0-10.359-8.3906-18.75-18.75-18.75s-18.75 8.3906-18.75 18.75v56.25h-93.75v-81.188h381.19l-81.375 81.188zm221.63 0 200.06-200.06h113.62l-199.87 200.06zm434.63 0h-93.75v-56.25c0-10.359-8.3906-18.75-18.75-18.75s-18.75 8.3906-18.75 18.75v56.25h-136.69l81.375-81.188h186.56zm0-118.69h-149.06l77.062-77.25c1.125-1.2188 2.1094-2.625 2.8125-4.125h55.875c8.7656 22.172 13.266 45.75 13.312 69.562z" fill="#fff"/>
</svg>
