<?xml version="1.0" encoding="UTF-8"?>
<svg width="1200pt" height="1200pt" version="1.1" viewBox="0 0 1200 1200" xmlns="http://www.w3.org/2000/svg">
 <g>
  <path d="m600 19.055c100.64 0 189.16 60.738 242.9 166.66 27.094 53.379 49.191 145.07 70.594 233.73 20.641 85.617 40.141 166.47 64.023 216.26 24.668 51.453 68.617 103.12 111.14 153.07 41.309 48.57 80.332 94.426 92.785 130.95 1.3555 3.9766 5.0469 6.4531 9.0234 6.4531 1.0234 0 2.0469-0.14453 3.0703-0.5 4.9766-1.6914 7.6445-7.1172 5.9531-12.094-13.617-39.953-53.809-87.164-96.332-137.14-41.715-49.047-84.855-99.762-108.48-148.97-23-47.953-42.285-127.88-62.691-212.5-21.641-89.715-44.023-182.52-72.094-237.88-57.117-112.55-151.83-177.09-259.9-177.09s-202.78 64.547-259.9 177.09c-28.07 55.355-50.453 148.16-72.094 237.88-20.406 84.617-39.691 164.55-62.691 212.5-23.617 49.215-66.762 99.926-108.48 148.97-42.523 49.977-82.715 97.188-96.332 137.14-1.6914 4.9766 0.97656 10.406 5.9531 12.094 4.9766 1.6914 10.379-0.97656 12.094-5.9531 12.453-36.523 51.477-82.379 92.785-130.95 42.523-49.953 86.477-101.62 111.14-153.07 23.879-49.785 43.379-130.64 64.023-216.26 21.406-88.664 43.5-180.36 70.594-233.73 53.742-105.93 142.26-166.66 242.91-166.66z"/>
  <path d="m1034.6 893.28c-1.0938-5.1445-6.168-8.4297-11.285-7.332-5.1445 1.0938-8.4297 6.1445-7.332 11.285 27.641 129.81 82.715 228.09 168.36 300.5 1.7852 1.5234 3.9766 2.2617 6.1445 2.2617 2.6914 0 5.3828-1.1445 7.2617-3.3828 3.4062-4 2.9062-10.023-1.1172-13.406-82.293-69.59-135.29-164.42-162.03-289.92z"/>
  <path d="m999.92 1035c-17.523-26.715-37.402-56.977-44.402-88.785-12.191-55.215-36.617-269.76-36.879-271.9-0.59375-5.2383-5.2852-9.0234-10.523-8.4062-5.2383 0.59375-9 5.3086-8.4062 10.547 1.0234 8.8555 24.809 217.69 37.191 273.88 7.7617 35.215 28.668 67.047 47.117 95.117 11.691 17.809 22.738 34.641 27.477 48.402 12 34.715 12.145 95.977 12.145 96.594 0 5.2617 4.2617 9.5234 9.5234 9.5234 5.2617 0 9.5234-4.2617 9.5234-9.5234 0-2.6445-0.14453-65.07-13.191-102.83-5.5273-15.973-17.195-33.781-29.574-52.613z"/>
  <path d="m901.85 1077.9c-5.2617 0-9.5234 4.2617-9.5234 9.5234v103.02c0 5.2617 4.2617 9.5234 9.5234 9.5234 5.2617 0 9.5234-4.2617 9.5234-9.5234v-103.02c0-5.2617-4.2617-9.5234-9.5234-9.5234z"/>
  <path d="m849.85 619.79c-5.0469-1.3555-10.309 1.6445-11.668 6.7383-73.809 274.28-209.71 420.07-415.52 445.71-5.2148 0.64453-8.9297 5.4062-8.2852 10.617 0.61719 4.832 4.7148 8.3555 9.4531 8.3555 0.38281 0 0.78516-0.023437 1.1914-0.070313 110.86-13.809 203.93-62.309 276.66-144.16 67.547-76.023 118.24-179.23 154.88-315.52 1.3828-5.0703-1.6172-10.281-6.7148-11.664z"/>
  <path d="m816.93 465.88c14.738-7.0938 22.641-23.141 19.191-39.047-7.1914-33.191-24.047-93.309-56.117-123.19-44.832-41.785-93-33.477-120.86-6.7148-13.691 13.145-21.332 32.309-20.953 52.57 0.28516 16.145 5.8086 30.168 15.117 38.5 10.977 9.7617 26.594 11.645 43.168 13.617 13.238 1.5938 26.953 3.2383 39.168 8.8789 11.047 5.1172 23.332 19.406 34.594 40.262 6.4062 11.855 18.594 18.645 31.262 18.645 5.1875 0 10.449-1.1406 15.426-3.5234z"/>
  <path d="m797.43 926.07c-4.7617-2.2383-10.43-0.23828-12.691 4.5234-41.5 87.426-109.57 150.66-202.31 188.02-4.8828 1.9531-7.2383 7.5-5.2852 12.379 1.5 3.7148 5.0703 5.9766 8.8555 5.9766 1.168 0 2.3828-0.23828 3.5469-0.69141 97.309-39.191 168.79-105.64 212.4-197.52 2.2422-4.7344 0.21875-10.426-4.5195-12.688z"/>
  <path d="m447.36 473.62c-22.453 17.906-30.879 68.191-24.379 102.12 4.3828 22.906 15.379 38.117 30.977 42.832 35.262 10.715 59.141-17.668 74.977-36.43 4.5938-5.4766 8.9531-10.645 12.645-13.832 15.57-13.547 36.309-21 58.43-21 22.117 0 42.855 7.4531 58.43 21 3.6914 3.1914 8.0469 8.3555 12.645 13.832 13.43 15.93 32.691 38.785 59.762 38.785 4.8086 0 9.8789-0.73828 15.215-2.3555 15.594-4.7148 26.594-19.93 30.977-42.832 6.5-33.93-1.9297-84.215-24.379-102.12-21.43-17.07-53.238-10.191-72.238-3.5938 1.0703-16.879-1.1172-41.094-20.379-50.285-22-10.5-48.023 5.5234-60.023 14.547-12-9.0234-38.023-25.07-60.023-14.547-19.262 9.1914-21.453 33.406-20.379 50.285-19.02-6.5742-50.828-13.477-72.254 3.5938z"/>
  <path d="m429.76 450.77c11.262-20.855 23.547-35.141 34.594-40.262 12.215-5.6445 25.93-7.2852 39.168-8.8789 16.57-1.9766 32.191-3.8555 43.168-13.617 9.3086-8.332 14.832-22.355 15.117-38.5 0.38281-20.262-7.2617-39.43-20.953-52.57-27.855-26.762-76.023-35.07-120.86 6.7148-32.07 29.879-48.93 90-56.117 123.19-3.4531 15.906 4.4531 31.953 19.191 39.047 4.9766 2.3828 10.238 3.5234 15.43 3.5234 12.664-0.003906 24.855-6.7891 31.258-18.645z"/>
  <path d="m290.1 1072.2c-5.2148-0.38281-9.832 3.5234-10.238 8.7617l-7.9766 104.19c-0.40625 5.2383 3.5234 9.8086 8.7617 10.215 0.23828 0.023438 0.5 0.023438 0.73828 0.023438 4.9297 0 9.0938-3.7852 9.4766-8.7852l8-104.19c0.40625-5.2383-3.5234-9.8086-8.7617-10.215z"/>
  <path d="m290.79 675.83c0.070313-0.45312 0.09375-0.92969 0.09375-1.4062 0-5.0938-4-9.3086-9.0938-9.5234-2.1914-0.070313-9.1914 0.38281-10.07 10.406l-0.42969 5.0469c-11.191 129.52-22.715 218.88-32.453 251.62-9.6445 32.406-26.762 58.094-43.309 82.926-12.285 18.5-23.906 35.93-31.406 54.738-17.43 43.668-17.953 113.24-17.953 116.19-0.023438 5.2383 4.2148 9.5234 9.4766 9.5469h0.046875c5.2383 0 9.5-4.2383 9.5234-9.4766 0-0.69141 0.5-68.855 16.594-109.19 6.7617-16.977 17.832-33.617 29.57-51.238 16.523-24.809 35.238-52.93 45.715-88.07 12.93-43.477 25.168-162.88 33.168-255.4 0.26562-3.2344 0.45703-5.332 0.52734-6.1641z"/>
  <path d="m166.62 872.83c-5.2148-0.73828-10.023 2.9062-10.738 8.0938-16.094 114.31-67.617 216.19-153.14 302.85-3.6914 3.7383-3.6445 9.7852 0.09375 13.477 1.8555 1.832 4.2852 2.7383 6.6914 2.7383 2.4531 0 4.9062-0.95312 6.7852-2.832 88.449-89.641 141.73-195.14 158.43-313.57 0.73828-5.2109-2.9023-10.023-8.1172-10.762z"/>
 </g>
</svg>
