<?xml version="1.0" encoding="UTF-8"?>
<svg width="1200pt" height="1200pt" version="1.1" viewBox="0 0 1200 1200" xmlns="http://www.w3.org/2000/svg">
 <g>
  <path d="m535.95 314.12c-20-18.102-36.176 13.477-74.625 56s-84.602 80-64.602 97.977c20 17.977 81.5-5.4258 120-47.926 38.504-42.5 39.254-87.949 19.227-106.05z"/>
  <path d="m665.65 314.12c-20 18.102-19.176 63.523 19.273 106.05 38.449 42.523 100 66.023 120 47.926 20-18.102-26.148-55.477-64.602-97.977-38.445-42.5-54.645-74.102-74.672-56z"/>
  <path d="m945 951.9s44-112.5 46.324-404.75-243.07-528.4-391.32-528.4-393.75 236.1-391.43 528.4c2.3242 292.3 46.426 404.75 46.426 404.75s-236.35 85.453-236.35 229.35h1162.7c0-143.9-236.35-229.35-236.35-229.35zm-62.801-485.85c-16.875 224.4-140.6 312.12-140.6 312.12s-24.676 310-141.6 310c-116.93 0-141.6-310-141.6-310s-123.73-87.727-140.6-312.12c-16.867-224.4 185.51-287.65 282.21-287.65 63 0.85547 124.41 19.914 176.82 54.875 17.352 11.805 33.23 25.633 47.301 41.203 22.426 26.164 39.168 56.707 49.168 89.684 9.9961 32.98 13.027 67.676 8.9062 101.89z"/>
  <path d="m538.05 547c8 20 61.949 4.375 61.949 4.375s53.926 15.648 61.926-4.375-61.926-68.051-61.926-68.051-70 48.027-61.949 68.051z"/>
  <path d="m600 643.82c-31.898 0-61.199 8.7734-62.5 59.727-1.3008 50.949 20.398 289.82 62.5 289.82 42.148 0 63.926-238.9 62.5-289.82s-30.602-59.727-62.5-59.727z"/>
 </g>
</svg>
