<?xml version="1.0" encoding="UTF-8"?>
<svg width="1200pt" height="1200pt" version="1.1" viewBox="0 0 1200 1200" xmlns="http://www.w3.org/2000/svg">
 <g fill="#fff" fill-rule="evenodd">
  <path d="m687.24 859.8c127.8 48 212.4 172.8 263.52 294.48h-701.52c50.762-120.84 134.4-244.44 260.52-293.28l71.281 227.64zm225.24-120.48c62.039 34.32 104.04 99.359 104.04 173.76v98.641c-47.398-93.84-115.2-185.4-206.52-237.72 32.879-16.324 67.199-28.445 102.48-34.684zm-721.32 271.8v-116.28c0-66.359 36.961-124.68 91.922-156.36 36.961 6 72.84 18.48 107.28 35.52-89.402 52.199-153.12 144.48-199.2 237.12z"/>
  <path d="m367.08 351.36 19.078-0.12109 15.359-138.24c2.5195-23.16 13.32-43.32 34.559-54.602 21.359-11.281 46.441-10.199 66.84 2.7617 72.84 46.559 144.36 50.52 216.12 2.0391 20.281-13.68 45.719-15.238 67.559-4.0781 21.602 11.039 33 31.559 35.281 55.199l13.078 134.64 15.48-0.12109v-69c0-129.12-108.36-234.36-241.32-234.36-132.96 0-240 105.24-241.32 234.36z"/>
  <path d="m849.6 499.8c12.719-6.1211 26.039-12.238 36.359-18 1.8008-0.96094 2.8789-2.7617 2.8789-4.6797 1.6797-55.078 3.4805-110.28 5.1602-165.48 0.12109-2.0391-0.83984-3.8398-2.7617-5.0391-1.8008-1.0781-3.8398-1.0781-5.7617-0.12109-9.9609 5.1602-20.039 10.441-30 15.602-1.0781 0.60156-1.9219 1.4414-2.5195 2.5195-2.6406 5.5195-5.3984 11.039-8.0391 16.68-0.71875 1.5586-1.9219 2.5195-3.6016 3-1.6797 0.48047-3.2383 0.35938-4.6797-0.60156-0.71875-0.48047-1.5586-0.96094-2.3984-1.4414z"/>
  <path d="m369 504.48c-13.922-7.5586-28.801-15.602-41.398-22.68-1.8008-0.96094-2.8789-2.7617-2.8789-4.6797-1.8008-55.078-3.4805-110.28-5.1602-165.48-0.12109-2.0391 0.96094-3.8398 2.7617-5.0391 1.8008-1.0781 3.8398-1.0781 5.7617-0.12109 9.9609 5.1602 20.039 10.441 30 15.602 1.0781 0.60156 1.9219 1.4414 2.5195 2.5195 2.7617 5.5195 5.3984 11.039 8.0391 16.68 0.71875 1.5586 1.9219 2.5195 3.6016 3 1.6797 0.48047 3.2383 0.35938 4.6797-0.60156 1.1992-0.71875 5.3984-2.5195 10.441-4.5586z"/>
  <path d="m490.8 179.88c89.52 57.238 170.04 49.32 240.48 1.6797 13.68-9.2383 30.238-10.199 45-2.7617 14.762 7.5586 21.719 21.48 23.281 37.68l30.238 310.44c9.1211 94.441-114.84 173.64-218.4 173.64-103.44 0-233.64-74.641-223.2-168.84l35.039-316.32c1.8008-15.961 8.3984-29.762 22.801-37.441 14.637-7.4375 31.078-6.8359 44.758 1.9219zm28.199 216.96c10.922 0 19.801 10.801 19.801 24 0 13.32-8.8789 24.121-19.801 24.121s-19.68-10.801-19.68-24.121c-0.12109-13.199 8.7578-24 19.68-24zm171 0c10.922 0 19.801 10.801 19.801 24 0 13.32-8.8789 24.121-19.801 24.121s-19.801-10.801-19.801-24.121c0-13.199 8.8789-24 19.801-24zm54.238-93.961c5.2812-3 12.121-1.1992 15.121 4.0781 3.1211 5.3984 1.1992 12.121-4.0781 15.121l-93.961 54.238c-5.2812 3.1211-12.121 1.1992-15.121-4.0781-3.1211-5.2812-1.3203-12.121 4.0781-15.121zm-276.72 19.082c-5.3984-3.1211-7.0781-9.8398-4.0781-15.121 3.1211-5.2812 9.8398-7.0781 15.121-4.0781l93.961 54.359c5.2812 3 7.0781 9.8398 4.0781 15.121s-9.8398 7.0781-15.121 4.0781zm39.602 170.4c69.84 17.641 139.56 18.121 209.52 0l36.48-9.4805-9.4805 36.48c-8.5195 32.879-24.84 64.078-50.52 86.762-22.199 19.68-50.039 31.559-79.922 32.039-29.762 0.48047-57.602-10.68-80.039-30-26.641-22.922-43.32-54.84-52.68-88.32l-10.32-36.84z"/>
  <path d="m585.12 1027.3 116.4-250.8v-69.961c-28.68 10.199-59.641 16.32-90 16.32-30.961 0-62.762-6-92.281-16.078v110.64z"/>
  <path d="m283.08 738.48c-54.84 31.559-91.922 90-91.922 156.36v116.28c45.961-92.641 109.8-184.92 199.08-237.12-34.312-17.039-70.195-29.52-107.16-35.52z"/>
  <path d="m1016.5 1011.6v-98.641c0-74.398-42-139.44-104.04-173.76-35.281 6.2383-69.602 18.359-102.48 34.68 91.32 52.32 159 143.88 206.52 237.72z"/>
  <path d="m497.16 766.32c-65.281-129.36-202.2-261.12-335.4-349.32-1.1992-0.71875-2.7617-0.71875-3.8398 0.23828-1.0781 0.96094-1.4414 2.3984-0.71875 3.7188 58.32 113.52 60.359 211.8 6.1211 294.6-0.71875 1.0781-0.71875 2.3984 0.12109 3.4805 0.83984 0.96094 2.0391 1.4414 3.3594 1.1992 86.641-20.039 177.12-1.8008 271.32 54.719-97.32 40.32-179.64 136.56-246.84 288.48v90.84h33.961c70.441-172.56 170.64-273.36 277.92-314.52l-5.8789-18.961-0.007812-54.477z"/>
  <path d="m723.6 729c70.801-117 194.16-232.32 314.52-312 1.1992-0.71875 2.7617-0.71875 3.8398 0.23828 1.0781 0.96094 1.4414 2.3984 0.71875 3.7188-58.32 113.52-60.359 211.8-6.1211 294.6 0.71875 1.0781 0.71875 2.3984-0.12109 3.4805-0.71875 0.96094-2.0391 1.4414-3.2383 1.1992-86.762-20.039-177.12-1.8008-271.44 54.719 97.441 40.32 187.32 136.56 254.52 288.48v90.84h-41.641c-70.316-172.8-170.64-273.6-278.04-314.64l27.121-58.32-0.003906-52.32z"/>
  <path d="m501.72 513.84c13.441 47.879 39.238 78.359 69 92.641 20.398-30.48 63.121-28.922 82.68-0.23828 30.602-14.641 56.762-45.84 68.879-92.398-15.359 3.9609-30.602 7.0781-45.84 9.3594l4.4414-0.60156-13.441 47.762-15.48-44.16 1.1992-0.23828c-27.359 2.6406-54.602 2.5195-81.48 0h0.35938l-12.48 44.281c-5.3984-15.961-10.801-31.922-16.078-48l0.96094 0.23828c-14.398-2.1641-28.559-5.043-42.719-8.6445z"/>
 </g>
</svg>
