<?xml version="1.0" encoding="UTF-8"?>
<svg width="1200pt" height="1200pt" version="1.1" viewBox="0 0 1200 1200" xmlns="http://www.w3.org/2000/svg">
 <g>
  <path d="m1161.2 469.27c-26.355-54.973-78.734-122.66-147.82-151.23 1.168-41.52-4.3555-85.73-25.473-126.52-26.309-50.855-77.422-98.09-143.94-133.06-72.734-38.211-157.11-58.422-244.01-58.422s-171.27 20.211-244.01 58.426c-66.52 34.973-117.63 82.207-143.94 133.06-21.117 40.781-26.641 84.992-25.473 126.52-69.09 28.57-121.47 96.254-147.82 151.23-18.523 38.664-49.664 122.68-34.902 164.11 3.5 9.8086 9.3789 16.715 17.449 20.523 5.0938 2.3789 10.238 3.4062 15.332 3.4062 17.309 0 34.309-11.715 48.617-21.57 9.4531-6.5 19.215-13.238 26-14.477 10.047-1.8086 18.047 0.95312 28.211 4.4297 9.5938 3.3086 20.5 7.0469 34.57 7.0469 14.309 0 25.141-2.6914 32.711-5.5938 3.3789 16.688 8.9531 32.332 17.832 45.832 19.617 29.855 49.52 61.805 79.352 88.945-35.094 16.07-119.3 59.688-119.3 108.02 0 14.762 5.4297 26.785 14.094 36.832-49.781 13.902-110.47 46.332-110.47 85.113 0 10.715 3.6914 19.617 9.1914 26.902-33.141 17.977-70.66 52.258-65.066 79.398 3.7383 18.188 22.164 26.211 36.141 29.734-5.0469 8.0938-10.402 18.855-11.285 29.07-1.7148 19.926 12.977 37.688 14.664 39.641 1.8789 2.1914 4.5469 3.332 7.2148 3.332 2.1914 0 4.3789-0.76172 6.1914-2.2852 3.9766-3.4062 4.4531-9.4023 1.0703-13.426-3.1172-3.668-11.047-15.477-10.164-25.617 0.95312-11.023 12.047-26.449 16.215-31.473 2.3086-2.7383 2.8789-6.5469 1.4766-9.832-1.4062-3.3086-4.5234-5.5234-8.0938-5.7852-6.6914-0.45312-32.211-4.7383-34.785-17.215-2.7383-13.402 25.973-44.781 61.113-61.688 8.3086 5.832 17.262 9.8086 23.973 12.285-7.0938 17.902-17.426 51.902-1.5703 68.852 14.047 15.023 45.879 9.9297 66.996 4.2852-3.5 12.215-6.4062 28.141-3.0469 40.617 6.1406 22.879 29.996 38.996 31.023 39.688 1.5703 1.0469 3.4062 1.5938 5.2852 1.5938h154.16c3.8555 0 7.332-2.3086 8.8086-5.8789 1.4766-3.5469 0.66797-7.668-2.0703-10.379-0.38281-0.38281-38.473-38.734-50.211-75.566-8.0703-25.262-4.9531-72.734-2.1445-100.45 16.094 18.977 35.02 39.07 63.543 53.828 43.379 22.477 108.38 33.879 193.13 33.879 84.758 0 149.75-11.402 193.13-33.879 28.523-14.762 47.449-34.855 63.543-53.828 2.8086 27.711 5.9297 75.184-2.1445 100.45-11.715 36.734-49.828 75.184-50.211 75.566-2.7383 2.7383-3.5469 6.832-2.0703 10.379 1.4766 3.5703 4.9531 5.8789 8.8086 5.8789h154.16c1.8789 0 3.7148-0.54688 5.2852-1.5938 1.0234-0.69141 24.879-16.809 31.023-39.688 3.3555-12.477 0.45312-28.402-3.0469-40.617 21.117 5.6172 52.949 10.738 66.996-4.2852 15.855-16.953 5.5234-50.949-1.5703-68.852 6.7148-2.4766 15.664-6.4531 23.973-12.285 35.141 16.902 63.852 48.281 61.113 61.688-2.332 11.285-24.449 16.477-34.785 17.215-3.5469 0.26172-6.6914 2.4766-8.0938 5.7852-1.4062 3.2852-0.83203 7.0938 1.4531 9.832 4.1914 5.0234 15.285 20.449 16.238 31.473 0.88281 10.141-7.0469 21.949-10.141 25.617-3.4297 3.9766-2.9766 10 1.0234 13.426 1.8086 1.5234 4 2.2852 6.1914 2.2852 2.6914 0 5.3555-1.1172 7.2383-3.332 1.6914-1.9531 16.379-19.715 14.664-39.641-0.88281-10.215-6.2383-20.977-11.285-29.07 13.977-3.5234 32.402-11.547 36.141-29.734 5.5938-27.141-31.926-61.426-65.066-79.398 5.5-7.2852 9.1914-16.188 9.1914-26.902 0-38.781-60.688-71.211-110.47-85.113 8.668-10.047 14.094-22.07 14.094-36.832 0-48.328-84.207-91.945-119.3-108.02 29.832-27.141 59.734-59.09 79.352-88.945 8.8789-13.5 14.453-29.141 17.832-45.832 7.5703 2.9062 18.402 5.5938 32.711 5.5938 14.07 0 24.973-3.7383 34.57-7.0469 10.164-3.4766 18.164-6.2383 28.211-4.4297 6.7852 1.2383 16.547 7.9766 26 14.477 14.309 9.8555 31.309 21.57 48.617 21.57 5.0938 0 10.238-1.0234 15.332-3.4062 8.0703-3.8086 13.953-10.715 17.449-20.523 14.754-41.43-16.387-125.45-34.91-164.11zm-378.97 248.86c-5.1914 16.832-20.902 28.402-39.02 28.402h-35.309c22.547-35.664 42.855-71.875 53.281-108.09zm-11.191-116.94c15.117-2.5469 29.785-7.9531 44.258-16.379l-23.5 94.992zm-27.828 164.39c27.688 0 51.59-18.523 58.164-45.043l38.426-155.51c0.97656-3.9531-0.66797-8.0938-4.0938-10.309-3.4297-2.1914-7.8789-1.9766-11.07 0.57031-18.547 14.738-36.973 23.617-56.043 27.023-0.85547-29.164-9.2383-52.879-19.547-71.234 22.641-0.5 63.188-4.4766 79.043-25.734 15.047-20.211 16.141-60.258 2.2852-83.996-8.6406-14.855-22.117-21.949-37.926-19.949-35.285 4.4297-72.305 57.258-86.73 79.996-4.1406-3.1914-7.7617-5.6406-10.43-7.3555v-29.164c21.547-44.688 65.281-77.066 133.68-98.922 5-1.5938 7.7852-6.9531 6.168-11.977-1.5938-5-6.9531-7.7617-11.977-6.168-74.684 23.879-122.47 60.164-146.04 110.92-0.57031 1.2617-0.88281 2.6172-0.88281 4v27.211h-17.594c-5.2617 0-9.5234 4.2617-9.5234 9.5234 0 5.2383 4.2617 9.5234 9.5234 9.5234h24.594c12.191 7.2148 75.137 48.926 65.375 136.02-6.1172 54.617-42.281 109.71-80.566 168.04-25.211 38.379-51.117 77.875-68.09 117.85-16.977-39.973-42.879-79.469-68.09-117.85-38.281-58.328-74.445-113.42-80.566-168.04-9.7617-87.113 53.234-128.85 65.375-136.02h45.688c5.2383 0 9.5234-4.2852 9.5234-9.5234 0-5.2617-4.2852-9.5234-9.5234-9.5234h-38.688v-27.211c0-1.3789-0.30859-2.7383-0.88281-4-23.57-50.758-71.352-87.043-146.04-110.92-5.0234-1.5938-10.379 1.168-11.977 6.168-1.6172 5.0234 1.168 10.379 6.168 11.977 68.398 21.855 112.14 54.234 133.68 98.922v29.164c-2.668 1.7148-6.2852 4.168-10.43 7.3555-14.426-22.738-51.449-75.566-86.73-79.996-15.785-2-29.285 5.0938-37.926 19.949-13.855 23.738-12.762 63.781 2.2852 83.996 15.855 21.262 56.402 25.238 79.043 25.734-10.309 18.355-18.688 42.07-19.547 71.234-19.07-3.4062-37.496-12.285-56.043-27.023-3.1914-2.5469-7.6406-2.7617-11.07-0.57031-3.4297 2.2148-5.0703 6.3555-4.0938 10.309l38.426 155.51c6.5703 26.523 30.473 45.043 58.164 45.043h47.52c3.9062 6 7.8086 11.953 11.715 17.902 14.453 22 29.117 44.379 42.094 66.828-41.617-2.9062-93.805-15.738-132.28-30.07-11.332-13.262-82.566-98.039-101.04-153.13-13.07-38.879-7.0469-84.543-2.2148-121.23 2.6445-20.07 4.9297-37.402 3.8555-50.855-1.168-14.715-6.6914-30.547-12.547-47.305-9.8086-28.117-20.902-59.973-16.762-98.039 6.7852-61.828 42.832-124.73 94.113-164.16 59.188-45.473 127.49-67.59 208.8-67.59s149.61 22.117 208.8 67.59c51.281 39.426 87.328 102.33 94.113 164.16 4.1406 38.07-6.9531 69.922-16.762 98.039-5.8555 16.762-11.379 32.594-12.547 47.305-1.0703 13.453 1.2148 30.785 3.8555 50.855 4.832 36.688 10.855 82.352-2.2148 121.23-18.477 55.09-89.707 139.87-101.04 153.13-38.473 14.332-90.66 27.164-132.28 30.07 12.977-22.449 27.641-44.832 42.094-66.828 3.9062-5.9531 7.8086-11.902 11.715-17.902zm-304.48-127.13c10.43 36.211 30.734 72.422 53.281 108.09h-35.309c-18.117 0-33.832-11.57-39.02-28.402zm-30.617 41.355-23.5-94.992c14.477 8.4297 29.141 13.832 44.258 16.379zm-203.51-162.56c-0.61719 9.2148-1.2852 18.832-1.7852 28.688-24.188-4.2383-40.281-14.5-49.043-31.258-2.4297-4.6406-8.168-6.4531-12.832-4.0234-4.668 2.4297-6.4766 8.1914-4.0469 12.832 11.832 22.711 33.785 36.664 65.258 41.617-0.26172 14.238 0.070313 28.617 1.5703 42.594-5.0938 2.5-14.855 6-29.734 6-10.902 0-19.402-2.9297-28.379-6.0234-11.238-3.8555-22.879-7.832-37.809-5.1406-10.809 1.9766-21.785 9.5234-33.402 17.523-16.023 11.047-32.57 22.477-45.043 16.617-3.3555-1.5938-5.8555-4.7617-7.5938-9.6914-10.402-29.141 9.832-98.754 34.141-149.46 22.902-47.805 70.449-110.97 131.71-139.13 2.0469 26.785 6.3789 51.926 10.402 73.711-51.758 19.762-92.684 58.449-121.73 115.23-2.3789 4.6914-0.52344 10.43 4.168 12.809 1.3789 0.71484 2.8555 1.0469 4.3086 1.0469 3.4766 0 6.8086-1.8789 8.5-5.1914 26.57-51.973 62.066-86.398 108.3-104.9 2.0938 11.355 3.7852 21.285 4.5469 29.262 1.4023 14.875-0.003907 35.277-1.5039 56.895zm791.68 352.69c0 30.617-38.52 46.879-72.496 61.211-15.785 6.668-30.711 12.977-40.617 20.426-12.309 9.2617-22.688 21.738-33.688 34.973-16.641 20.023-35.52 42.711-65.164 58.066-40.641 21.07-102.68 31.734-184.37 31.734s-143.73-10.664-184.37-31.734c-29.641-15.355-48.52-38.047-65.164-58.066-11-13.238-21.379-25.711-33.688-34.973-9.9023-7.4531-24.832-13.762-40.617-20.426-33.973-14.332-72.496-30.594-72.496-61.211 0-36.211 79.137-78.16 115.95-94.16 8.4766 7.2617 16.809 14.023 24.738 20.117 0.09375 73.137 29.023 129.47 86.066 167.49 1.6172 1.0703 3.4766 1.5938 5.2852 1.5938 3.0703 0 6.0938-1.5 7.9297-4.2617 2.9062-4.3555 1.7383-10.285-2.6445-13.191-48.402-32.258-73.781-77.352-77.207-137.44 6.4062 4.3789 12.309 8.1406 17.523 11.07 3.2148 1.8086 6.7383 3.6172 10.523 5.4531 10.164 32.285 30.141 58.613 59.496 78.305 1.6172 1.0938 3.4766 1.6172 5.2852 1.6172 3.0703 0 6.0938-1.4766 7.9297-4.2148 2.9297-4.3789 1.7617-10.285-2.6172-13.215-20.523-13.785-35.809-31.234-45.617-52.066 44.234 16.902 106.02 31.711 152.61 32.879 8.9297 17.023 16.57 34.047 22.023 50.973 1.2852 3.9297 4.9297 6.5938 9.0703 6.5938s7.7852-2.668 9.0703-6.5938c5.4531-16.926 13.094-33.949 22.023-50.973 46.594-1.168 108.38-15.977 152.61-32.879-9.8086 20.832-25.094 38.281-45.617 52.066-4.3789 2.9297-5.5469 8.832-2.6172 13.215 1.832 2.7383 4.8555 4.2148 7.9297 4.2148 1.8086 0 3.668-0.52344 5.2852-1.6172 29.355-19.688 49.328-46.02 59.496-78.305 3.7852-1.832 7.3086-3.6445 10.523-5.4531 5.2148-2.9297 11.117-6.6914 17.523-11.07-3.4297 60.09-28.809 105.18-77.207 137.44-4.3789 2.9062-5.5469 8.832-2.6445 13.191 1.832 2.7617 4.8555 4.2617 7.9297 4.2617 1.8086 0 3.668-0.52344 5.2852-1.5938 57.043-38.02 85.969-94.352 86.066-167.49 7.9297-6.0938 16.262-12.855 24.738-20.117 36.793 16 115.93 57.949 115.93 94.16zm181.87-242.96c-1.7383 4.9297-4.2383 8.0938-7.5938 9.6914-12.477 5.832-29.023-5.5703-45.043-16.617-11.617-8-22.594-15.547-33.402-17.523-14.953-2.6914-26.57 1.2852-37.809 5.1406-8.9766 3.0938-17.477 6.0234-28.379 6.0234-14.902 0-24.664-3.5-29.734-5.9766 1.5-14 1.832-28.379 1.5703-42.617 31.473-4.9766 53.426-18.926 65.258-41.617 2.4297-4.6406 0.61719-10.402-4.0469-12.832-4.668-2.4297-10.402-0.61719-12.832 4.0234-8.7617 16.762-24.855 27.023-49.043 31.258-0.5-9.832-1.168-19.477-1.7852-28.688-1.5-21.617-2.9062-42.02-1.5-56.902 0.76172-7.9766 2.4531-17.902 4.5469-29.234 46.211 18.5 81.73 52.902 108.3 104.88 1.6914 3.3086 5.0234 5.1914 8.5 5.1914 1.4531 0 2.9297-0.33203 4.3086-1.0469 4.6914-2.3789 6.5469-8.1172 4.168-12.809-29.047-56.781-69.973-95.469-121.73-115.23 4.0234-21.785 8.3555-46.926 10.402-73.711 61.258 28.164 108.8 91.328 131.71 139.13 24.305 50.715 44.543 120.33 34.137 149.47z"/>
  <path d="m761.56 258c-37.734 17.738-65.188 44.664-81.59 79.996-2.2148 4.7617-0.14453 10.43 4.6406 12.641 1.2852 0.61719 2.6445 0.88281 4 0.88281 3.5938 0 7.0234-2.0234 8.6406-5.5 14.664-31.617 38.355-54.758 72.398-70.781 4.7617-2.2383 6.8086-7.9023 4.5703-12.664-2.2305-4.7656-7.8984-6.8125-12.66-4.5742z"/>
  <path d="m668.16 196.43c-5.2383-0.5-9.9023 3.332-10.402 8.5703-4.0469 41.473-20.57 76.828-49.094 105.11-3.7383 3.7148-3.7617 9.7383-0.046874 13.477 1.8555 1.8789 4.3086 2.8086 6.7617 2.8086 2.4297 0 4.8555-0.92969 6.6914-2.7617 31.758-31.496 50.141-70.781 54.641-116.8 0.51953-5.2188-3.3125-9.8828-8.5508-10.406z"/>
  <path d="m540.46 696.99c-3.1914 4.1914-2.4062 10.164 1.7617 13.355 4.1914 3.2148 10.164 2.4297 13.355-1.7617 0.14453-0.16797 14.402-18.285 44.426-18.285 29.594 0 43.879 17.594 44.426 18.285 1.8789 2.4531 4.6914 3.7383 7.5469 3.7383 2.0234 0 4.0703-0.64453 5.8086-1.9766 4.168-3.1914 4.9531-9.168 1.7617-13.355-0.80859-1.0469-20.211-25.734-59.543-25.734s-58.734 24.688-59.543 25.734z"/>
  <path d="m642.97 384.18c0-5.2617-4.2617-9.5234-9.5234-9.5234h-66.898c-5.2617 0-9.5234 4.2617-9.5234 9.5234 0 5.2617 4.2617 9.5234 9.5234 9.5234h66.898c5.2617-0.003906 9.5234-4.2656 9.5234-9.5234z"/>
  <path d="m584.62 326.4c2.4531 0 4.9062-0.92969 6.7617-2.8086 3.7148-3.7383 3.6914-9.7617-0.046875-13.477-28.523-28.285-45.043-63.637-49.094-105.11-0.5-5.2383-5.1406-9.0703-10.402-8.5703-5.2383 0.52344-9.0703 5.1914-8.5469 10.402 4.5 46.02 22.879 85.305 54.641 116.8 1.832 1.8398 4.2617 2.7656 6.6875 2.7656z"/>
  <path d="m438.44 258c-4.7617-2.2383-10.43-0.19141-12.664 4.5703-2.2383 4.7617-0.19141 10.43 4.5703 12.664 34.047 16.023 57.734 39.164 72.398 70.781 1.6172 3.4766 5.0469 5.5 8.6406 5.5 1.3555 0 2.7148-0.26172 4-0.88281 4.7852-2.2148 6.8555-7.8789 4.6406-12.641-16.398-35.328-43.848-62.254-81.586-79.992z"/>
 </g>
</svg>
