<?xml version="1.0" encoding="UTF-8"?>
<svg width="1200pt" height="1200pt" version="1.1" viewBox="0 0 1200 1200" xmlns="http://www.w3.org/2000/svg">
 <g>
  <path d="m1199.9 1189.4c-0.046876-0.59375-6.832-59.215-21.145-121.05-19.668-85.117-43.93-135.81-72.07-150.71-19.191-10.145-42.523-9.1172-69.406 2.9766-7.2852-6.7383-19.168-12.145-38.547-12.93 2.3086-35.453-29.953-71.93-96-108.43-32.355-17.883-64.738-31.309-83.168-38.406 8.0938-7.6172 15.43-15.977 21.262-25.094 28.355-44.262 29.406-217.38 29.332-251 9.4297-5.9062 18.355-12.523 25.168-21.332 17.738-22.953 54.309-135.93 26.262-224.95-14.883-47.285-58.57-106.93-111.31-151.93-46.262-39.477-120.29-86.547-210.31-86.547s-164.05 47.07-210.31 86.547c-52.738 45-96.43 104.64-111.31 151.93-28.047 89.023 8.5234 202 26.262 224.95 6.8086 8.8086 15.738 15.43 25.168 21.332-0.070312 33.617 0.97656 206.74 29.332 251 5.832 9.1172 13.168 17.477 21.262 25.094-18.43 7.0938-50.809 20.523-83.168 38.406-66.047 36.5-98.309 72.977-96 108.43-19.383 0.78516-31.262 6.1914-38.547 12.93-26.883-12.094-50.215-13.117-69.406-2.9766-28.145 14.906-52.406 65.594-72.07 150.71-14.309 61.832-21.094 120.45-21.145 121.05-0.61719 5.2148 3.1445 9.9297 8.3828 10.523 0.35547 0.046874 0.71484 0.070312 1.0703 0.070312 4.7852 0 8.9062-3.5703 9.4531-8.4531 7.2383-63.07 36.238-232.21 83.215-257.05 13.285-7.0234 30.262-6.168 50.57 2.5469-8.2617 27.145 9.0469 52.215 24.406 74.406 7.9297 11.477 15.43 22.332 18.523 32 6.6914 20.953 3.5938 47.477 1.4766 60.094h-42.023c-20.168 0-37.855 13.355-43 32.477l-14 51.977c-1.3555 5.0703 1.6445 10.309 6.7383 11.668 0.80859 0.23828 1.6445 0.33203 2.4766 0.33203 4.1914 0 8.0469-2.8086 9.1914-7.0469l13.977-51.977c2.9297-10.832 13.047-18.383 24.617-18.383h37.453c-1.4766 9.7617-0.30859 19.785 3.6172 29.168 5.8555 13.93 16.953 24.715 31.215 30.355 30.477 12.023 64.93 17.883 105.31 17.883h534.52c40.383 0 74.832-5.8555 105.31-17.883 14.262-5.6445 25.355-16.43 31.215-30.355 3.9297-9.3828 5.0938-19.406 3.6172-29.168h37.453c11.57 0 21.691 7.5469 24.617 18.383l13.977 51.977c1.1445 4.2383 5 7.0469 9.1914 7.0469 0.83203 0 1.668-0.09375 2.4766-0.33203 5.0938-1.3555 8.0938-6.5938 6.7383-11.668l-14-51.977c-5.1445-19.117-22.832-32.477-43-32.477h-42.023c-2.1172-12.617-5.2148-39.145 1.4766-60.094 3.0938-9.668 10.594-20.523 18.523-32 15.355-22.191 32.668-47.262 24.406-74.406 20.309-8.7148 37.285-9.5938 50.57-2.5469 46.977 24.832 75.977 193.98 83.215 257.05 0.54687 4.8828 4.668 8.4531 9.4531 8.4531 0.35547 0 0.71484-0.023438 1.0703-0.070312 5.2383-0.59766 9-5.3125 8.3828-10.523zm-220.26-281.52c-5.1172 48.57-101.07 70.355-164.55 84.762-29.023 6.5938-51.977 11.809-65.262 18.355-24.117 11.93-42.355 27.785-54.262 40.215-5.4062-27.668-25.047-50.93-51.762-63.262 10.832-7.4766 27.668-17.07 47.43-21.355 17.977-3.9062 41.477-3.5 64.191-3.0938 24 0.42969 46.645 0.83203 65.168-3.2617 27.07-5.9766 52.785-25.117 63.977-47.617 7.7148-15.5 8.168-31.617 1.2852-46.594-13.762-30-85.785-53.5-126.57-64.645 12.715-6.332 28.477-15.238 43.523-26.523 55.516 19.922 182.66 77.66 176.83 133.02zm-79.812 180.55c-36.855 10.762-79.309 20.332-113.43 20.332-52.07 0-81.453-7.4297-93.809-11.547 1.5703-5.9766 2.7617-11.762 3.5-17.215 2.5703-3.4766 9.1914-11.977 19.523-21.785 55.551 5.168 116.14 15.07 184.21 30.215zm-560.29-173.62c-2.8555-3.4297-5.2852-7.0234-7.1172-10.668-5.1172-10.332-5.4766-20.477-1.0234-30.191 10.07-21.906 80.355-45.977 129.24-58.117 1.0938 12.523 4.7383 31.906 16.145 45.715zm187.95 2.5469c16.43 13.117 42.547 21.477 72.477 21.477s56.047-8.3555 72.477-21.477l17.094 30.191c-0.78516 0.14453-1.5938 0.26172-2.3555 0.42969-31.738 6.8828-56.191 25.047-65.406 32.691-7-1.4531-14.309-2.2617-21.809-2.2617s-14.785 0.80859-21.809 2.2617c-9.2148-7.6445-33.668-25.809-65.406-32.691-0.76172-0.16797-1.5703-0.28516-2.3555-0.42969zm0.83203-33.309c0-2.832 0.73828-5.668 2.2383-8.4766 9.8086-2.5938 18.547-6.7852 24.691-10.238 6.7383 10.57 20.5 25.383 44.715 25.383s37.977-14.809 44.715-25.383c6.1445 3.4531 14.883 7.6445 24.691 10.238 1.5 2.8086 2.2383 5.6445 2.2383 8.4766 0 16.906-29.43 35.738-71.645 35.738s-71.645-18.832-71.645-35.738zm194.84-22.5c11.43-13.809 15.047-33.191 16.145-45.715 48.883 12.117 119.17 36.191 129.24 58.117 4.4531 9.7148 4.0938 19.855-1.0234 30.191-1.832 3.6445-4.2617 7.2383-7.1172 10.668zm-403.48-409.76c-15.168-19.617-48.383-127.55-23.168-207.59 13.906-44.117 55.309-100.31 105.5-143.17 43.836-37.379 113.74-81.977 197.95-81.977s154.12 44.594 197.95 81.977c50.191 42.855 91.594 99.047 105.5 143.17 25.215 80.047-8 187.98-23.168 207.59-7.5469 9.7617-20.168 17.047-32.383 24.07-11.594 6.6914-23.594 13.617-31.645 23-8.9297 10.453-12.309 25-15.57 39.047-2.7383 11.855-5.5938 24.094-11.453 30.453-9.9531 10.738-38.07 13.191-47.145 13.215-3.6172 0-6.9062 2.0469-8.5234 5.2852l-18.355 36.906-56.855 22.023-54.406-24.785c-1.2617-0.57031-2.5938-0.85547-3.9531-0.85547-1.3555 0-2.6914 0.28516-3.9531 0.85547l-54.406 24.785-56.855-22.023-18.355-36.906c-1.5938-3.2383-4.9062-5.2852-8.5234-5.2852-9.0703-0.023437-37.191-2.4766-47.145-13.215-5.8555-6.3555-8.7148-18.594-11.453-30.453-3.2617-14.047-6.6445-28.594-15.57-39.047-8.0469-9.3828-20.047-16.309-31.645-23-12.207-7.0234-24.828-14.309-32.375-24.07zm347.88 238.33v-27.477l44.977-17.43v28.145c-7.2617 3.7148-22.926 10.953-44.977 16.762zm44.977 4.3828v26.094c0 11.977-10.094 21.715-22.5 21.715s-22.477-9.7383-22.477-21.715v-10.762c19.453-4.7617 34.762-10.715 44.977-15.332zm-103.05 4.168v-54.215l39.023 17.785v32.145c-11.809 2.1875-24.879 3.7852-39.023 4.2852zm39.023 15.094v28.762c0 10.355-8.7617 18.809-19.523 18.809-10.738 0-19.5-8.4531-19.5-18.809v-24.809c14.047-0.45312 27.094-1.9062 39.023-3.9531zm-97.094-19.406v-32.117l39.023-17.785v54.215c-14.121-0.52344-27.191-2.1211-39.023-4.3125zm39.023 23.359v24.809c0 10.355-8.7617 18.809-19.5 18.809-10.762 0-19.523-8.4531-19.523-18.809v-28.762c11.93 2.0469 24.977 3.5 39.023 3.9531zm-103.05-44.383v-28.117l44.977 17.43v27.43c-22-5.8125-37.691-13.027-44.977-16.742zm44.977 36.5v10.762c0 11.977-10.07 21.715-22.477 21.715s-22.5-9.7383-22.5-21.715v-26.094c10.215 4.6172 25.523 10.57 44.977 15.332zm-157.24 15.668c-21.023-32.855-25.977-164.21-26.309-229.48 8.2383 4.8828 15.668 9.7148 20.406 15.238 5.9062 6.9062 8.7617 19.117 11.5 30.953 2.9531 12.785 6.0234 25.977 13.355 35.809-0.57031 15.953-1.668 78.406 14.406 107.67 14.785 26.953 46.5 38.57 60.617 42.547 3.6445 18.832 20.523 33.117 40.785 33.117 9.0234 0 17.383-2.8828 24.191-7.6914 4.8555 15.453 19.547 26.715 36.855 26.715 11.547 0 21.953-5.0234 29.023-12.977 7.0703 7.9531 17.477 12.977 29.023 12.977 17.309 0 32-11.262 36.855-26.715 6.8086 4.8086 15.168 7.6914 24.191 7.6914 20.262 0 37.145-14.285 40.785-33.117 14.117-3.9766 45.832-15.594 60.617-42.547 16.07-29.262 14.977-91.715 14.406-107.67 7.332-9.832 10.406-23.023 13.355-35.809 2.7383-11.832 5.5938-24.047 11.5-30.953 4.7383-5.5234 12.168-10.355 20.406-15.238-0.33203 65.262-5.2852 196.62-26.309 229.48-27.5 42.906-97.191 69.215-97.883 69.477-3.832 1.4297-6.332 5.168-6.1914 9.2617 0.38281 11.383-2.5 42.883-20.332 51.832-18.047 9.0938-44.953-5.5703-53.785-11.953-2.4062-1.7617-5.5234-2.2617-8.3828-1.4062-2.8555 0.85547-5.1445 3.0234-6.1914 5.832-0.33203 0.95312-8.832 23.117-32.07 23.117-23.238 0-31.738-22.168-32.047-23.07-1.0234-2.832-3.3086-5-6.168-5.8828-2.8555-0.88281-5.9766-0.38281-8.4062 1.3828-8.8555 6.4062-35.762 21.07-53.809 11.977-17.832-8.9531-20.715-40.453-20.332-51.809 0.16797-4.1172-2.332-7.8555-6.1914-9.2852-0.6875-0.25781-70.375-26.566-97.875-69.473zm22 49.355c15.047 11.285 30.809 20.191 43.523 26.523-40.785 11.145-112.81 34.645-126.57 64.645-6.8828 14.977-6.4297 31.094 1.2852 46.594 11.191 22.5 36.906 41.645 63.977 47.617 18.523 4.0938 41.168 3.6914 65.168 3.2617 22.715-0.38281 46.215-0.80859 64.191 3.0938 19.762 4.2852 36.594 13.883 47.43 21.355-26.715 12.332-46.355 35.594-51.762 63.262-11.906-12.43-30.145-28.285-54.262-40.215-13.285-6.5469-36.238-11.762-65.262-18.355-63.477-14.406-159.43-36.191-164.55-84.762-5.8398-55.352 121.3-113.09 176.83-133.02zm87.188 283.36c10.332 9.8086 16.977 18.309 19.523 21.785 0.73828 5.4531 1.9297 11.238 3.5 17.191-12.383 4.168-41.762 11.57-93.809 11.57-34.117 0-76.57-9.5703-113.45-20.332 68.098-15.145 128.69-25.047 184.24-30.215zm-291.52-57.598c-14.668-21.191-28.5-41.215-21.047-60.355 4.2383-10.906 19.691-13.617 33.953-13.617 16.547 39.023 74.453 59.715 130.5 74.047-13.547 32.145-37.738 57.145-73.547 76.117-15.383-3.8828-31.285-1.1172-44.145 6.7617 0.76172-14.117 0.09375-30.906-4.7148-45.93-3.9492-12.355-12.238-24.332-21-37.023zm139.91 180.34c-37.953 0-70.117-5.4062-98.309-16.547-9.4531-3.7383-16.785-10.855-20.645-20.023-3.7383-8.9062-3.7383-18.715 0.023438-27.594v-0.023437c7.5469-17.883 28.168-26.977 46.953-20.691 43.43 14.477 105.17 31.738 152.81 31.738 53.691 0 85-7.5703 99.617-12.453 9.0938 24.309 23.832 49.168 42.383 65.594zm267.26 0c-39.5 0-78.07-72.285-78.07-114.26 0-38.168 35.023-69.238 78.07-69.238s78.07 31.07 78.07 69.238c0 41.977-38.57 114.26-78.07 114.26zm386.21-36.57c-3.8555 9.168-11.191 16.285-20.645 20.023-28.191 11.145-60.355 16.547-98.309 16.547h-222.83c18.547-16.43 33.285-41.285 42.383-65.594 14.617 4.8828 45.93 12.453 99.617 12.453 47.645 0 109.38-17.262 152.81-31.738 18.785-6.2617 39.406 2.8086 46.953 20.691v0.023437c3.7617 8.9023 3.7617 18.688 0.023438 27.594zm20.953-143.77c-8.7617 12.691-17.047 24.668-21 37.023-4.8086 15.023-5.4766 31.809-4.7148 45.93-12.855-7.8828-28.762-10.645-44.145-6.7617-35.809-18.977-60-43.977-73.547-76.117 56.047-14.332 113.95-35.023 130.5-74.047 14.262 0 29.715 2.7148 33.953 13.617 7.4531 19.145-6.3828 39.168-21.047 60.355z"/>
  <path d="m806.95 353.86c0.61719 0 1.2148-0.070313 1.832-0.19141 5.168-1 8.5469-6.0234 7.5234-11.168-8.4297-43.145-3.1172-85.047 15.785-124.52 2.2617-4.7383 0.26172-10.43-4.4766-12.715-4.7617-2.2617-10.43-0.26172-12.715 4.4766-20.715 43.262-26.523 89.168-17.285 136.41 0.88281 4.5508 4.8828 7.7148 9.3359 7.7148z"/>
  <path d="m804.95 383c-24.547-21.93-68.355-12.883-99.762 20.57-18.168 19.383-28.43 43.715-27.5 65.117 0.61719 14.047 5.9062 25.93 15.285 34.309 9.0469 8.0703 20.691 11.953 33.355 11.953 21.762 0 46.547-11.406 66.383-32.547 18.168-19.355 28.453-43.691 27.5-65.094-0.62109-14.07-5.9062-25.926-15.262-34.309z"/>
  <path d="m465.91 274.02c5.4766 22.523 10.191 42 16.332 56.145 17.832 40.93 70.645 74.215 117.76 74.215s99.93-33.285 117.76-74.215c6.1445-14.145 10.855-33.617 16.332-56.145 9.9531-41.094 22.332-92.238 48.168-121.21 3.5-3.9297 3.1445-9.9531-0.78516-13.453-3.9297-3.5-9.9297-3.1445-13.43 0.78516-29 32.547-42.023 86.238-52.477 129.41-5.0234 20.762-9.7852 40.383-15.285 53.023-16.332 37.547-65.047 62.762-100.29 62.762s-83.953-25.215-100.29-62.762c-5.5-12.645-10.262-32.262-15.285-53.023-10.453-43.168-23.477-96.855-52.477-129.41-3.5-3.9297-9.5-4.2852-13.43-0.78516-3.9297 3.5-4.2852 9.5234-0.78516 13.453 25.832 28.977 38.215 80.121 48.168 121.21z"/>
  <path d="m657.48 511.76c-12.023-20.309-33.5-32.43-57.477-32.43s-45.453 12.117-57.477 32.43l-20.57 34.809c-8.0234 13.57-6.4062 29.93 4.0938 41.691 7.2383 8.0938 17.047 12.383 27.215 12.383 5.1445 0 10.406-1.1172 15.453-3.3828l31.285-14 31.285 14c15.023 6.7383 31.762 3.1914 42.668-9 10.5-11.762 12.117-28.117 4.0938-41.691z"/>
  <path d="m565.02 456.17c0.47656-0.38281 12.168-9.4062 34.977-9.4062s34.5 9.0234 34.906 9.332c1.7852 1.4766 3.9297 2.168 6.0469 2.168 2.7617 0 5.4766-1.168 7.3555-3.4531 3.3555-4.0703 2.7852-10.07-1.2852-13.406-0.66797-0.57031-16.953-13.691-47.023-13.691s-46.355 13.117-47.023 13.691c-4.0234 3.3086-4.5938 9.2383-1.3086 13.285 3.2617 4.0742 9.2383 4.7188 13.355 1.4805z"/>
  <path d="m494.81 403.57c-31.406-33.453-75.215-42.5-99.762-20.57-9.3555 8.3828-14.645 20.238-15.262 34.309-0.95312 21.406 9.332 45.738 27.5 65.094 19.832 21.145 44.617 32.547 66.383 32.547 12.668 0 24.332-3.8828 33.355-11.953 9.3828-8.3828 14.668-20.262 15.285-34.309 0.92969-21.402-9.332-45.734-27.5-65.117z"/>
  <path d="m383.69 342.5c-1.0234 5.1445 2.3555 10.168 7.5234 11.168 0.61719 0.11719 1.2148 0.19141 1.832 0.19141 4.4531 0 8.4531-3.168 9.332-7.7148 9.2383-47.238 3.4297-93.145-17.285-136.41-2.2852-4.7383-7.9766-6.7383-12.715-4.4766-4.7383 2.2852-6.7383 7.9766-4.4766 12.715 18.906 39.477 24.215 81.379 15.789 124.52z"/>
 </g>
</svg>
