<svg xmlns="http://www.w3.org/2000/svg" xmlns:osb="http://www.openswatchbook.org/uri/2009/osb" version="1.1" viewBox="0 0 64 80" x="0px" y="0px"><path d="m32 27.689453c-2.1738669 2.7721918-4.3524734 5.5406742-6.5292969 8.3105469h13.058594zm0 1.6191406 4.4726562 5.6914062h-8.9453125z" color="#000000" color-rendering="auto" dominant-baseline="auto" fill="#000000" image-rendering="auto" shape-rendering="auto" solid-color="#000000" style="font-feature-settings:normal;font-variant-alternates:normal;font-variant-caps:normal;font-variant-ligatures:normal;font-variant-numeric:normal;font-variant-position:normal;isolation:auto;mix-blend-mode:normal;paint-order:fill markers stroke;shape-padding:0;text-decoration-color:#000000;text-decoration-line:none;text-decoration-style:solid;text-indent:0;text-orientation:mixed;text-transform:none;white-space:normal;"/><path d="m4.0136719 35.304688c3.0820938 4.2433831 6.1688429 8.4833847 9.2539062 12.724609l8.8886719-1.015625 9.84375 5.046875 9.84375-5.046875 8.8886719 1.015625 9.2539062-12.724609-10.726562 4.6816406-8.1914062-1.0019531-9.0683594 4.9453125-9.0683594-4.9453125-8.1914062 1.0019531zm2.9746094 2.390625 7.6035156 3.3183594 8.1425781-0.99804688 9.265625 5.0527344 9.265625-5.0527344 8.1425781 0.99804688 7.6035156-3.3183594-6.7441406 9.2753906-8.6113281-0.984375-9.65625 4.9511719-9.65625-4.9511719-8.6113281 0.984375z" color="#000000" color-rendering="auto" dominant-baseline="auto" fill="#000000" image-rendering="auto" shape-rendering="auto" solid-color="#000000" style="font-feature-settings:normal;font-variant-alternates:normal;font-variant-caps:normal;font-variant-ligatures:normal;font-variant-numeric:normal;font-variant-position:normal;isolation:auto;mix-blend-mode:normal;paint-order:fill markers stroke;shape-padding:0;text-decoration-color:#000000;text-decoration-line:none;text-decoration-style:solid;text-indent:0;text-orientation:mixed;text-transform:none;white-space:normal;"/><path d="m10.333984 10.470703-0.3046875 0.86132813s-0.50662193 1.4311004-1.0117188 3.28125-1.0175781 4.1130819-1.0175781 5.8867188c0 1.6540595 0.69323907 2.8768541 1.8671875 3.5742188 1.1739484 0.69736464 2.7527183 0.92578125 4.6328125 0.92578125h15.486328l-2.2929687-0.9609375c-6.8095599-2.8552547-11.444383-5.943222-16.798828-12.845703zm0.37890624 2.0332031c4.6282842 5.7704838 8.9928896 8.9195637 14.566406 11.496094h-10.779297c-1.7943036 0-3.2155948-0.24609933-4.1230469-0.78515625-0.90745212-0.53905692-1.3769531-1.3145895-1.3769531-2.7148438 0-1.5745225 0.4875187-3.8121894 0.98242188-5.625 0.36569034-1.3395092 0.56466956-1.8816336 0.73046874-2.3710938z" color="#000000" color-rendering="auto" dominant-baseline="auto" fill="#000000" image-rendering="auto" shape-rendering="auto" solid-color="#000000" style="font-feature-settings:normal;font-variant-alternates:normal;font-variant-caps:normal;font-variant-ligatures:normal;font-variant-numeric:normal;font-variant-position:normal;isolation:auto;mix-blend-mode:normal;paint-order:fill markers stroke;shape-padding:0;text-decoration-color:#000000;text-decoration-line:none;text-decoration-style:solid;text-indent:0;text-orientation:mixed;text-transform:none;white-space:normal;"/><path d="m53.652344 10.470703-0.5625 0.72265626c-5.3544454 6.9024812-9.9873151 9.9904484-16.796875 12.845703l-2.2929688 0.9609375h15.486328c1.8800942 0 3.4588641-0.22841661 4.6328125-0.92578125 1.1739484-0.69736464 1.8671875-1.9201593 1.8671875-3.5742188 0-1.7736368-0.51248129-4.0365692-1.0175781-5.8867188s-1.0117188-3.28125-1.0117188-3.28125zm-0.37890625 2.0351563c0.16601396 0.49015693 0.36511613 1.0308685 0.73046875 2.3691406 0.49490317 1.8128106 0.98242187 4.0504775 0.98242187 5.625 0 1.4002543-0.47145412 2.1757868-1.3789062 2.7148438-0.90745213 0.53905692-2.3267902 0.78515625-4.1210938 0.78515625h-10.779297c5.5727952-2.5762873 9.9386835-5.7246708 14.566406-11.494141z" color="#000000" color-rendering="auto" dominant-baseline="auto" fill="#000000" image-rendering="auto" shape-rendering="auto" solid-color="#000000" style="font-feature-settings:normal;font-variant-alternates:normal;font-variant-caps:normal;font-variant-ligatures:normal;font-variant-numeric:normal;font-variant-position:normal;isolation:auto;mix-blend-mode:normal;paint-order:fill markers stroke;shape-padding:0;text-decoration-color:#000000;text-decoration-line:none;text-decoration-style:solid;text-indent:0;text-orientation:mixed;text-transform:none;white-space:normal;"/><text x="0" y="79" fill="#000000" font-size="5px" font-weight="bold" font-family="'Helvetica Neue', Helvetica, Arial-Unicode, Arial, Sans-serif">Created by Frey Wazza</text><text x="0" y="84" fill="#000000" font-size="5px" font-weight="bold" font-family="'Helvetica Neue', Helvetica, Arial-Unicode, Arial, Sans-serif">from the Noun Project</text></svg>