<?xml version="1.0" encoding="UTF-8"?>
<svg width="1200pt" height="1200pt" version="1.1" viewBox="0 0 1200 1200" xmlns="http://www.w3.org/2000/svg">
 <g>
  <path d="m1194.9 1182c-4.8828-2.5703-120.71-63.477-209.69-83.953-60.953-14.047-139.71-20.406-181.24-22.93-14.906-0.92969-26.547-12.715-26.547-26.855v-34.715c14.57-15.477 25.355-28.238 30.547-34.523 40.641-49.332 74.094-124.43 84.5-149.07 18.332 5.2852 37.832 10.117 56.906 10.117 6.668 0 13.285-0.59375 19.785-1.9531 28.645-6.0234 48.668-41.977 60.402-71.094 12.594-31.168 21.379-69.57 21.379-93.355 0-23.215-8.1445-43.141-16.023-62.43-7.0469-17.238-13.691-33.523-13.691-50.547 0-16.453 6.0234-33.262 12.379-51.023 7.5703-21.145 16.145-45.094 16.145-73 0-50.406-33.145-155.9-106.83-232.66-50.141-52.238-134.95-99.477-222.05-123.86-30.664-50.758-74.309-80.187-120.9-80.187s-90.238 29.43-120.9 80.191c-87.094 24.379-171.9 71.617-222.05 123.86-73.691 76.762-106.83 182.26-106.83 232.66 0 27.906 8.5703 51.855 16.145 73 6.3555 17.762 12.379 34.57 12.379 51.023 0 17.023-6.6445 33.309-13.691 50.547-7.8828 19.285-16.023 39.215-16.023 62.43 0 23.785 8.7852 62.191 21.379 93.355 11.738 29.117 31.762 65.07 60.402 71.094 6.5 1.3555 13.117 1.9531 19.785 1.9531 19.07 0 38.57-4.832 56.906-10.117 10.406 24.645 43.855 99.738 84.5 149.07 5.1914 6.3086 15.977 19.047 30.547 34.523v34.715c0 14.145-11.645 25.93-26.547 26.855-41.523 2.5234-120.29 8.8828-181.24 22.93-88.977 20.477-204.81 81.379-209.69 83.953-4.6445 2.4766-6.4297 8.2383-3.9766 12.879 1.7148 3.2383 5.0234 5.0703 8.4297 5.0703 1.5 0 3.0234-0.35547 4.4531-1.0938 1.168-0.61719 118.55-62.332 205.07-82.262 59.617-13.715 137.19-19.977 178.12-22.477 24.93-1.5234 44.43-21.668 44.43-45.855v-15.215c43.094 42.477 105.24 92.594 158.4 92.594 53.168 0 115.31-50.117 158.4-92.594v15.215c0 24.191 19.5 44.332 44.43 45.855 40.93 2.5 118.5 8.7617 178.12 22.477 86.523 19.93 203.9 81.641 205.07 82.262 1.4297 0.73828 2.9531 1.0938 4.4531 1.0938 3.4062 0 6.7148-1.832 8.4297-5.0703 2.4492-4.6445 0.66406-10.406-3.9766-12.883zm-433.69-178.86-0.14453 0.14453c-50.594 53.355-114.07 103.31-161.09 103.31s-110.48-49.953-161.09-103.31l-0.14453-0.14453c-10.594-11.168-20.594-22.477-29.785-33.523 0.88281-45.047 20.715-78.617 60.715-102.5 4.5234-2.6914 6-8.5234 3.2852-13.047-2.6914-4.5234-8.5234-6-13.047-3.3086-38.762 23.168-61.594 55.523-68.117 96.43-30.977-44.262-56.379-100.45-65.879-122.66 13.547-3.9766 26.094-7.3086 35.43-7.3086 27.879 0 53.047 16.906 53.285 17.07 4.332 2.9766 10.262 1.8828 13.238-2.4766 2.9766-4.332 1.8828-10.262-2.4531-13.238-1.2148-0.83203-30.145-20.406-64.07-20.406-13.738 0-30.379 4.9531-48 10.215-25.5 7.5938-54.379 16.191-78.617 11.094-35.809-7.5234-66.668-102.4-66.668-145.81 0-19.477 7.0938-36.832 14.594-55.215 7.4297-18.191 15.117-37 15.117-57.762 0-19.762-6.5469-38.07-13.5-57.453-7.3828-20.617-15.023-41.953-15.023-66.57 0-45.855 32.262-147.31 101.52-219.47 44.547-46.406 118.09-88.785 195.71-113.4-0.97656 2.0703-1.9297 4.168-2.8828 6.3086-17.715 40.355-27.094 87.477-27.094 136.26 0 59.355 14.094 116.64 39.691 161.33 2.6172 4.5469 8.4297 6.1445 13 3.5234 4.5703-2.6172 6.1445-8.4297 3.5234-13-23.953-41.832-37.168-95.762-37.168-151.86 0-46.168 8.832-90.641 25.5-128.62 27.145-61.836 71.598-98.742 118.93-98.742s91.785 36.906 118.93 98.738c16.668 37.977 25.5 82.453 25.5 128.62 0 56.094-13.215 110.02-37.168 151.86-2.6172 4.5703-1.0469 10.383 3.5234 13 1.5 0.85547 3.1172 1.2617 4.7148 1.2617 3.3086 0 6.5234-1.7148 8.2852-4.7852 25.594-44.691 39.691-101.98 39.691-161.33 0-48.785-9.3828-95.902-27.094-136.26-0.95312-2.1445-1.9062-4.2383-2.8828-6.3086 77.617 24.617 151.16 67 195.71 113.4 69.262 72.168 101.52 173.62 101.52 219.47 0 24.617-7.6445 45.953-15.023 66.57-6.9531 19.379-13.5 37.691-13.5 57.453 0 20.762 7.6914 39.57 15.117 57.762 7.5 18.379 14.594 35.738 14.594 55.215 0 43.406-30.855 138.29-66.668 145.81-24.215 5.0938-53.117-3.5-78.617-11.094-17.617-5.2617-34.262-10.215-48-10.215-33.93 0-62.855 19.57-64.07 20.406-4.332 2.9766-5.4297 8.9062-2.4531 13.238 2.9766 4.3555 8.9062 5.4531 13.238 2.4766 0.23828-0.16797 25.215-17.07 53.285-17.07 9.332 0 21.879 3.332 35.43 7.3086-9.5 22.215-34.906 78.402-65.879 122.66-6.5234-40.906-29.355-73.262-68.117-96.43-4.5234-2.6914-10.355-1.2148-13.047 3.3086-2.7148 4.5234-1.2383 10.355 3.2852 13.047 40 23.879 59.832 57.453 60.715 102.5-9.1875 11.051-19.188 22.359-29.781 33.527z"/>
  <path d="m910.43 709.62c-4 3.4062-4.4766 9.4297-1.0469 13.43 1.8828 2.1914 4.5469 3.332 7.2383 3.332 2.1914 0 4.3828-0.73828 6.1914-2.2852 38.285-32.645 57.93-73.453 58.379-121.24 0.046875-5.2617-4.168-9.5469-9.4297-9.5938h-0.09375c-5.2148 0-9.4766 4.1914-9.5234 9.4297-0.40625 42.617-17.309 77.594-51.715 106.93z"/>
  <path d="m702.95 757.57c13.57 9.832 30.094 14.762 48.43 14.762 13.738 0 28.5-2.7617 43.809-8.332 34.355-12.5 67.762-37.832 94.047-71.309 33.977-43.285 50.809-93.785 45.023-135.07-3.3555-24.047-14.238-43.355-31.43-55.809-23.691-17.168-56.453-19.453-92.238-6.4297-34.355 12.5-67.738 37.832-94.023 71.309-7.2852 9.2852-13.785 18.855-19.453 28.691 7.9766-43.547 24.355-78.379 48.977-103.9 35.5-36.855 89.309-55.523 159.9-55.523 5.2617 0 9.5234-4.2617 9.5234-9.5234 0-5.2617-4.2617-9.5234-9.5234-9.5234-75.977 0-134.38 20.645-173.62 61.355-39.738 41.215-59.93 103.21-60.023 184.31-6.4766 40.664 4.2617 75.902 30.598 94.996zm157.16-209.21c-3-4.3086-1.9531-10.238 2.3828-13.262 4.3086-3 10.238-1.9531 13.238 2.3828 22.262 31.855 22.262 64.191 0 96.07-1.832 2.668-4.8086 4.0703-7.8086 4.0703-1.8828 0-3.7852-0.54688-5.4297-1.7148-4.332-3-5.3828-8.9531-2.3828-13.262 17.453-24.977 17.453-49.289 0-74.285z"/>
  <path d="m697.45 886.57h-194.9c-20.738 0-37.617 16.879-37.617 37.641 0 20.762 16.879 37.641 37.617 37.641h194.9c20.738 0 37.617-16.879 37.617-37.641 0-20.762-16.879-37.641-37.617-37.641z"/>
  <path d="m634.31 814.69c2.7383 0 5.4297-1.168 7.3086-3.4297l21.094-25.215c3.3828-4.0234 2.832-10.047-1.1914-13.406-4.0469-3.3828-10.047-2.832-13.43 1.1914l-21.07 25.215c-3.3828 4.0234-2.8555 10.047 1.1914 13.406 1.7891 1.5 3.957 2.2383 6.0977 2.2383z"/>
  <path d="m558.38 811.26c1.8828 2.2617 4.5703 3.4297 7.3086 3.4297 2.1445 0 4.3086-0.73828 6.0938-2.2383 4.0469-3.3555 4.5703-9.3828 1.1914-13.406l-21.07-25.215c-3.3828-4.0469-9.3828-4.5703-13.43-1.1914-4.0234 3.3555-4.5703 9.3828-1.1914 13.406z"/>
  <path d="m527.64 662.57c-0.09375-81.094-20.285-143.09-60.023-184.31-39.238-40.715-97.641-61.355-173.62-61.355-5.2617 0-9.5234 4.2617-9.5234 9.5234 0 5.2617 4.2617 9.5234 9.5234 9.5234 70.594 0 124.4 18.668 159.9 55.523 24.617 25.523 41 60.355 48.977 103.9-5.668-9.832-12.168-19.406-19.453-28.691-26.285-33.477-59.668-58.809-94.023-71.309-35.785-13.023-68.547-10.738-92.238 6.4297-17.191 12.453-28.07 31.762-31.43 55.809-5.7852 41.285 11.047 91.785 45.023 135.07 26.285 33.477 59.691 58.809 94.047 71.309 15.309 5.5703 30.07 8.332 43.809 8.332 18.332 0 34.855-4.9297 48.43-14.762 26.336-19.09 37.074-54.328 30.598-94.996zm-187.76-39.926c3 4.3086 1.9531 10.262-2.3828 13.262-1.6445 1.168-3.5469 1.7148-5.4297 1.7148-3 0-5.9766-1.4062-7.8086-4.0703-22.262-31.879-22.262-64.215 0-96.07 3-4.3086 8.9297-5.3828 13.238-2.3828 4.332 3.0234 5.3828 8.9531 2.3828 13.262-17.453 24.996-17.453 49.309 0 74.285z"/>
  <path d="m237.86 602.69c-0.046875-5.2617-4.4531-9.4531-9.6172-9.4297-5.2617 0.046875-9.4766 4.332-9.4297 9.5938 0.45312 47.785 20.094 88.594 58.379 121.24 1.8086 1.5469 4 2.2852 6.1914 2.2852 2.6914 0 5.3555-1.1445 7.2383-3.332 3.4297-4 2.9531-10.023-1.0469-13.43-34.406-29.332-51.309-64.309-51.715-106.93z"/>
 </g>
</svg>
