<?xml version="1.0" encoding="UTF-8"?>
<svg width="1200pt" height="1200pt" version="1.1" viewBox="0 0 1200 1200" xmlns="http://www.w3.org/2000/svg">
 <path d="m1012.5 1012.5c0.09375 39.844-28.312 74.109-67.5 81.328-113.86 20.672-229.31 31.125-345 31.172-115.59-0.046875-231-10.406-344.72-31.031-39.375-7.125-67.922-41.484-67.781-81.469 0.09375-99.422 39.656-194.72 109.97-265.03 70.312-70.312 165.61-109.88 265.03-109.97h75c99.422 0.09375 194.72 39.656 265.03 109.97 70.312 70.312 109.88 165.61 109.97 265.03zm-412.5-412.5c69.609 0 136.4-27.656 185.63-76.875 49.223-49.219 76.875-116.02 76.875-185.63 0-69.613-27.656-136.4-76.875-185.63-49.219-49.223-116.02-76.875-185.63-76.875s-136.4 27.656-185.63 76.875c-49.223 49.219-76.875 116.02-76.875 185.63 0.09375 69.609 27.75 136.31 76.969 185.53 49.219 49.219 115.92 76.875 185.53 76.969z"/>
</svg>
