<?xml version="1.0" encoding="UTF-8"?>
<svg width="1200pt" height="1200pt" version="1.1" viewBox="0 0 1200 1200" xmlns="http://www.w3.org/2000/svg">
 <g>
  <path d="m572.73 845.45c0 15.062-12.211 27.273-27.273 27.273s-27.27-12.211-27.27-27.273 12.207-27.27 27.27-27.27 27.273 12.207 27.273 27.27"/>
  <path d="m681.82 845.45c0 15.062-12.207 27.273-27.27 27.273s-27.273-12.211-27.273-27.273 12.211-27.27 27.273-27.27 27.27 12.207 27.27 27.27"/>
  <path d="m790.91 900c0 15.062-12.211 27.273-27.273 27.273s-27.273-12.211-27.273-27.273 12.211-27.273 27.273-27.273 27.273 12.211 27.273 27.273"/>
  <path d="m845.45 736.36c0 15.062-12.211 27.273-27.27 27.273-15.062 0-27.273-12.211-27.273-27.273s12.211-27.273 27.273-27.273c15.059 0 27.27 12.211 27.27 27.273"/>
  <path d="m927.27 381.82c0 15.062-12.211 27.273-27.273 27.273s-27.273-12.211-27.273-27.273c0-15.059 12.211-27.27 27.273-27.27s27.273 12.211 27.273 27.27"/>
  <path d="m354.55 381.82c0 15.062-12.211 27.273-27.273 27.273s-27.273-12.211-27.273-27.273c0-15.059 12.211-27.27 27.273-27.27s27.273 12.211 27.273 27.27"/>
  <path d="m927.27 790.91c0 15.062-12.211 27.273-27.273 27.273s-27.273-12.211-27.273-27.273 12.211-27.273 27.273-27.273 27.273 12.211 27.273 27.273"/>
  <path d="m927.27 681.82c0 15.062-12.211 27.273-27.273 27.273s-27.273-12.211-27.273-27.273c0-15.059 12.211-27.27 27.273-27.27s27.273 12.211 27.273 27.27"/>
  <path d="m409.09 736.36c0 15.062-12.211 27.273-27.273 27.273-15.059 0-27.27-12.211-27.27-27.273s12.211-27.273 27.27-27.273c15.062 0 27.273 12.211 27.273 27.273"/>
  <path d="m327.27 681.82c0 15.062-12.211 27.273-27.273 27.273s-27.273-12.211-27.273-27.273c0-15.059 12.211-27.27 27.273-27.27s27.273 12.211 27.273 27.27"/>
  <path d="m327.27 790.91c0 15.062-12.211 27.273-27.273 27.273s-27.273-12.211-27.273-27.273 12.211-27.273 27.273-27.273 27.273 12.211 27.273 27.273"/>
  <path d="m463.64 900c0 15.062-12.211 27.273-27.273 27.273s-27.273-12.211-27.273-27.273 12.211-27.273 27.273-27.273 27.273 12.211 27.273 27.273"/>
  <path d="m572.73 954.55c0 15.062-12.211 27.27-27.273 27.27s-27.27-12.207-27.27-27.27 12.207-27.273 27.27-27.273 27.273 12.211 27.273 27.273"/>
  <path d="m681.82 954.55c0 15.062-12.207 27.27-27.27 27.27s-27.273-12.207-27.273-27.27 12.211-27.273 27.273-27.273 27.27 12.211 27.27 27.273"/>
  <path d="m572.73 1063.6c0 15.062-12.211 27.273-27.273 27.273s-27.27-12.211-27.27-27.273 12.207-27.273 27.27-27.273 27.273 12.211 27.273 27.273"/>
  <path d="m681.82 1063.6c0 15.062-12.207 27.273-27.27 27.273s-27.273-12.211-27.273-27.273 12.211-27.273 27.273-27.273 27.27 12.211 27.27 27.273"/>
  <path d="m572.73 409.09c0 15.062-12.211 27.273-27.273 27.273s-27.27-12.211-27.27-27.273 12.207-27.273 27.27-27.273 27.273 12.211 27.273 27.273"/>
  <path d="m463.64 409.09c0 15.062-12.211 27.273-27.273 27.273s-27.273-12.211-27.273-27.273 12.211-27.273 27.273-27.273 27.273 12.211 27.273 27.273"/>
  <path d="m681.82 409.09c0 15.062-12.207 27.273-27.27 27.273s-27.273-12.211-27.273-27.273 12.211-27.273 27.273-27.273 27.27 12.211 27.27 27.273"/>
  <path d="m790.91 409.09c0 15.062-12.211 27.273-27.273 27.273s-27.273-12.211-27.273-27.273 12.211-27.273 27.273-27.273 27.273 12.211 27.273 27.273"/>
  <path d="m463.64 300c0 15.062-12.211 27.273-27.273 27.273s-27.273-12.211-27.273-27.273 12.211-27.273 27.273-27.273 27.273 12.211 27.273 27.273"/>
  <path d="m790.91 300c0 15.062-12.211 27.273-27.273 27.273s-27.273-12.211-27.273-27.273 12.211-27.273 27.273-27.273 27.273 12.211 27.273 27.273"/>
  <path d="m463.64 190.91c0 15.062-12.211 27.273-27.273 27.273s-27.273-12.211-27.273-27.273 12.211-27.273 27.273-27.273 27.273 12.211 27.273 27.273"/>
  <path d="m790.91 190.91c0 15.062-12.211 27.273-27.273 27.273s-27.273-12.211-27.273-27.273 12.211-27.273 27.273-27.273 27.273 12.211 27.273 27.273"/>
  <path d="m518.21 572.73c0 30.125-24.422 54.547-54.547 54.547s-54.547-24.422-54.547-54.547 24.422-54.543 54.547-54.543 54.547 24.418 54.547 54.543"/>
  <path d="m790.94 572.73c0 30.125-24.422 54.547-54.547 54.547s-54.547-24.422-54.547-54.547 24.422-54.543 54.547-54.543 54.547 24.418 54.547 54.543"/>
  <path d="m627.27 736.36c0 15.062-12.211 27.273-27.273 27.273s-27.273-12.211-27.273-27.273 12.211-27.273 27.273-27.273 27.273 12.211 27.273 27.273"/>
  <path d="m600 518.18-136.36-54.547h272.73z"/>
  <path d="m818.18 845.45h-81.82l-27.273-109.09z"/>
  <path d="m381.82 845.45h81.82l27.273-109.09z"/>
  <path d="m1090.9 409.09h-35.102c-29.59-180.84-142.94-300.46-319.45-339.93v-41.891c0-15.055-12.191-27.273-27.273-27.273h-218.18c-15.082 0-27.273 12.219-27.273 27.273v41.891c-176.5 39.465-289.85 159.08-319.44 339.93h-35.102c-15.082 0-27.273 12.219-27.273 27.273v163.64c0 15.055 12.191 27.273 27.273 27.273h36.52c42.789 282.46 229.39 572.73 454.39 572.73s411.6-290.26 454.39-572.73h36.52c15.082 0 27.273-12.219 27.273-27.273v-163.64c0-15.055-12.191-27.273-27.273-27.273zm-490.91 736.36c-220.31 0-409.09-350.12-409.09-636.76 0-253.96 149.12-399.6 409.09-399.6s409.09 145.64 409.09 399.6c0 286.64-188.78 636.76-409.09 636.76z"/>
 </g>
</svg>
