<?xml version="1.0" encoding="UTF-8"?>
<svg width="1200pt" height="1200pt" version="1.1" viewBox="0 0 1200 1200" xmlns="http://www.w3.org/2000/svg">
 <g>
  <path d="m1191.6 1163.2h-1183.2c30.809-182.25 85.184-360.55 145.76-534.84 30.531-87.844 61.82-175.55 96.566-261.83 31.734-78.801 63.867-163.75 120.29-228.71 102.33-117.8 285.56-132.39 412-45.098 69.812 48.199 108.56 128.93 141.82 204.37 37.129 84.211 68.758 170.92 99.309 257.69 62.566 177.73 119.34 356.81 155.72 541.95 4.2812 21.789 10.191 44.309 11.762 66.469zm-826.67-728.94c1.3867-0.54297 1.9961-0.69922 2.5234-0.99609 42.242-23.707 87.371-30.66 135.16-24.504 20.297 2.6133 41.305 6.5547 59.52-8.4453v123.86c-61.117 36.594-122.14 73.137-183.26 109.73 14.109 29.949 30.258 57.711 47.469 84.914 24.594 38.879 53.496 73.875 89.465 102.88 34.109 27.504 72.852 35.445 115.01 26.867 19.504-3.9688 35.926-15.602 51.102-27.887 57.41-46.469 99.875-104.14 126.96-172.97 1.9688-5.0078 4.375-9.9375 4.918-15.609-59.395-33.156-118.62-66.219-177.7-99.195v-133.4c27.598 11.445 31.086 12.293 49.832 10.84 8.7969-0.68359 17.559-1.8438 26.348-2.6797 34.992-3.3398 68.777 1.0352 100.81 16.109 6.9336 3.2617 13.645 6.9961 21.02 10.805-0.27344-2.0469-0.28125-3.5195-0.67578-4.8789-4.9141-16.922-9.5156-33.949-14.934-50.711-6.1562-19.047-11.547-38.008-26.023-53.73-31.984-34.734-65.969-66.73-107.39-89.969-25.723-14.434-52.918-24.848-82.797-25.824-34.406-1.1211-65.098 10.832-93.949 28.379-42.406 25.793-77.449 59.805-108.75 97.938-1.9766 2.4102-3.957 4.7617-5.1992 7.8047-9.5273 23.344-17.422 47.234-24.426 71.434-1.793 6.1758-3.2734 12.457-5.0391 19.246zm59.035 58.172c30.086 27.34 76.207 24.469 99.133-0.47656-28.016-24.148-71.145-24.07-99.133 0.47656zm348.46 0.35156c-27.438-25.332-73.531-25.355-98.309-0.39453 26.625 24.246 67.68 27.375 98.309 0.39453z"/>
  <path d="m537.68 710.88c9.5586-3.8594 18.824-8.7461 28.66-11.887 10.625-3.3906 20.5 1.793 31.328 2.2188 9.7969 0.38672 20.078-4.9219 29.383-3.25 10.855 1.9453 22.094 8.168 32.363 12.133-31.172 24.402-72.254 34.574-121.73 0.78516z"/>
 </g>
</svg>
