<svg xmlns="http://www.w3.org/2000/svg" xmlns:xlink="http://www.w3.org/1999/xlink" version="1.1" x="0px" y="0px" viewBox="0 0 1000 1250" style="enable-background:new 0 0 1000 1000;" xml:space="preserve"><g><path d="M993.0147095,969.3623657c-328.9453125,0-657.314209,0-986.0294189,0   c25.6724472-151.8729858,70.9853821-300.458374,121.4683228-445.7041626   c25.4431458-73.2030945,51.5163574-146.2929382,80.4716797-218.1908264   c26.4464569-65.6681671,53.2241516-136.4608307,100.244812-190.5891876   c85.2772522-98.167923,237.9694824-110.3264008,343.3336792-37.5815048   c58.1781616,40.1669922,90.4657593,107.4409866,118.1846313,170.3104858   c30.9404907,70.1762695,57.2991943,142.4317627,82.7557983,214.743042   c52.1399536,148.1071777,99.4468994,297.3432617,129.7687378,451.6213989   C986.781311,932.1277466,991.7053833,950.8967896,993.0147095,969.3623657z M304.1220703,361.9130859   c1.1568604-0.4516296,1.6619873-0.5830383,2.1022339-0.8301086c35.200531-19.7559814,72.8095703-25.5497131,112.6361389-20.4187317   c16.9124451,2.1788635,34.421051,5.4624329,49.5983582-7.036438c0,34.6813354,0,68.8462524,0,103.212738   c-50.9298096,30.4951782-101.7883606,60.9477234-152.7149353,91.4408875   c11.757019,24.958252,25.21521,48.0912476,39.5569458,70.7609863   c20.4959717,32.397583,44.5813904,61.5634155,74.5549316,85.7316284   c28.4252625,22.9197388,60.7106323,29.5391235,95.844696,22.3899536   c16.2531738-3.307251,29.9376221-13.0018921,42.5849609-23.2393799   c47.8410645-38.7249146,83.2284546-86.7862549,105.7966919-144.1453857c1.6417847-4.1727905,3.6459961-8.28125,4.0986938-13.008667   c-49.4960938-27.6303101-98.850708-55.1817017-148.0800171-82.6631165c0-37.2291565,0-74.1392822,0-111.1659851   c22.9974976,9.5392151,25.9046631,10.2426453,41.5258179,9.0318604c7.3320312-0.5682983,14.6323242-1.5352478,21.9553223-2.2341003   c29.1588135-2.7828064,57.3132935,0.8621521,84.0080566,13.4247131c5.7782593,2.7192078,11.3717041,5.8311462,17.5160522,9.002594   c-0.2269287-1.7069397-0.2350464-2.9333191-0.5640869-4.0666199c-4.0940552-14.1025696-7.9292603-28.2902832-12.4441528-42.2579651   c-5.1307983-15.8734131-9.6222534-31.6734314-21.6876831-44.7760315   c-26.6531372-28.9442596-54.9730225-55.6100616-89.4874878-74.9750519   c-21.4362793-12.0272369-44.0993652-20.7079926-68.9989319-21.5193024   c-28.6728516-0.9342957-54.2489319,9.0259857-78.2916565,23.6502686   c-35.337738,21.4945221-64.5404663,49.8361664-90.6270447,81.6150513   c-1.6474304,2.0069275-3.2975464,3.9696045-4.3312378,6.5024109   c-7.9389648,19.4520569-14.5188904,39.3627319-20.3555298,59.5272827   C306.825592,351.0232849,305.5935364,356.2554016,304.1220703,361.9130859z M353.3178101,410.3912659   c25.0701904,22.7841797,63.5046692,20.3901062,82.6106873-0.3985291   C412.5809631,389.8703918,376.640564,389.9344177,353.3178101,410.3912659z M643.704834,410.6828613   c-22.8655396-21.1098328-61.2745972-21.1287537-81.9231567-0.3289795   C583.9667358,430.5597839,618.1804199,433.1677246,643.704834,410.6828613z"/><path d="M448.070282,592.3999634c7.9669189-3.215332,15.6861572-7.2871094,23.8826294-9.9041138   c8.8544312-2.8270874,17.083374,1.4953003,26.1059875,1.8499756c8.1654053,0.3209839,16.7330933-4.0999756,24.4871216-2.7091064   c9.0449829,1.6224976,18.4127808,6.8066406,26.9695435,10.1092529   C523.5375366,612.0806885,489.302002,620.555542,448.070282,592.3999634z"/></g><text x="0" y="1015" fill="#000000" font-size="5px" font-weight="bold" font-family="'Helvetica Neue', Helvetica, Arial-Unicode, Arial, Sans-serif">Created by Brad</text><text x="0" y="1020" fill="#000000" font-size="5px" font-weight="bold" font-family="'Helvetica Neue', Helvetica, Arial-Unicode, Arial, Sans-serif">from the Noun Project</text></svg>