<?xml version="1.0" encoding="UTF-8"?>
<svg width="1200pt" height="1200pt" version="1.1" viewBox="0 0 1200 1200" xmlns="http://www.w3.org/2000/svg">
 <g>
  <path d="m1199.7 1188.2c-18.5-74.285-53.645-141.19-104.48-198.81-47.668-54.023-110.57-101.43-186.98-141.05 4.5234-22.832 9.2617-42.691 10.762-48.883 15.832-20.406 34.023-45.57 52.309-74.523 46.285-73.191 101.45-184.79 101.45-300.79 0-102.76-58-211.07-159.12-297.12-92.07-78.336-207.38-127-300.93-127-87.906 0-195.05 43-284.05 113.19l-50.906-66.523c-19.285-25.215-55.523-30.07-80.785-10.809-12.238 9.332-20.094 22.883-22.145 38.117-2.0469 15.238 1.9766 30.383 11.332 42.594l34.262 44.785c-111.02 104.74-180.95 223.71-207.86 353.69-27.453 132.64-9.9297 276.05 52.023 426.21 1.5 3.6172 5.0234 5.8828 8.8086 5.8828 0.69141 0 1.4062-0.070312 2.0938-0.23828 4.5469-1.0234 7.668-5.168 7.4062-9.8086-0.023438-0.64453-3.332-64.738 10.977-96.047 6.668-14.617 14.715-26.355 22.477-37.715 9.8086-14.355 19.094-27.906 24.383-45.285 4.832-15.906 3.832-31.309 1.5-43.023l30.168 12.832c3.0234 1.2852 6.5 0.92969 9.1914-0.95312 2.6914-1.9062 4.2148-5.0234 4.0469-8.3086-1.5703-29.309 6.5938-52.883 24.855-71.691 14.117 29 29.309 55.355 43.617 78 18.309 28.953 36.5 54.117 52.309 74.523 1.5 6.168 6.2383 26.023 10.762 48.906-76.383 39.594-139.29 87.023-186.95 141.02-50.832 57.617-86 124.52-104.5 198.81-0.69141 2.8555-0.070312 5.8555 1.7383 8.168 1.8086 2.3086 4.5703 3.668 7.5 3.668h1155.5c2.9297 0 5.6914-1.3555 7.5-3.668 1.8164-2.3125 2.457-5.3125 1.7422-8.168zm-366.19-1043.8c3.8086-3.6445 9.832-3.5234 13.477 0.28516 5.9531 6.1914 145.86 153.64 145.86 297.98 0 67.809-40.023 193.71-73.594 287.38-1.4062 3.9062-5.0703 6.3086-8.9766 6.3086-1.0703 0-2.1445-0.16797-3.2148-0.54688-4.9531-1.7852-7.5234-7.2383-5.7383-12.191 47.406-132.31 72.477-229.45 72.477-280.95 0-136.62-139.14-283.33-140.55-284.81-3.6445-3.7852-3.5273-9.8086 0.26172-13.453zm-393.36 112.93c59.738-58.645 127.48-96.547 172.57-96.547s112.83 37.906 172.57 96.547c61.5 60.383 101.31 129.26 103.91 179.81 0.92969 17.93-1.832 42.215-7.5938 70.406-53.168 26.453-97.523 64.715-132.12 114.02-7.5234-12.406-21.117-20.738-36.668-20.738-13.453 0-25.5 6.2383-33.355 15.953-7.8828-9.7148-19.906-15.953-33.383-15.953-13.453 0-25.477 6.2383-33.355 15.953-7.8555-9.7148-19.906-15.953-33.355-15.953-13.453 0-25.5 6.2383-33.355 15.953-7.8828-9.7148-19.906-15.953-33.383-15.953-15.523 0-29.117 8.332-36.645 20.738-34.617-49.309-78.953-87.594-132.12-114.02-5.7852-28.191-8.5234-52.477-7.6172-70.406 2.5898-50.547 42.398-119.43 103.9-179.81zm267.55 552.45c-18.668 0-33.883-6.2148-48.594-12.238-14.309-5.8555-29.094-11.906-46.383-11.906-17.262 0-32.07 6.0469-46.383 11.906-14.715 6.0234-29.906 12.238-48.594 12.238-30.594 0-58.023-16.406-65.262-21.094-16.145-28.023-31.262-58.309-44.906-89.191 19.953-26.117 32.43-55.477 37.238-87.57 8.8828 10.883 17.191 22.383 24.93 34.57v51.762c0 16.762 13.668 30.406 30.453 30.406h24.883c8.0938 0 15.453-3.168 20.93-8.332 5.4531 5.168 12.809 8.332 20.906 8.332h24.906c8.0938 0 15.453-3.168 20.906-8.332 5.4531 5.168 12.832 8.332 20.93 8.332h24.883c8.0938 0 15.453-3.168 20.93-8.332 5.4531 5.168 12.809 8.332 20.906 8.332h24.906c16.785 0 30.43-13.645 30.43-30.406v-51.762c7.7383-12.168 16.07-23.691 24.953-34.57 4.7852 32.094 17.285 61.453 37.238 87.57-13.668 30.883-28.785 61.191-44.93 89.215-7.2266 4.6875-34.516 21.07-65.277 21.07zm46.453 9.7383c-15.809 24.383-32.355 46.215-49.285 64.047-9.332 9.8086-18.523 18.191-27.617 25.191v-84.355c9.1914 2.6172 19.238 4.4297 30.453 4.4297 17.281-0.003906 33.379-4.2656 46.449-9.3125zm-141.43 87.238c19.262 0 34.977-3.9766 45.477-7.668v22.453c-15.645 8.832-30.832 13.309-45.477 13.309-14.617 0-29.809-4.4766-45.477-13.309v-22.453c10.504 3.6914 26.215 7.668 45.477 7.668zm0-62.738c-21.406 0-37.785-5.7617-45.477-9.0703v-17.215c2.1445-0.85547 4.2383-1.7148 6.3086-2.5469 13.762-5.6445 25.645-10.5 39.168-10.5 13.523 0 25.43 4.8555 39.191 10.5 2.0469 0.83203 4.1445 1.6914 6.2852 2.5469v17.215c-7.6641 3.3086-24.07 9.0703-45.477 9.0703zm-64.523-19.621v84.355c-9.0703-7-18.285-15.383-27.594-25.191-16.953-17.832-33.5-39.668-49.285-64.047 13.047 5.0469 29.168 9.3086 46.43 9.3086 11.211 0.003906 21.262-1.8047 30.449-4.4258zm-149.43-145.31c-21.355-51.07-38.477-102.64-49.406-147.12 29.168 16.238 55.355 36.453 78.309 60.523-1.8555 31.738-11.547 60.785-28.902 86.594zm90.023 19.168v-54.594c0-13.117 10.691-23.785 23.832-23.785 13.168 0 23.855 10.668 23.855 23.785v54.594c0 6.2617-5.1172 11.355-11.406 11.355h-24.883c-6.2812 0-11.398-5.0938-11.398-11.355zm66.738 0v-54.594c0-13.117 10.691-23.785 23.832-23.785 13.145 0 23.832 10.668 23.832 23.785v54.594c0 6.2617-5.0938 11.355-11.383 11.355h-24.906c-6.2812 0-11.375-5.0938-11.375-11.355zm66.715 0v-54.594c0-13.117 10.691-23.785 23.832-23.785 13.168 0 23.855 10.668 23.855 23.785v54.594c0 6.2617-5.1172 11.355-11.406 11.355h-24.883c-6.2812 0-11.398-5.0938-11.398-11.355zm66.734 0v-54.594c0-13.117 10.691-23.785 23.832-23.785 13.145 0 23.832 10.668 23.832 23.785v54.594c0 6.2617-5.0938 11.355-11.383 11.355h-24.906c-6.2773 0-11.375-5.0938-11.375-11.355zm108.79-105.76c22.977-24.07 49.145-44.285 78.309-60.523-10.906 44.477-28.023 96.047-49.406 147.12-17.355-25.809-27.047-54.855-28.902-86.594zm-596.48-487.48c-6.2383-8.168-8.9297-18.262-7.5703-28.477 1.3555-10.191 6.6172-19.238 14.809-25.5 16.93-12.883 41.191-9.6445 54.117 7.2383l51.262 67c-0.69141 0.59375-1.4062 1.168-2.0938 1.7617-19.57 16.645-37.5 34.117-53.715 52.238zm-34.691 599.71-35.809-15.238c-3.6445-1.5469-7.8555-0.69141-10.594 2.168-2.7383 2.8555-3.4062 7.1172-1.7148 10.715 0.11719 0.23828 11.668 25.023 4.0234 50.191-4.4297 14.57-12.5 26.383-21.855 40.047-7.832 11.477-16.738 24.453-24.094 40.57-6.9531 15.191-10.285 36.07-11.832 55.215-14.023-39.594-24.738-78.617-32.238-117 2.2383-12.855 9-42.262 19.117-54.355 11.883-14.215 32.977-15.832 33.168-15.832 2.7617-0.19141 5.2852-1.5469 6.9766-3.7383 1.668-2.1914 2.3086-5.0234 1.7383-7.7148-1.6445-7.9766-4.8828-33.191 1.832-44.07 6.1172-9.9297 23.809-12.785 30.094-13.07 2.5234-0.09375 4.9297-1.1914 6.6445-3.0469 1.7148-1.8555 2.6172-4.332 2.5234-6.8828-0.023438-0.35547-1.4062-35.238 9.2148-54.285 6.2617-11.238 19.453-17.168 28.047-19.953 8.2852 28.094 18.668 55.07 30.094 80.285-21.906 20.09-33.766 45.566-35.336 75.996zm-13.93-280.57c0 36.07 5.3555 71.715 14.094 105.91-11.523 3.668-30.07 11.953-39.617 29.07-9.5703 17.168-11.406 42.238-11.668 55.5-10.691 1.8555-27.715 6.9766-36.383 21.07-8.4766 13.738-7.4297 35.477-5.832 48.145-10.047 2.3555-25.355 7.9297-36.262 20.953-4.7383 5.668-8.668 13.309-11.906 21.383-26.93-206.88 42.883-394.02 206.98-549.59l13.309 17.43c-59.664 71.902-92.711 152.59-92.711 230.14zm163.26 304.81c-1.0469 0.38281-2.1445 0.57031-3.1914 0.57031-3.9297 0-7.5938-2.4531-8.9766-6.332-32.453-91.262-71.168-214-71.168-280.55 0-144.33 139.91-291.79 145.88-297.98 3.6172-3.8086 9.668-3.9297 13.453-0.28516 3.7852 3.6445 3.9297 9.668 0.28516 13.453-1.4062 1.4766-140.57 148.19-140.57 284.81 0 50.523 24.238 145.33 70.07 274.14 1.7617 4.9492-0.83203 10.402-5.7852 12.164zm42.691 391.95c-1.7852 1.4531-3.9297 2.168-6.0703 2.168-2.7148 0-5.4297-1.168-7.3086-3.4297-1.0234-1.2148-24.645-30.145-28.168-72.191-1.9297-23.168 1.4531-48.453 4.7383-72.93 2.5938-19.262 5.0234-37.453 5.0234-54.406 0-5.2617 4.2617-9.5234 9.5234-9.5234s9.5234 4.2617 9.5234 9.5234c0 18.238-2.6445 37.906-5.1914 56.953-3.1445 23.453-6.4062 47.691-4.6445 68.785 3 35.883 23.645 61.383 23.855 61.645 3.3398 4.0469 2.7656 10.047-1.2812 13.406zm74.953 29.449c-1.6914 1.2383-3.6445 1.832-5.5938 1.832-2.9531 0-5.8555-1.3828-7.7148-3.9531-25.762-35.547-41.617-77.57-47.117-124.86-0.61719-5.2148 3.1445-9.9531 8.3555-10.547 5.2383-0.61719 9.9531 3.1172 10.57 8.332 5.1172 44.023 19.809 83.023 43.617 115.91 3.0977 4.2617 2.1445 10.215-2.1172 13.285zm418.71-126.98c-5.5 47.285-21.355 89.309-47.117 124.86-1.8555 2.5703-4.7617 3.9531-7.7148 3.9531-1.9297 0-3.8828-0.59375-5.5703-1.832-4.2617-3.0703-5.2148-9.0234-2.1445-13.285 23.832-32.883 38.5-71.883 43.645-115.91 0.59375-5.2148 5.332-8.9766 10.547-8.332 5.2344 0.59766 8.9727 5.3359 8.3555 10.547zm-0.66797-119.19c-33.145 79.57-63.691 145.07-76.023 163.02-32.953 47.953-96.883 78.93-162.88 78.93-65.977 0-129.91-30.977-162.86-78.93-12.332-17.953-42.906-83.477-76.047-163.02-2.0234-4.8555 0.26172-10.43 5.1172-12.453 4.8555-2.0234 10.43 0.26172 12.453 5.1172 37.57 90.145 64.785 145.91 74.168 159.57 29.5 42.93 87.262 70.668 147.17 70.668s117.67-27.738 147.17-70.668c9.4062-13.668 36.617-69.43 74.168-159.57 2.0234-4.8555 7.5938-7.1445 12.453-5.1172 4.8516 2.0234 7.1367 7.5938 5.1133 12.453zm56.738 143.26c-3.5234 42.047-27.145 70.977-28.145 72.191-1.8828 2.2617-4.5938 3.4531-7.332 3.4531-2.1445 0-4.3086-0.73828-6.0938-2.1914-4.0469-3.3555-4.5938-9.3828-1.2383-13.43 0.19141-0.23828 20.832-25.738 23.832-61.617 1.7617-21.094-1.4766-45.332-4.6445-68.785-2.5469-19.047-5.1914-38.715-5.1914-56.953 0-5.2617 4.2617-9.5234 9.5234-9.5234 5.2617 0 9.5234 4.2617 9.5234 9.5234 0 16.953 2.4531 35.145 5.0234 54.406 3.2891 24.473 6.6953 49.758 4.7422 72.926z"/>
  <path d="m713.04 386.48c-19.691 22.262-30.5 50.406-28.953 75.309 1.0703 17.191 7.7383 31.645 19.262 41.809 10.691 9.4062 24.383 13.906 39.168 13.906 25.5 0 54.191-13.383 75.977-38.023 19.691-22.262 30.5-50.406 28.953-75.285-1.0703-17.191-7.7148-31.668-19.262-41.832-29.074-25.621-80.742-14.812-115.14 24.117z"/>
  <path d="m646.88 423.38c0.66797 0.14453 1.332 0.21484 2 0.21484 4.3828 0 8.332-3.0703 9.3086-7.5234 10.215-47.785 41.262-78.523 94.883-93.93 5.0469-1.4531 7.9766-6.7383 6.5234-11.785-1.4531-5.0703-6.7383-7.9766-11.785-6.5234-60.168 17.309-96.57 53.715-108.26 108.24-1.0977 5.1406 2.1875 10.211 7.332 11.309z"/>
  <path d="m734.78 749-30.855 20.355c-4.3828 2.9062-5.5938 8.8086-2.6914 13.191 1.832 2.7852 4.8555 4.2852 7.9531 4.2852 1.8086 0 3.6172-0.5 5.2383-1.5703l30.855-20.355c4.3828-2.9062 5.5938-8.8086 2.7148-13.191-2.9062-4.3828-8.8125-5.5977-13.215-2.7148z"/>
  <path d="m557.42 550.67c8.0703 10.117 21.168 13.809 33.355 9.4062l21.953-7.9531 21.977 7.9531c3.4062 1.2383 6.8828 1.832 10.309 1.832 8.8086 0 17.238-3.9531 23.047-11.238 8.0703-10.094 8.7617-23.668 1.7617-34.547l-32.07-49.93c-5.5-8.5469-14.855-13.645-25.023-13.645s-19.523 5.0938-25 13.645l-32.094 49.93c-6.9766 10.879-6.2852 24.449 1.7852 34.547z"/>
  <path d="m472.42 322.14c53.617 15.406 84.645 46.145 94.883 93.93 0.95312 4.4531 4.9062 7.5234 9.3086 7.5234 0.64453 0 1.3086-0.070312 2-0.21484 5.1445-1.0938 8.4062-6.168 7.3086-11.309-11.668-54.523-48.094-90.93-108.24-108.24-5.0469-1.4531-10.332 1.4531-11.785 6.5234-1.4531 5.0469 1.4531 10.332 6.5234 11.785z"/>
  <path d="m482.95 517.5c14.785 0 28.5-4.5 39.168-13.906 11.547-10.168 18.191-24.617 19.262-41.809 1.5469-24.906-9.2617-53.047-28.953-75.309-34.406-38.93-86.07-49.738-115.14-24.117-11.523 10.168-18.191 24.645-19.262 41.809-1.5469 24.906 9.2852 53.047 28.953 75.309 21.789 24.641 50.477 38.023 75.977 38.023z"/>
  <path d="m521.54 769.36-30.855-20.355c-4.3828-2.8828-10.285-1.668-13.191 2.7148-2.9062 4.3828-1.6914 10.285 2.7148 13.191l30.855 20.355c1.5938 1.0703 3.4297 1.5703 5.2148 1.5703 3.0938 0 6.1445-1.5 7.9766-4.2852 2.8789-4.3789 1.6875-10.285-2.7148-13.191z"/>
 </g>
</svg>
