<?xml version="1.0" encoding="UTF-8"?>
<svg width="1200pt" height="1200pt" version="1.1" viewBox="0 0 1200 1200" xmlns="http://www.w3.org/2000/svg">
 <path d="m807.66 527.9c-4.2656-1.0469-8.7227 0.96875-10.742 4.8867-10.824 20.992-34.188 55.57-50.816 58.98-12.484 2.5547-25.246-2.2969-38.754-7.4414-12.152-4.625-24.723-9.4102-38.418-9.4102-16.711 0-30.82 7.7695-43.266 14.625-5.6328 3.1016-11.07 6.082-16.141 7.9766v-103.26l41.266-40.742c9.6992-9.5781 12.523-23.328 7.3672-35.883-5.2305-12.742-17.113-20.656-31.004-20.656h-54.309c-13.895 0-25.773 7.9141-31.004 20.656-5.1562 12.559-2.332 26.309 7.3672 35.883l41.27 40.746v103.26c-5.0703-1.8984-10.508-4.875-16.141-7.9766-12.449-6.8555-26.559-14.625-43.266-14.625-13.699 0-26.266 4.7852-38.418 9.4102-13.512 5.1445-26.285 10-38.754 7.4414-16.625-3.4102-39.992-37.988-50.816-58.98-2.0195-3.918-6.4648-5.9336-10.742-4.8867-4.2812 1.0508-7.2773 4.9023-7.25 9.3086 0.054687 8.5195 1.8047 209.2 40.113 257.39 43.527 54.754 128.2 62.926 174.8 62.926 46.594 0 131.27-8.1758 174.8-62.926 38.309-48.188 40.059-248.87 40.113-257.39 0.027344-4.4102-2.9688-8.2578-7.25-9.3125zm-70.109 83.613c-3.5312 29.82-14.898 55.246-35.125 78.25-1.9844-32.863-8.3281-64.594-18.664-93.465 5.4766 1.5352 11.059 3.6445 16.812 5.832 11.809 4.4961 23.93 9.0898 36.977 9.3828zm-102.7-5.2812c7.7891-4.2891 15.77-8.6719 23.98-10.852-2.2344 21.613-11.199 40.492-26.785 56.301-9.8164-8.9258-16.551-20.441-20.492-34.777 8.0547-2.2852 15.766-6.5234 23.297-10.672zm-75.387-181.36c2.2695-5.5352 7.2773-8.8398 13.383-8.8398h54.309c6.1055 0 11.109 3.3047 13.383 8.8398 2.1992 5.3516 1.0273 10.992-3.1289 15.098l-37.41 36.93-37.406-36.93c-4.1562-4.1055-5.3242-9.75-3.1289-15.098zm28.984 192.04c-3.9414 14.336-10.68 25.848-20.492 34.777-15.586-15.809-24.551-34.688-26.785-56.301 8.2109 2.1797 16.188 6.5586 23.98 10.852 7.5312 4.1445 15.242 8.3828 23.297 10.672zm-89.023-14.777c5.7539-2.1914 11.34-4.3008 16.812-5.832-10.336 28.867-16.68 60.602-18.664 93.465-20.227-23.004-31.594-48.43-35.125-78.25 13.051-0.28906 25.164-4.8867 36.977-9.3828zm-59.312 180.61c-1.043-1.3086-2.043-2.832-3.0273-4.4492 2.0078-12.945 6.4727-24.797 13.598-35.777 4.3047 23.438 12.273 46.48 23.793 68.914-13.098-7.4258-24.922-16.816-34.363-28.688zm92.234 49.309c4.9219-13.992 12.922-26.906 24-38.547 6.1719 15.207 9.625 29.59 10.535 43.52-10.977-0.97266-22.684-2.5508-34.535-4.9727zm100.77 4.9766c0.90625-13.93 4.3594-28.312 10.535-43.52 11.078 11.641 19.078 24.555 24 38.547-11.855 2.418-23.562 3.9961-34.535 4.9727zm92.406-25.598c11.52-22.438 19.492-45.48 23.793-68.914 7.1211 10.98 11.59 22.832 13.598 35.777-0.98438 1.6172-1.9883 3.1367-3.0273 4.4492-9.4453 11.871-21.27 21.262-34.363 28.688zm48.824-62.094c-5.6055-13.238-13.852-25.504-24.715-36.656-2.6016-2.668-6.5156-3.5781-10.039-2.3203-3.5117 1.2578-5.9648 4.4531-6.2773 8.168-3.0391 36.305-15.578 71.914-37.215 105.9-3.2539 1.1055-6.5273 2.1367-9.8203 3.0781-7.1914-21.57-20.484-40.844-39.613-57.395-2.2383-1.9375-5.2578-2.7227-8.1562-2.125-2.9023 0.59766-5.3594 2.5156-6.6484 5.1797-11.066 22.883-16.965 44.258-17.938 65.047-4.9414 0.17969-9.6172 0.25781-13.938 0.25781-4.3164 0-8.9922-0.078125-13.938-0.25781-0.96875-20.789-6.8672-42.168-17.938-65.047-1.2891-2.668-3.7461-4.582-6.6484-5.1797-2.9023-0.59766-5.918 0.1875-8.1562 2.125-19.133 16.551-32.422 35.82-39.613 57.395-3.293-0.94531-6.5664-1.9727-9.8203-3.0781-21.637-33.988-34.176-69.598-37.215-105.9-0.3125-3.7188-2.7656-6.9102-6.2773-8.168-3.5195-1.2578-7.4375-0.35156-10.039 2.3203-10.863 11.152-19.105 23.418-24.715 36.656-13.098-47.059-18.766-124.59-20.695-177.17 10.316 14.434 23.832 29.707 38.016 35.934 3.8398 43.484 22.527 79.922 57.062 111.18 1.7852 1.6172 4.0781 2.4648 6.3945 2.4648 1.3047 0 2.6211-0.26953 3.8594-0.82031 3.4414-1.5273 5.6602-4.9414 5.6602-8.7031 0-31.125 4.0781-61.516 11.898-89.59 6.4023 18.473 17.602 35.004 33.336 48.836 1.7891 1.5742 4.0352 2.3711 6.293 2.3711 1.9492 0 3.9062-0.59766 5.5781-1.8047 11.562-8.3633 20.559-19.078 26.945-31.996 6.3906 12.918 15.383 23.637 26.945 31.996 1.6719 1.207 3.625 1.8047 5.5781 1.8047 2.2539 0 4.5039-0.79688 6.293-2.3711 15.73-13.836 26.934-30.363 33.336-48.836 7.8203 28.074 11.898 58.465 11.898 89.59 0 3.7656 2.2188 7.1797 5.6602 8.7031 1.2422 0.55078 2.5547 0.82031 3.8594 0.82031 2.3203 0 4.6094-0.84375 6.3945-2.4648 34.535-31.262 53.223-67.699 57.062-111.18 14.188-6.2266 27.699-21.5 38.016-35.934-1.9062 52.582-7.5703 130.11-20.672 177.17zm-286.08-321.81c-0.57031-2.9375-0.85547-5.9023-0.85547-8.8789 0-39.754 49.453-70.891 112.58-70.891s112.58 31.141 112.58 70.891c0 2.9766-0.28516 5.9414-0.85547 8.8789 40.148 11.352 65.531 36.004 65.531 64.551 0 17.844-10.246 34.789-28.844 47.719-1.6562 1.1523-3.5508 1.7031-5.4258 1.7031-3.0156 0-5.9805-1.4258-7.8281-4.0898-3.0039-4.3203-1.9375-10.254 2.3828-13.254 13.328-9.2656 20.668-20.66 20.668-32.082 0-20.855-24.906-40.77-60.566-48.426-2.8008-0.60156-5.1875-2.4336-6.4883-4.9883-1.3008-2.5547-1.3828-5.5586-0.22266-8.1797 1.7227-3.8945 2.5977-7.875 2.5977-11.832 0-28.102-42.832-51.844-93.535-51.844-50.699 0-93.535 23.742-93.535 51.844 0 3.9609 0.875 7.9414 2.5977 11.832 1.1602 2.6211 1.0781 5.625-0.22266 8.1797-1.3008 2.5547-3.6875 4.3867-6.4883 4.9883-35.66 7.6602-60.566 27.574-60.566 48.426 0 11.422 7.3398 22.816 20.668 32.082 4.3164 3.0039 5.3867 8.9375 2.3828 13.254-3 4.3203-8.9297 5.3906-13.254 2.3828-18.602-12.93-28.844-29.875-28.844-47.719 0.007813-28.543 25.391-53.199 65.539-64.547zm387.88 79.473c9.375 36.41-23.188 149-26.934 161.72-1.2227 4.1484-5.0156 6.8398-9.1328 6.8398-0.89063 0-1.7969-0.125-2.6914-0.39062-5.0469-1.4844-7.9336-6.7812-6.4492-11.828 9.7578-33.164 33.59-125.05 26.754-151.59-1.6172-6.2852-4.7773-10.73-9.6641-13.59-10.562-6.1836-27.211-3.7227-32.73-2.2539-5.0742 1.3477-10.297-1.6562-11.656-6.7305-1.3633-5.0703 1.6211-10.285 6.6875-11.66 1.1172-0.30469 27.559-7.2969 47.227 4.1445 9.418 5.4844 15.672 14.008 18.59 25.344zm-5.8086-78.492c1.5977-0.39453 39.266-9.4258 55.871 15.855 15.312 23.32-2.7969 72.863-4.9102 78.438-1.4414 3.8047-5.0625 6.1445-8.9023 6.1445-1.1211 0-2.2617-0.19922-3.375-0.62109-4.918-1.8633-7.3945-7.3633-5.5312-12.277 7.1367-18.855 13.965-50.312 6.7969-61.223-9.125-13.898-35.09-7.8906-35.352-7.8281-5.1055 1.2695-10.27-1.8398-11.543-6.9453-1.2656-5.1055 1.8438-10.273 6.9453-11.543zm-342.66-121.98c0-5.2578 4.2656-9.5234 9.5234-9.5234h125.59c5.2578 0 9.5234 4.2656 9.5234 9.5234 0 5.2578-4.2656 9.5234-9.5234 9.5234h-125.59c-5.2578 0-9.5234-4.2617-9.5234-9.5234zm190.73 32.949c11.223-45.742 34.555-80.695 69.348-103.89 4.375-2.918 10.289-1.7344 13.207 2.6406 2.918 4.375 1.7344 10.289-2.6406 13.207-30.703 20.469-51.363 51.617-61.414 92.582-1.0664 4.3438-4.9609 7.2578-9.2422 7.2578-0.75 0-1.5156-0.089843-2.2773-0.27734-5.1094-1.2539-8.2344-6.4102-6.9805-11.52zm33.816 68.504c-0.74609 2.9102-0.078125 6.0039 1.8086 8.3438 1.8125 2.25 4.5391 3.5508 7.418 3.5508 0.11719 0 0.23437-0.003906 0.34766-0.007813 12.117-0.44531 73.539-3.4492 92.891-18.863 10.676-8.5039 17.344-20.613 18.77-34.09 1.4219-13.43-2.5352-26.602-11.145-37.09-17.715-21.586-49.953-24.953-71.855-7.5117-19.395 15.449-35.254 74.074-38.234 85.668zm50.102-70.766c5.9531-4.7422 13.109-7.0469 20.223-7.0469 9.3867 0 18.695 4.0156 25.039 11.746 5.3438 6.5156 7.8047 14.684 6.9258 23-0.88672 8.3633-5.0391 15.895-11.699 21.195-9.4922 7.5586-43.016 12.188-68.648 14.008 7.168-24.246 18.719-55.383 28.16-62.902zm-417.65 158.7c-5.5195-1.4648-22.168-3.9258-32.73 2.2539-4.8867 2.8594-8.0469 7.3008-9.6641 13.59-6.832 26.547 16.996 118.43 26.754 151.59 1.4844 5.0469-1.3984 10.34-6.4492 11.828-0.89844 0.26562-1.8008 0.39062-2.6914 0.39062-4.1172 0-7.9102-2.6875-9.1328-6.8398-3.7422-12.715-36.305-125.31-26.934-161.72 2.918-11.336 9.1719-19.859 18.586-25.336 19.672-11.441 46.109-4.4492 47.227-4.1445 5.0781 1.3789 8.0742 6.6133 6.6953 11.688-1.3711 5.0625-6.582 8.0625-11.66 6.6953zm-105.99 26.891c-2.1172-5.5703-20.227-55.117-4.9102-78.438 16.602-25.285 54.273-16.25 55.871-15.855 5.1055 1.2695 8.2109 6.4375 6.9414 11.539-1.2695 5.0977-6.4062 8.207-11.52 6.9492-0.38281-0.09375-26.355-5.9141-35.371 7.8203-7.168 10.91-0.33984 42.367 6.7969 61.223 1.8633 4.918-0.61328 10.418-5.5312 12.277-1.1133 0.42188-2.2539 0.62109-3.375 0.62109-3.8438 0.007812-7.4609-2.332-8.9023-6.1367zm120.33-284.57c2.918-4.375 8.8359-5.5586 13.207-2.6406 34.793 23.195 58.125 58.148 69.348 103.89 1.2539 5.1094-1.8711 10.266-6.9805 11.52-0.76172 0.1875-1.5273 0.27734-2.2773 0.27734-4.2852 0-8.1758-2.9102-9.2422-7.2578-10.051-40.965-30.711-72.113-61.414-92.582-4.375-2.9219-5.5586-8.832-2.6406-13.207zm-53.723 162.78c19.352 15.418 80.773 18.418 92.891 18.863 0.11719 0.003907 0.23438 0.007813 0.34766 0.007813 2.875 0 5.6055-1.3008 7.418-3.5508 1.8867-2.3398 2.5547-5.4375 1.8086-8.3438-2.9844-11.594-18.84-70.215-38.234-85.668-21.906-17.445-54.133-14.074-71.855 7.5117-8.6055 10.488-12.562 23.66-11.145 37.09 1.4258 13.48 8.0938 25.586 18.77 34.09zm7.0977-59.094c11.152-13.586 31.461-15.695 45.266-4.6992 9.4375 7.5195 20.988 38.66 28.156 62.906-25.633-1.8242-59.156-6.4492-68.648-14.008-6.6562-5.3008-10.812-12.832-11.699-21.195-0.87891-8.3203 1.582-16.488 6.9258-23.004zm-101.38 732.83c-19-61.711-26.746-129.22-23.062-201.91 0.24219-4.7656 3.9727-8.6172 8.7305-9.0078 4.7344-0.39453 9.0664 2.7969 10.086 7.4609 15.27 69.922 40.789 126.28 77.777 171.56l9.6523-84.523c0.50781-4.4219 4.0117-7.9062 8.4375-8.3867 4.3984-0.48438 8.5938 2.1719 10.035 6.3867 24.34 71.133 67.117 127.93 127.29 169.09l-6.6328-64.383c-0.46094-4.4727 2.2695-8.6602 6.5508-10.039 4.2773-1.3828 8.9414 0.42188 11.18 4.3281 28.621 49.895 64.277 81.344 108.93 96.051 44.656-14.707 80.312-46.156 108.93-96.051 2.2383-3.9023 6.8984-5.707 11.18-4.3281 4.2852 1.3828 7.0156 5.5664 6.5508 10.039l-6.6328 64.383c60.168-41.156 102.95-97.953 127.29-169.09 1.4375-4.2148 5.6328-6.8711 10.035-6.3867 4.4258 0.48047 7.9297 3.9648 8.4375 8.3867l9.6523 84.523c36.992-45.281 62.508-101.63 77.777-171.56 1.0195-4.6602 5.3086-7.8516 10.086-7.4609 4.7578 0.39453 8.4883 4.2422 8.7305 9.0078 3.6836 72.699-4.0625 140.2-23.062 201.91 9.2422 19.934 22.691 36.68 40.191 49.867 8.1289-22.883 12.73-48.324 13.699-75.809 0.15625-4.4805 3.4219-8.2461 7.8359-9.0391 4.418-0.79297 8.7812 1.6055 10.488 5.7539 8.582 20.875 21.457 36.188 39.352 46.812 4.5195 2.6836 6.0117 8.5273 3.3281 13.051-2.6836 4.5195-8.5234 6.0156-13.051 3.3281-12.371-7.3438-22.926-16.781-31.57-28.211-3.1016 22.402-8.7148 43.328-16.785 62.496-1.0859 2.5781-3.25 4.5508-5.9219 5.3906-0.9375 0.29688-1.8984 0.4375-2.8555 0.4375-1.7812 0-3.5469-0.5-5.0859-1.4727-19.895-12.566-35.957-28.621-47.961-47.887-12.461 33.988-28.488 66.105-48.105 96.227-1.8281 2.8008-4.875 4.3281-7.9883 4.3281-1.7812 0-3.582-0.5-5.1875-1.5469-4.4102-2.8711-5.6562-8.7695-2.7852-13.18 45.75-70.242 71.332-151.93 76.375-243.54-18.441 51.301-44.078 94.219-77.566 130.09-2.5312 2.7148-6.4062 3.7109-9.9453 2.5469-3.5273-1.1641-6.0586-4.2734-6.4805-7.9648l-7.7969-68.297c-29.656 64.887-75.844 116.64-137.7 154.16-3.0898 1.8789-6.9766 1.8398-10.031-0.09375-3.0547-1.9336-4.7539-5.4297-4.3828-9.0273l4.6875-45.48c-27.805 36.438-61.078 60.375-100.91 72.766-1.8398 0.57422-3.8125 0.57422-5.6562 0-39.836-12.387-73.109-36.328-100.91-72.766l4.6875 45.48c0.37109 3.5938-1.3281 7.0938-4.3828 9.0273-3.0508 1.9297-6.9414 1.9727-10.031 0.09375-61.852-37.52-108.04-89.27-137.7-154.16l-7.7969 68.297c-0.42188 3.6914-2.9492 6.8008-6.4805 7.9648-3.5352 1.1602-7.4102 0.16797-9.9453-2.5469-33.488-35.871-59.125-78.789-77.566-130.09 5.043 91.613 30.625 173.3 76.375 243.54 2.8711 4.4062 1.625 10.309-2.7852 13.18-4.4102 2.8672-10.309 1.625-13.176-2.7812-19.617-30.117-35.645-62.238-48.105-96.227-12.004 19.266-28.062 35.32-47.961 47.887-1.5391 0.97266-3.3047 1.4727-5.0859 1.4727-0.95703 0-1.9219-0.14453-2.8555-0.4375-2.6719-0.83984-4.8359-2.8125-5.9219-5.3906-8.0703-19.168-13.684-40.094-16.785-62.496-8.6445 11.43-19.199 20.867-31.57 28.211-4.5234 2.6875-10.367 1.1953-13.051-3.3281-2.6875-4.5234-1.1953-10.367 3.3281-13.051 17.898-10.625 30.77-25.938 39.352-46.812 1.707-4.1484 6.0625-6.5508 10.488-5.7539 4.4141 0.79297 7.6797 4.5586 7.8359 9.0391 0.96875 27.484 5.5703 52.926 13.699 75.809 17.523-13.184 30.973-29.934 40.215-49.867zm-241.5-182.38c2.1602 0 4.332-0.73047 6.1172-2.2305 26.422-22.172 56.059-31.961 90.234-29.723-5.3008 8.2773-10.438 16.707-15.363 25.332-6.457 11.312-12.625 23.035-18.52 35.102-25.02 4.2539-46.68 15.039-64.434 32.098-3.793 3.6445-3.9141 9.6719-0.26953 13.465 1.8711 1.9453 4.3672 2.9258 6.8711 2.9258 2.3711 0 4.75-0.88281 6.5977-2.6562 11.699-11.238 25.461-19.238 41.059-23.918-12.367 27.809-23.34 57.293-32.699 88.289-0.94922 3.1406-0.21484 6.5508 1.9414 9.0195 2.1602 2.4727 5.4375 3.6562 8.6797 3.1367l48.258-7.7266c-32.121 47.562-50.098 99.406-53.504 154.42-0.32812 5.25 3.668 9.7695 8.918 10.094 0.19922 0.011719 0.39844 0.019531 0.59766 0.019531 4.9922 0 9.1836-3.8867 9.4961-8.9375 3.6211-58.496 24.887-113.27 63.215-162.81 2.3906-3.0898 2.6484-7.3281 0.65625-10.688-1.9922-3.3594-5.8555-5.1484-9.6953-4.5469l-55.77 8.9297c14.926-46.172 33.449-88.758 55.148-126.78 25.859-45.309 57.145-85.727 92.98-120.12 2.9961-2.875 3.7812-7.3594 1.9414-11.082-1.8359-3.7266-5.8945-5.832-9.9766-5.2031l-68.562 10.469c13.039-20.582 26.879-38.973 41.281-54.84 18.359-20.223 38.32-37.02 59.453-50.188 0.80859 7.3711 1.9219 14.727 3.3555 22.055 6.1172 31.305 18.086 62.984 35.566 94.16 1.6797 2.9961 4.8398 4.8555 8.2773 4.8633h0.035156c3.4219 0 6.582-1.8359 8.2773-4.8086l34.18-59.996c11.648 34.512 37.996 101.85 74.703 132 45.754 37.582 132.67 63.348 211.34 62.543 1.1367 0.007812 2.2656 0.015624 3.4062 0.015624 77.875 0 163.02-25.516 208.12-62.559 36.711-30.152 63.059-97.492 74.703-132l34.18 59.996c1.6953 2.9727 4.8555 4.8086 8.2773 4.8086h0.035156c3.4336-0.011719 6.5938-1.8711 8.2773-4.8633 15.922-28.398 27.289-57.242 33.781-85.73 2.3086-10.121 4.0195-20.289 5.1367-30.484 20.754 12.93 40.375 29.355 58.449 49.082 14.77 16.129 28.949 34.891 42.285 55.941l-68.562-10.469c-4.0742-0.62891-8.1445 1.4766-9.9766 5.2031-1.8359 3.7227-1.0508 8.207 1.9414 11.082 35.938 34.492 67.289 75.035 93.195 120.5 21.605 37.926 40.059 80.387 54.934 126.41l-55.77-8.9297c-3.8398-0.60547-7.6992 1.1836-9.6953 4.5469-1.9922 3.3594-1.7344 7.5977 0.65625 10.688 38.328 49.535 59.594 104.31 63.215 162.81 0.3125 5.0508 4.5039 8.9375 9.4961 8.9375 0.19922 0 0.39844-0.003906 0.59766-0.019531 5.25-0.32422 9.2422-4.8438 8.918-10.094-3.4062-55.016-21.379-106.86-53.504-154.42l48.258 7.7266c3.2422 0.51562 6.5156-0.66797 8.6797-3.1367 2.1562-2.4727 2.8945-5.8789 1.9414-9.0195-9.3633-30.992-20.328-60.477-32.699-88.285 15.594 4.6797 29.355 12.68 41.055 23.918 1.8438 1.7734 4.2227 2.6562 6.5977 2.6562 2.5039 0 5-0.98047 6.8711-2.9258 3.6445-3.793 3.5195-9.8203-0.26953-13.465-17.754-17.059-39.406-27.844-64.426-32.098-5.832-11.93-11.926-23.52-18.305-34.715-4.9922-8.7578-10.203-17.32-15.582-25.719 34.176-2.2422 63.809 7.5508 90.23 29.723 1.7852 1.4961 3.957 2.2305 6.1172 2.2305 2.7188 0 5.4141-1.1562 7.2969-3.4023 3.3828-4.0273 2.8555-10.035-1.1719-13.418-32.691-27.441-71.18-38.52-114.43-33.059-14.973-21.547-31.23-41.793-48.711-60.555l60.355 9.2148c3.6055 0.54688 7.2344-1.0195 9.3008-4.0469 2.0625-3.0273 2.2109-6.9648 0.375-10.137-14.91-25.77-31.043-48.762-48.043-68.492 15.273 4.0156 30.461 6.0273 45.703 6.0273 7.4922 0 15-0.48438 22.535-1.4414 5.2148-0.66406 8.9102-5.4297 8.2461-10.648-0.66406-5.2148-5.4375-8.9102-10.648-8.2461-32.398 4.1172-64.324-1.7227-97.562-17.844-14.746-13.004-30.273-24.164-46.438-33.398 0.44922-15.508-0.45312-31.051-2.7422-46.559l58.785 27.336c2.6992 1.2578 5.8359 1.1758 8.4688-0.21484 2.6328-1.3945 4.4648-3.9375 4.9453-6.8789 5.8477-35.703 6.125-68.953 0.83203-98.828-0.34766-1.957-0.72266-3.9023-1.1172-5.8398 19.211 11.973 33.664 28.75 43.852 50.887 1.6055 3.4883 5.0508 5.5469 8.6602 5.5469 1.332 0 2.6875-0.28125 3.9727-0.875 4.7773-2.1992 6.8711-7.8555 4.6719-12.633-14.418-31.336-37.254-54.188-67.879-68.031-6.1289-18.395-14.668-35.625-25.582-51.527l64.543-15.672c2.9805-0.72266 5.4297-2.8359 6.582-5.6797s0.86328-6.0625-0.76953-8.6562c-1.2578-1.9922-28.438-44.637-60.844-60.168 6.3945-14.496 11.969-29.652 16.707-45.414 20.883-15.867 44.617-23.918 72.484-24.551 5.2578-0.11719 9.4219-4.4805 9.3047-9.7344-0.12109-5.2578-4.5977-9.4219-9.7383-9.3086-23.68 0.53516-45.391 6.0703-64.855 16.438 3.4414-14.902 6.2031-30.258 8.2422-46.047 1.1562-8.9648 2.0625-18.145 2.7734-27.484 18.871-31.574 41.766-51.191 69.961-59.875 5.0273-1.5469 7.8438-6.8789 6.2969-11.906s-6.875-7.8477-11.906-6.2969c-23.883 7.3555-44.883 21.789-62.738 42.965 0.69531-40.531-2.3945-84.074-9.3047-130.17-0.42188-2.8008-2.0625-5.2695-4.4922-6.7383-2.4219-1.4648-5.3672-1.7773-8.0508-0.85156-40.57 14.07-77.602 33.496-110.18 57.746 5.3633-21.367 7.1992-44.27 5.4062-68.477-0.39062-5.2461-4.9531-9.1914-10.199-8.7969-5.2461 0.38672-9.1836 4.957-8.7969 10.203 2.4531 33.16-2.4492 63.508-14.547 90.242-16.867 15.273-32.582 32.145-46.918 50.527-5.3125-13.965-5.6641-29.605-1.1055-47.414 0.89453-3.4922-0.25781-7.1914-2.9844-9.5508-2.7188-2.3633-6.5391-2.9844-9.875-1.6133-15.051 6.2109-28.688 14.148-40.824 23.758 5.8008-25.16 7.2109-51.301 4.1914-78.125-0.39844-3.5391-2.7383-6.5625-6.0703-7.832-3.332-1.2695-7.0938-0.57031-9.7461 1.8008-24.453 21.887-49.883 38.57-77.152 50.566l44.695-74.762c1.7891-2.9961 1.8008-6.7305 0.023437-9.7344-1.7773-3.0078-5.1797-4.7891-8.543-4.668-78.609 2.8516-152.29 31.578-219.32 85.441l5.1133-53.309c0.33984-3.5039-1.2891-6.9062-4.2227-8.8516-2.9375-1.9414-6.7031-2.1055-9.7969-0.42969-39.691 21.527-69.645 58.062-89.172 108.71-20.246-17.73-45.141-28.281-74.203-31.422-3.1406-0.33984-6.2734 0.91016-8.3164 3.3438-2.0391 2.4297-2.7344 5.7227-1.8555 8.7695 3.918 13.52 4.1992 27.582 0.82812 42.617-13.758-17.344-28.758-33.316-44.801-47.844-12.094-26.734-16.996-57.074-14.543-90.23 0.38672-5.2461-3.5508-9.8125-8.7969-10.203-5.2422-0.37891-9.8086 3.5508-10.199 8.7969-1.793 24.203 0.042969 47.109 5.4062 68.477-32.578-24.254-69.609-43.68-110.18-57.746-2.6758-0.92969-5.625-0.61719-8.0508 0.85156-2.4258 1.4648-4.0703 3.9375-4.4922 6.7344-6.9102 46.094-10.004 89.633-9.3086 130.17-17.855-21.176-38.852-35.605-62.734-42.961-5.0391-1.5469-10.355 1.2734-11.906 6.2969-1.5469 5.0273 1.2695 10.355 6.2969 11.906 28.191 8.6875 51.09 28.301 69.957 59.871 0.77344 10.172 1.7891 20.148 3.0898 29.875 2 14.949 4.6523 29.508 7.918 43.656-19.461-10.363-41.172-15.895-64.848-16.43-5.2031-0.11328-9.6172 4.0469-9.7383 9.3086-0.11719 5.2578 4.0469 9.6172 9.3047 9.7344 27.867 0.63281 51.605 8.6836 72.484 24.551 4.7383 15.758 10.312 30.918 16.703 45.41-32.406 15.527-59.59 58.172-60.844 60.168-1.6367 2.5938-1.9219 5.8125-0.76953 8.6562 1.1523 2.8438 3.6016 4.9531 6.582 5.6797l64.543 15.672c-10.906 15.891-19.406 33.133-25.535 51.504-30.648 13.84-53.504 36.699-67.93 68.055-2.1992 4.7773-0.10547 10.434 4.6719 12.633 1.2891 0.59375 2.6406 0.875 3.9727 0.875 3.6055 0 7.0547-2.0586 8.6602-5.5469 10.199-22.16 24.668-38.945 43.906-50.922-0.20312 0.98828-0.44922 1.9531-0.63672 2.9492-5.8398 30.656-5.7422 64.887 0.29688 101.75 0.48047 2.9414 2.3125 5.4883 4.9453 6.8828 2.6328 1.3945 5.7695 1.4727 8.4688 0.21484l58.785-27.336c-2.2852 15.508-3.1758 31.055-2.7344 46.559-16.172 9.2383-31.711 20.395-46.469 33.41-33.234 16.109-65.148 21.949-97.539 17.832-5.2461-0.66016-9.9844 3.0273-10.648 8.2461-0.66406 5.2148 3.0273 9.9844 8.2461 10.648 7.5391 0.96094 15.043 1.4414 22.535 1.4414 15.254 0 30.449-2.0156 45.734-6.0352-17 19.723-33.148 42.711-48.074 68.504-1.8359 3.1719-1.6875 7.1133 0.375 10.137 2.0625 3.0273 5.6836 4.5938 9.3008 4.0469l60.355-9.2148c-17.484 18.762-33.746 39.008-48.715 60.555-43.246-5.4531-81.734 5.6211-114.43 33.059-4.0273 3.3828-4.5547 9.3867-1.1719 13.418 1.8867 2.2422 4.582 3.4023 7.3008 3.4023zm927.24-609.95c1.2422-9.2344 5.4297-28.844 14.375-39.285 5.6016-6.5352 13.625-11.418 21.387-16.145 10.004-6.0898 20.352-12.387 26.371-22.613 6.2227-10.57 5.668-28.016 5.0273-48.211-0.50781-16.031-1.0352-32.605 1.7578-45.965 3.5078-16.777 18.098-37.992 29.277-52.363 7.6641 60.805 8.3281 116.65 1.9375 166.23-5.4102 41.93-16.004 80.672-31.516 115.29-22.281-4.4844-45.895-3.1758-59.637-1.7148 0.27344-13.656-0.79688-36.461-8.9805-55.227zm-735.67-78.043c6.0195 10.23 16.367 16.523 26.371 22.613 7.7656 4.7266 15.789 9.6133 21.387 16.145 8.9453 10.441 13.137 30.051 14.375 39.285-8.1797 18.766-9.2539 41.57-8.9844 55.227-13.727-1.4609-37.301-2.7695-59.559 1.6992-15.242-34-25.801-71.93-31.293-112.98-6.7109-50.188-6.1445-106.8 1.6367-168.54 11.18 14.367 25.77 35.582 29.277 52.363 2.7969 13.355 2.2695 29.934 1.7578 45.965-0.63672 20.203-1.1914 37.648 5.0312 48.215zm-30.855 396.66c-3.8047-29.875-3.3242-57.617 1.4375-82.617 5.9023-30.977 18.625-58.922 37.809-83.059 2.0234-2.543 2.6094-5.9414 1.5508-9.0156-1.0508-3.0742-3.6016-5.3984-6.7617-6.1641l-64.961-15.773c12.125-16.176 33.055-39.535 52.398-44.812 31.09-8.4844 70.602-1.6562 70.988-1.5898 2.957 0.52734 5.9688-0.37109 8.1602-2.4102 2.1914-2.0391 3.2969-4.9961 2.9805-7.9727-0.039062-0.35547-3.6367-36.035 7.7305-59.551 11.574-23.945 40.273-47.043 40.758-47.43 4.1172-3.2734 4.8008-9.2656 1.5273-13.383-3.2734-4.1133-9.2656-4.8008-13.383-1.5234-0.98047 0.78125-18.426 14.773-32.887 33.375-2.8984-9.6328-7.3945-20.332-14.27-28.359-7.5703-8.832-17.332-14.777-25.949-20.02-8.3633-5.0898-16.266-9.8984-19.859-16.008-3.4219-5.8164-2.8828-22.887-2.4062-37.945 0.51953-16.352 1.1055-34.883-2.1562-50.469-3.3516-16.027-14.203-34.316-24.688-49.121 27.586 12.289 53.133 27.32 76.184 44.988 28.613 21.922 54.258 48.465 76.23 78.879 2.0469 2.832 5.4805 4.3242 8.9453 3.8672 3.4648-0.44922 6.4062-2.7617 7.6602-6.0234 7.8555-20.398 10.496-39.422 7.9805-57.734 24.086 4.9688 43.789 16.184 59.938 34.059 2.2695 2.5156 5.7031 3.6367 9.0273 2.9336 3.3203-0.69922 6.0117-3.1055 7.082-6.3281 15.16-45.816 38.465-80.133 69.402-102.28l-5.5 57.375c-0.375 3.8984 1.6719 7.625 5.1641 9.3984 3.4922 1.7695 7.707 1.2305 10.637-1.3672 64.309-57.078 132.39-88.199 207.61-94.797l-49.492 82.785c-2.0352 3.4062-1.7461 7.7148 0.72656 10.82 2.4688 3.1016 6.6055 4.3555 10.383 3.125 34-11.012 65.129-28.016 94.664-51.762 0.96875 31.59-4.9102 61.973-17.551 90.559-1.9648 4.4492-0.26562 9.6602 3.9414 12.098 4.2109 2.4375 9.5781 1.3008 12.449-2.6172 12.352-16.867 27.941-30.531 46.492-40.773-1.8789 20.844 2.5977 39.715 13.387 56.281 1.7109 2.6328 4.6133 4.2461 7.75 4.3242 3.1211 0.058593 6.1094-1.3984 7.9492-3.9453 22.016-30.473 47.715-57.051 76.387-79 23.008-17.613 48.504-32.605 76.027-44.867-10.48 14.809-21.336 33.094-24.688 49.121-3.2617 15.586-2.6719 34.121-2.1562 50.473 0.48047 15.059 1.0195 32.125-2.4062 37.945-3.5938 6.1055-11.496 10.914-19.859 16.008-8.6133 5.2422-18.379 11.188-25.949 20.02-6.875 8.0234-11.375 18.727-14.27 28.355-14.461-18.602-31.906-32.594-32.887-33.375-4.1172-3.2773-10.102-2.5898-13.375 1.5195-3.2773 4.1133-2.5977 10.105 1.5156 13.383 0.28906 0.23047 29.145 23.406 40.758 47.434 11.367 23.52 7.7695 59.195 7.7305 59.547-0.32031 2.9766 0.78516 5.9297 2.9727 7.9727 2.1875 2.0391 5.207 2.9375 8.1641 2.418 0.39453-0.070312 39.91-6.8945 70.992 1.5898 19.344 5.2812 40.277 28.637 52.402 44.812l-64.965 15.773c-3.1602 0.76563-5.707 3.0898-6.7617 6.1641-1.0547 3.0742-0.46875 6.4727 1.5508 9.0156 19.73 24.82 32.617 53.668 38.301 85.742 4.3047 24.277 4.6172 51.117 0.94531 79.938l-63.871-29.703c-3.2812-1.5273-7.1445-1.0625-9.9648 1.1992-2.8281 2.2617-4.125 5.9258-3.3555 9.4609 7.8672 36.137 7.7109 72.633-0.45703 108.48-4.9414 21.699-12.938 43.676-23.82 65.527l-36.418-63.922c-1.9023-3.3398-5.6133-5.207-9.4375-4.7383-3.8125 0.46875-6.9727 3.1836-8.0078 6.8867-0.30078 1.0625-30.309 106.77-75.082 143.55-42.605 34.996-124.59 58.914-199.43 58.215-1.1016 0.007812-2.1875 0.015625-3.2891 0.015625-73.809 0-153.98-23.75-195.96-58.23-44.777-36.777-74.785-142.48-75.082-143.55-1.0352-3.6992-4.1953-6.418-8.0078-6.8867-3.8164-0.46484-7.5391 1.3984-9.4375 4.7383l-36.418 63.922c-12.18-24.461-20.734-49.078-25.484-73.379-6.4961-33.254-6.0938-67.113 1.2031-100.63 0.76953-3.5352-0.53125-7.1992-3.3555-9.4609-2.8242-2.2617-6.6875-2.7305-9.9648-1.1992z"/>
</svg>
