<?xml version="1.0" encoding="UTF-8"?>
<svg width="1200pt" height="1200pt" version="1.1" viewBox="0 0 1200 1200" xmlns="http://www.w3.org/2000/svg">
 <g>
  <path d="m1147.2 581.59c17.07-16 52.762-56.145 52.762-112.36 0-62.477-51.785-107.19-68.117-119.76 2.0938-18.43 6.5938-76.094-13.523-110.74-20.355-35.023-71.332-59.953-86.855-66.93-4.0703-15.094-18.738-60.953-51.523-80.406-31.977-18.953-83.809-21.047-100.02-21.215-9.5-11.93-40.094-45.57-88.191-52.355-45.5-6.4062-86.645 8.168-101.79 14.523-11.648-10.047-42.766-32.355-89.957-32.355s-78.309 22.285-89.953 32.355c-15.145-6.3555-56.309-20.93-101.79-14.523-48.094 6.7852-78.691 40.43-88.191 52.355-16.215 0.16797-68.047 2.2617-100.02 21.215-32.785 19.453-47.453 65.309-51.523 80.406-15.523 6.9766-66.5 31.906-86.855 66.93-20.117 34.645-15.617 92.309-13.523 110.74-16.336 12.57-68.121 57.285-68.121 119.76 0 56.215 35.691 96.355 52.762 112.36-11.883 11.477-31.168 35.285-31.168 68.906 0 38.883 30.477 66.383 42.93 76-2.7852 19.07-9.0703 78.117 14.285 109.69 19.047 25.738 50.809 38.906 69 44.645-10.547 17.43-16.383 39.215-7.6914 64.191 9.0938 26.07 29.809 38.785 51.523 44.691-75.496 49.449-113.76 116.88-113.76 200.76 0 5.2617 4.2617 9.5234 9.5234 9.5234 5.2617 0 9.5234-4.2617 9.5234-9.5234 0-83.594 41.762-149.64 124.07-196.38 10.117 0.47656 19.285 0 26.215-0.64453-2.7148 27.07-3.4062 89.238 41.977 115 14.168 8.0469 29.238 11.094 43.953 11.094 30.762 0 59.953-13.332 75.668-22 6.3555 23.906 25.594 70.715 79.668 79.453 5.5469 0.90625 10.906 1.3086 16.117 1.3086 47 0 80.762-33.57 95.383-51.406 14.617 17.832 48.383 51.406 95.383 51.406 5.2148 0 10.594-0.40625 16.117-1.3086 54.07-8.7383 73.309-55.547 79.668-79.453 23.238 12.832 75.832 35.785 119.62 10.906 45.383-25.762 44.691-87.93 41.977-115 6.9297 0.64453 16.094 1.1172 26.215 0.64453 82.309 46.738 124.07 112.79 124.07 196.38 0 5.2617 4.2617 9.5234 9.5234 9.5234s9.5234-4.2617 9.5234-9.5234c0-83.883-38.262-151.31-113.76-200.76 21.715-5.9062 42.43-18.617 51.523-44.691 8.6914-24.977 2.8555-46.762-7.6914-64.191 18.191-5.7383 49.953-18.906 69-44.645 23.355-31.57 17.07-90.617 14.285-109.69 12.453-9.6172 42.93-37.117 42.93-76 0-33.613-19.289-57.426-31.168-68.902zm-113.26-152.33c-3.2148-4.168-9.1914-4.9297-13.355-1.6914-18.191 14.07-31.855 33.309-41.355 58.145-4.168-25.953-9-52.832-14.547-78.93 8.4062-9.4766 34.477-35.762 62.668-32.883 10.785 1.1172 19.57 10.383 25.047 17.953 18.117 25.094 32.07 77.215 19.883 132.33-11.547 52.145-52.953 90.383-74.332 107.14-1.9766-19.953-5.7852-55.715-11.594-97.809 6.9766-42.645 22-72.383 45.906-90.906 4.1328-3.2109 4.8945-9.1875 1.6797-13.355zm67.902-180.95c17.094 29.43 12.883 82.547 11.047 99.094l-52.715 24.117c-9.3555-9.7383-19.906-15.43-30.906-16.57-29.191-2.9531-54.855 15.785-69.523 29.594-8.168-34.977-17.668-67.523-28.594-93.094 45.285-25.5 77.883-59.117 97.047-100.12 17.621 8.3828 57.859 29.785 73.645 56.977zm-403.29-198.88c14.285-5.7617 51.117-18.285 90.5-12.738 42.191 5.9531 69.523 37.262 76.477 46.094-0.92969 35.691-13.809 67.047-39.285 95.523-42.309-25.738-91.762-44.355-140.48-54.738 11.43-25.238 15.691-50.07 12.785-74.141zm-287.64-12.738c39.383-5.5234 76.215 6.9766 90.5 12.738-2.9062 24.07 1.3555 48.93 12.785 74.145-48.715 10.406-98.168 29.023-140.48 54.738-25.477-28.453-38.355-59.832-39.285-95.523 6.9531-8.8594 34.309-40.145 76.477-46.098zm-312.79 211.62c15.785-27.191 56.023-48.594 73.645-56.977 19.168 41 51.762 74.617 97.047 100.12-10.93 25.57-20.43 58.117-28.594 93.094-14.668-13.832-40.332-32.57-69.523-29.594-11 1.1445-21.547 6.832-30.906 16.57l-52.715-24.117c-1.8359-16.547-6.0508-69.664 11.047-99.094zm69.594 194.31c23.906 18.523 38.93 48.262 45.906 90.906-5.8086 42.117-9.6172 77.883-11.594 97.832-21.355-16.715-62.762-54.883-74.332-107.17-12.191-55.117 1.7617-107.24 19.883-132.33 5.4766-7.5703 14.262-16.832 25.047-17.953 28.07-2.8828 54.215 23.43 62.668 32.883-5.5469 26.094-10.383 53-14.547 78.93-9.5-24.832-23.168-44.07-41.355-58.145-4.168-3.2148-10.145-2.4766-13.355 1.6914-3.2266 4.168-2.4648 10.145 1.6797 13.355zm-148.67 26.621c0-53 46.094-93.191 60.406-104.38l48.453 22.191c-21.906 35.453-29.668 92.145-18.809 141.26 2.8555 12.883 7.2852 24.93 12.668 36.117l-51.57 7.1914c-11.242-9.7617-51.148-48.234-51.148-102.38zm75.074 355.64c-19.309-26.094-12.953-80.715-10.594-96.523l94.953-51.594c-20.168 33.383-42.309 85.668-20.977 131.67 6.1445 13.238 15.145 24.668 26 34.715-6.668 4.9062-15.406 12.145-23.57 21.383-13.312-3.6484-47.574-15.008-65.812-39.648zm313.69 251.14c-11.594 7.2852-67.43 39.594-109.21 15.883-39.906-22.668-33.832-87.191-31.547-103.81l91.047-57.785c7.9062 5.7617 16.906 13.691 27.094 22.668 15.645 13.809 34.191 30.145 56.453 45.43zm-10.023-137.33c-12.93-11.406-24.094-21.262-34.309-27.809-13.906-8.9531-34.332-16.594-57.977-25.453-49.215-18.406-110.45-41.332-130.71-85.023-28.738-61.93 41.668-144.52 42.383-145.36 1.3086-1.5234 2.1172-3.4062 2.2852-5.4297 0.23828-2.7383 24.168-275.74 75.691-369 23.355-42.285 69.832-80.715 130.88-108.21 55.477-25 118.91-39.332 174-39.332s118.5 14.332 173.95 39.332c61.023 27.5 107.48 65.93 130.83 108.21 51.523 93.262 75.453 366.26 75.691 369 0.16797 2 0.97656 3.9062 2.2852 5.4297 0.71484 0.83203 71.117 83.43 42.383 145.36-20.262 43.691-81.5 66.617-130.71 85.023-23.645 8.8555-44.07 16.5-57.977 25.453-10.215 6.5469-21.383 16.406-34.309 27.809-41.309 36.43-103.74 91.5-202.19 91.5-98.457 0-160.89-55.074-202.2-91.5zm310.64 219.5c-53.047 8.6172-91.094-39.332-98.93-50.191v-58.93c54.238-1.8086 97.57-18.953 132.59-40.191l32.668 74.93c-1.9531 12.215-13.5 65.859-66.332 74.383zm333.4-219.45c-15.691 45.07-85.117 36.355-96.715 34.547l-84.668-53.738c11.215-5.2383 25.215-10.477 40.691-16.262 32.738-12.262 70.477-26.406 99.953-47.617 14.715 10.141 54.93 42.355 40.738 83.07zm82.477-227.76-116.33-63.238c15.285-11.668 40.977-34.117 60.406-65.453l60.406 8.4297c6.6172 5.3828 30.523 27.023 30.523 59.785-0.003907 29.762-24.691 52.355-35.004 60.477z"/>
  <path d="m934.81 751.31c7.9766-7.5469 15.785-15.762 23.238-24.383 7.7148-8.9531 11.168-20.738 9.4297-32.355-1.7383-11.617-8.4766-21.906-18.645-28.309-17.332-10.93-40.477-7.4766-53.855 8.0234-16.738 19.355-50.117 52.406-85.594 56.145-6.832 0.71484-13.617 1.0703-20.191 1.0703-27.547 0-49.191-6.3555-70.145-12.5-18.715-5.5234-38.07-11.215-59.191-11.215-25.883 0-46.285 6.3086-59.832 12.309-13.547-6-33.93-12.309-59.832-12.309-21.117 0-40.5 5.7148-59.262 11.238-20.906 6.1172-42.523 12.477-70.094 12.477-6.5703 0-13.355-0.35547-20.168-1.0703-35.477-3.7383-68.832-36.762-85.57-56.117-13.332-15.453-36.453-18.93-53.738-8.0703l-0.11719 0.070312c-10.094 6.3555-16.883 16.668-18.617 28.332-1.7383 11.57 1.6914 23.309 9.3828 32.191 6.8086 7.8828 13.977 15.43 21.285 22.5 27.309 26.309 55.477 44.43 84.145 54.191 18.117 45.93 47.594 87.668 83.43 117.86 47.477 39.977 105.95 61.094 169.17 61.094s121.71-21.117 169.17-61.094c35.832-30.191 65.309-71.906 83.43-117.83 27.961-9.5273 55.484-26.98 82.176-52.242zm-307.24 46.383c0.88281-0.69141 8.332-6.1914 22.762-8.0234v115.43c-13.145 3.5-26.785 5.5938-40.809 6.2383v-104.43c6.6914-1.5508 12.906-4.6445 18.047-9.2148zm41.812 101.19v-108.81c7.5 1.3555 16.309 3.9297 26.07 6.8086 2.5234 0.73828 5.1445 1.5 7.832 2.2852v82.453c-10.738 6.9492-22.07 12.688-33.902 17.262zm53-31.383c-0.023437 0.023438-0.023437 0.023438-0.046874 0.046875l-0.003907-63.262c13.691 3.3828 29.023 6.3086 46.477 7.668-12.691 21.453-28.523 40.477-46.426 55.547zm-131.91-60.594v104.43c-14.023-0.64453-27.668-2.7617-40.809-6.2617v-115.43c14.117 1.7852 21.547 7.0469 22.617 7.8828 5.1914 4.6406 11.453 7.8047 18.191 9.3789zm-59.859-16.812v108.76c-11.832-4.5703-23.168-10.332-33.906-17.262v-82.43c2.7148-0.78516 5.3555-1.5469 7.9297-2.3086 9.7148-2.8555 18.477-5.4023 25.977-6.7617zm-52.949 14.215v63.191c-17.906-15.07-33.738-34.117-46.43-55.547 17.43-1.3594 32.762-4.2852 46.43-7.6445z"/>
  <path d="m253.57 578.86c8.8086 29.5 59.383 58.906 73.094 66.406 5.8555 11.691 28.832 52.191 64.762 52.191 29.332 0 59.094-21.93 72.645-33.355 8.1172 8.1914 22.523 19.383 39.07 17.453 14.43-1.7148 24.332-12.645 30.191-21.738 17.617 15.762 41.023 25.406 66.691 25.406 25.668 0 49.094-9.6445 66.715-25.406 5.8555 9.0938 15.738 20.023 30.191 21.738 16.5 1.9531 30.93-9.2617 39.07-17.453 13.523 11.43 43.309 33.355 72.617 33.355 35.93 0 58.906-40.5 64.785-52.191 13.691-7.5 64.285-36.906 73.094-66.406 8.2852-27.785-9.6914-58.523-16.832-69.238 3.3086-13.738 11.238-53.168-0.54687-76.906-11.238-22.668-41.691-30.191-56.977-32.594-1.2383-19.191-7.4766-62.523-38.309-68.57-29.117-5.7383-49.191 26.191-57.57 42.953-17.191-8.1445-53.953-21.668-77.477-2.0938-14.332 11.93-21.285 36.145-28.645 61.762-6.832 23.809-14.5 50.453-28.332 65.809-12.691-5.832-26.855-9.0938-41.785-9.0938-14.93 0-29.07 3.2617-41.785 9.0938-13.809-15.355-21.5-42-28.332-65.809-7.3555-25.617-14.285-49.832-28.645-61.762-23.5-19.57-60.262-6.0469-77.453 2.0938-8.3828-16.762-28.477-48.668-57.57-42.953-30.855 6.0469-37.07 49.383-38.332 68.57-15.262 2.4062-45.738 9.9297-56.977 32.594-11.762 23.738-3.8555 63.168-0.52344 76.906-7.1445 10.715-25.121 41.453-16.836 69.238zm93.098-60.285c0-40.785 27.977-73.953 62.355-73.953 34.383 0 62.383 33.168 62.383 73.953 0 40.785-28 73.953-62.383 73.953-34.379 0-62.355-33.168-62.355-73.953zm382 0c0-40.785 27.977-73.953 62.355-73.953 34.406 0 62.383 33.168 62.383 73.953 0 40.785-27.977 73.953-62.383 73.953-34.379 0-62.355-33.168-62.355-73.953zm-128.64-8.6406c44.117 0 80 35.023 80 78.117 0 43.07-35.883 78.117-80 78.117-44.094 0-80-35.047-80-78.117 0-43.094 35.906-78.117 80-78.117z"/>
  <path d="m755.69 330.76c2.1445 0 4.332-0.16797 6.5-0.52344 17.762-2.9062 63.977-36.238 73.07-42.883 2.8828-2.1172 4.332-5.6914 3.7617-9.2383-0.59375-3.5469-3.1172-6.4531-6.5469-7.5469-10.785-3.3828-65.547-20.191-83.262-17.285-10.57 1.7148-19.785 7.4297-25.953 16.047-6.0234 8.4531-8.3828 18.715-6.6445 28.883 3.2383 19.023 20.074 32.547 39.074 32.547z"/>
  <path d="m791.02 539.31c11.715 0 21.191-9.2852 21.191-20.738 0-11.453-9.4766-20.738-21.191-20.738-11.691 0-21.168 9.2852-21.168 20.738 0 11.453 9.4766 20.738 21.168 20.738z"/>
  <path d="m644.24 249.48c-0.92969 1.3555-22.953 34.07-22.953 78.477s22.023 77.094 22.953 78.477c1.832 2.6914 4.832 4.1445 7.8555 4.1445 1.8555 0 3.7148-0.54688 5.3555-1.668 4.332-2.9531 5.4531-8.8555 2.5234-13.215-0.21484-0.28516-19.645-29.43-19.645-67.738 0-38.168 19.285-67.215 19.645-67.738 2.9531-4.332 1.832-10.262-2.5-13.238-4.3281-2.9531-10.258-1.832-13.234 2.5z"/>
  <path d="m558.59 192.98h82.855c5.2617 0 9.5234-4.2852 9.5234-9.5234 0-5.2617-4.2617-9.5234-9.5234-9.5234h-82.855c-5.2383 0-9.5234 4.2617-9.5234 9.5234 0 5.2383 4.2852 9.5234 9.5234 9.5234z"/>
  <path d="m633.31 227.74c0-5.2617-4.2617-9.5234-9.5234-9.5234h-47.5c-5.2617 0-9.5234 4.2617-9.5234 9.5234s4.2617 9.5234 9.5234 9.5234h47.5c5.2617 0 9.5234-4.2617 9.5234-9.5234z"/>
  <path d="m542.57 408.91c1.668 1.1445 3.5234 1.668 5.3828 1.668 3.0469 0 6.0234-1.4531 7.8828-4.1445 0.92969-1.3828 22.953-34.07 22.953-78.477s-22.023-77.117-22.953-78.477c-2.9766-4.332-8.8828-5.4531-13.238-2.5-4.332 2.9531-5.4531 8.8828-2.5 13.238 0.19141 0.28516 19.645 29.406 19.645 67.738 0 38.309-19.453 67.453-19.645 67.715-2.9805 4.3555-1.8594 10.285 2.4727 13.238z"/>
  <path d="m364.81 287.36c9.0703 6.6445 55.285 39.977 73.047 42.883 2.1914 0.35547 4.3555 0.52344 6.5234 0.52344 18.977 0 35.809-13.523 39.047-32.547 1.7383-10.168-0.61719-20.43-6.6445-28.883-6.1445-8.6172-15.355-14.332-25.93-16.047-17.762-2.9062-72.5 13.906-83.285 17.285-3.4297 1.0938-5.9531 4-6.5469 7.5469-0.56641 3.5508 0.88672 7.1211 3.7891 9.2383z"/>
  <path d="m430.21 518.57c0 11.453-9.4883 20.738-21.191 20.738-11.703 0-21.191-9.2852-21.191-20.738 0-11.453 9.4883-20.738 21.191-20.738 11.703 0 21.191 9.2852 21.191 20.738"/>
 </g>
</svg>
