<?xml version="1.0" encoding="UTF-8"?>
<svg width="1200pt" height="1200pt" version="1.1" viewBox="0 0 1200 1200" xmlns="http://www.w3.org/2000/svg">
 <path d="m849.84 481.92 75.469-101.16c1.3125-1.6875 2.2969-3.4688 2.8594-5.625l38.625-154.55c3.2344-12.703-15.844-18.375-20.156-6.1406l-52.219 146.53-70.922 95.062-144 60.469c-2.625-5.2969-5.7656-10.312-9.375-15 16.453-21.844 160.69-212.86 160.69-212.86 4.5469-5.625 5.3906-13.688 1.2188-20.156l-91.312-143.53c-7.3125-11.625-25.312-1.2188-18.938 10.922l72.938 139.92-152.39 201.71c-4.3125-2.3906-8.8594-4.3125-13.547-6-0.9375-9.2344-1.9219-18.375-1.9219-18.375-0.60938-4.5469-1.6875-19.312-2.625-23.766-1.6875-6.9375-8.7656-12.141-15.609-11.531-5.1562 0.23438-5.7656 8.2969-0.60938 9.2344 1.7812 0.23437 3.4688 1.3125 3.9375 2.7656 0.9375 2.0625-1.9219 20.391-1.9219 23.391l-1.4531 13.922c-2.8594-0.23437-5.7656-0.46875-8.7656-0.46875s-5.8594 0.14063-8.7656 0.46875l-1.4531-13.922-1.9219-18.141c-0.60938-5.1562-0.84375-6.2344 3.375-7.7812 2.2969-0.23437 4.0781-1.9219 4.3125-4.3125-1.2188-11.297-19.312-1.7812-19.922 6.4688-1.4531 10.312-3 27.469-4.5469 42.234-4.6875 1.6875-9.375 3.6094-13.688 6l-152.39-201.71 72.938-139.92c2.625-5.0625 0.9375-11.297-3.8438-14.297-5.1562-3.2344-11.859-1.7812-15.141 3.375l-91.312 143.53c-3.8438 6-3.6094 14.297 1.2188 20.156l160.69 212.86c-3.6094 4.6875-6.7031 9.7031-9.375 15l-144-60.469-70.922-95.062c-8.0625-22.453-52.219-146.53-52.219-146.53-4.4531-12.375-23.297-6.6094-20.156 6.1406l38.625 154.55c0.46875 2.0625 1.5469 3.9375 2.8594 5.625l75.469 101.16c1.9219 2.5312 4.4531 4.5469 7.5469 5.8594l153.71 64.547c0 1.0781-0.14062 2.1562-0.14062 3.2344v10.453c-25.688 5.0625-200.29 39.703-200.29 39.703-4.9219 0.84375-9.4688 3.8438-12.141 8.5312l-94.688 170.06c-7.4531 13.922 12.609 25.688 21.141 12.609l100.45-156.94 185.53-36.844v10.312c-26.531 20.297-47.156 49.547-58.453 83.625-23.391 21.234-158.39 142.69-158.53 143.16-2.7656 2.3906-4.6875 5.7656-5.2969 9.7031l-36.844 215.16c-2.5312 16.219 21.234 20.625 24.938 4.9219l46.312-206.86 119.77-108.14v2.0625c0 96.141 70.453 174.24 156.94 174.24 86.531 0 156.94-78.141 156.94-174.24v-2.0625l119.77 108.14c7.7812 34.688 46.312 206.86 46.312 206.86 3.8438 15.938 27.469 11.062 24.938-4.9219l-36.844-215.16c-0.60938-3.6094-2.3906-7.0781-5.3906-9.7031-0.23438-0.23438-135.24-122.06-158.53-143.16-11.297-34.078-31.781-63.234-58.453-83.625v-10.312l185.53 36.844c20.062 31.312 100.45 156.94 100.45 156.94 8.7656 13.219 28.547 1.0781 21.141-12.609l-94.688-170.06c-2.3906-4.2188-6.4688-7.4531-11.625-8.3906-0.375 0-152.29-30.234-200.76-39.844v-10.453c0-1.0781-0.14062-2.1562-0.14062-3.2344l153.71-64.547c2.8594-1.2188 5.5312-3.2344 7.5469-5.8594z"/>
</svg>
